<?xml version="1.0" encoding="UTF-8"?>
<svg xmlns="http://www.w3.org/2000/svg" width="60" height="20">
<linearGradient id="midbar_1_" gradientUnits="userSpaceOnUse" x1="18.167" y1="9.917" x2="35.084" y2="9.917">
<stop offset="0" style="stop-color:#0055AA"></stop>
<stop offset="1" style="stop-color:#EE1122"></stop>
</linearGradient>
<rect id="midbar" x="18.167" y="6.917" fill="url(#midbar_1_)" width="16.917" height="6"></rect>
<path id="rightarrow" fill="#EE1122" d="M35,3l9,7l-9,7V3z"></path>
<path id="LatinA" fill="#333333" d="M50.916,2l-5.125,12c-0.375,0.75-0.75,1-1.25,1h-0.375v1h4.75v-1h-1.125c-0.5,0-0.75-0.125-0.75-0.375S47.166,14,47.166,14l0.75-1.75h5.75l0.75,1.75c0,0,0.125,0.375,0.125,0.625S54.416,15,54.041,15h-0.375v1h6v-1h-0.5c-0.375,0-0.75-0.5-1.25-1.5l-5-11.5H50.916zM50.791,5.5l2.375,5.5h-4.75L50.791,5.5z"></path>
<path id="HiraginaA" fill="#333333" d="M9.917,6c0,0-0.125,0.75-0.375,1.25h-1c0,0-1.375,0.125-2,0.25l0.125-1.625c1.375,0,4.5-0.375,6.625-0.625l-0.125-2c-1.5,0.5-4.75,0.875-6.375,0.875c0-0.375,0.125-1.375,0.25-2L5.042,2c0,0.75,0,1.125-0.125,2.25c0,0-3-0.125-3.75-0.25v1.75c0,0,1.75,0.125,3.625,0.125L4.667,8c-0.875,0.375-1.625,0.875-2.25,1.5c-1.125,1.125-1.75,2.5-1.75,3.875c0,1.75,1,3,2.625,3c1.375,0,3-0.875,4.5-2.5c1.25-1.25,2.125-2.5,3-4.5c1.25,0.375,1.875,1.25,1.875,2.375c0,2.25-3,3.25-5.125,3.25c0.5,0.875,0.625,1.25,0.875,2c2.25,0,6.25-1.75,6.25-5c0-2-0.75-3.5-3.25-4.25C11.667,7,11.792,6.5,11.792,6.5M4.792,9.875c0,1.75,0.125,2.75,0.25,3.875c-0.375,0.375-1,0.625-1.275,0.625c-0.725,0-1.1-0.375-1.1-1.25C2.667,11.625,3.792,10.625,4.792,9.875zM6.667,12.5c-0.125-1.375-0.125-2.125-0.125-3.375c0.75-0.25,1.625-0.375,2.5-0.25C8.542,10.25,7.667,11.5,6.667,12.5z"></path>
</svg>
