<?xml version="1.0"?>
<svg xmlns="http://www.w3.org/2000/svg" viewBox="0 0 1644.4 566.1" style="enable-background:new 0 0 1644.40000000000009095 566.10000000000002274">
<style type="text/css" id="style2">
	.st0{fill:#231F20;}
</style>
<path class="st0" d="M1644.3,241c-0.3-1.5-1.7-3.4-3-4.5c-4.2-3.7-8.9-6.8-14.7-8c-28.3-5.9-56.6-4.6-85,0.3  c-31.8,5.5-63,13.9-93.8,23.1c-48.3,14.3-96.1,30.2-143.9,46.3c-66,22.3-132.3,43.6-199.8,61.1c-31,8.1-63,11.3-94.4,17.3  c-34.2,6.5-68.5,4.8-102.7,0.6c-25.9-3.1-51.3-10-75.2-20.5c-10.4-4.5-17.8-10.5-21.8-18.3c-3.5-6.8-4.5-15.1-2.8-25  c2.9-16.9,2.6-33.8,0.9-50.7c-1.4-13.5,0.5-25.1,13.5-32.6c5.1-3.1,9.9-6.7,14.4-10.7c15.8-13.5,31.7-27,48.8-38.9  c7.8-5.4,16.3-10.1,21.6-18.3c4.5-6.9,6.4-15.2,3.8-22.5c-0.4-1-0.8-2.1-1.4-3.1c-4.9-8.8-14.2-5.2-22.2-3.1  c-11.4,3-20.2,10.7-30.1,16.4c-14.3,8.2-20.5,7.4-31.5-5c-3-3.4-5.9-6.8-8.7-10.3c-3.3-4.2-6-8.4-8.1-12.6  c-11.9-23.9-5.4-47.9,18.1-63c7-4.5,11.7-2.4,15.1,4.2c2.8,5.3,4.5,11.1,7.4,16.4c3.1,5.7,4.4,15.3,12.2,14.6  c8.3-0.7,9.5-10.1,10.5-16.9c3.6-23.2-1.2-45.4-9.1-66.9c-0.5-1.4-1.1-2.9-1.6-4.3c-1.2-3.4-4.4-5.8-8-6.1  c-12.7-0.6-24.5,1.7-33.5,11.9c-5.8,6.6-12,12.9-17.9,19.5c-14.4,16.1-27.1,33.4-34.8,53.8c-8.6,22.7-8.4,44.9,2.8,67  c6.1,11.9,15.1,21.5,22.6,32.2c3.1,4.4,4.4,8.9,0.2,13.1c-22.5,22.5-48.6,37.9-81.1,40.9c-4.5,0.4-8.3,0-11.4-1.4  c-4.1-1.8-7.1-5.3-9-10.8c-2.7-8.1-2.7-16.6-3-25c-0.3-13.6-0.3-27.3-1.6-40.8c-0.9-8.3-2.8-16.4-5.7-24.2c-1.9-5.3-5.4-8.8-10-10.5  c-3.5-1.4-7.7-1.6-12-0.7c-12.4,2.7-16.8,7.9-17.1,18.9c-0.3,12.2,2.4,24.1,3.5,36.2c2,22.4,5.5,45-1.6,66.9  c-5.3,16.4-10.9,24.4-28.3,19.1c-3.1-1-6.2-2.1-9.3-3.3c-3.1-1.2-6.1-2.5-9-3.9c-1-0.5-2.1-0.9-3.1-1.3c-7.2-2.7-14.5-3.5-21.8,0.6  c-9.7,5.5-12.2,14.3-11,24.7c0.9,8.3,6.5,12.9,13.4,16c4.4,2,8.8,3.8,13.2,5.6c1.9,0.8,3.9,1.6,5.8,2.4c0.7,0.3,1.5,0.6,2.2,0.9  c0.3,0.1,0.6,0.3,0.9,0.4c9.4,4.1,18.6,8.8,26.6,15.5c13.5,11.3,27,22.8,24.1,43.5c-1.6,11.6-5.6,22.7-11.7,32.7  c-23.6,37.6-49.5,73.2-87.8,98c-14.4,9.3-28.8,15.9-46,16.9c-2.9,0.2-5.7,0.1-8.3-0.1c-14.1-1.3-23.7-8.6-29.3-23.5  c-8.2-21.7-7.6-44.4-5.8-67c0.5-6.6,4.5-11.3,9.5-15.8c11.8-10.6,27.2-17.4,35.2-32c14.6-26.7,23.4-55.2,24.8-85.6  c1-21.4-0.6-42.7-13.4-61.3c-2.6-3.8-4.9-6.4-7.1-8c-4.9-3.5-9.7-1.9-17.6,4.4c-17.6,14.1-27.7,33.3-36.3,53.6  c-11.1,26.3-18.9,53.6-26.2,81.2c-1.5,5.9-2.8,14.1-10.1,14.5c-4.9,0.3-7.6-3-9.8-6.9c-1.1-2-2-4.1-2.9-6.1  c-4.2-8.8-3.2-18.2-3.1-27.5c0.1-7.9-1.8-15.4-7.7-19.6c-1.4-1-2.9-1.8-4.7-2.4c-20-6.6-33.2-7.1-33,17.9  c0.2,22.4-2.3,44.6-11.6,65.3c-10,22.3-32.5,29.3-51.4,19.7c-5.3-2.7-10.3-6.7-14.6-12.1c-13.3-16.3-15.1-36.3-18.9-55.5  c-3-14.8-3.2-30.2-11.2-43.7c-2.3-3.8-4.9-7.4-8.6-9.1c-2.2-1-4.7-1.4-7.7-0.8c-12.4,2.7-22.3,15-23,27.8  c-1.2,23.1,3.8,45.6,7.3,68.2c4,26.2,11.1,52.1,2.7,78.8c-7.8,24.8-26.4,32.3-46.6,17.8c-0.8-0.6-1.6-1.2-2.4-1.8  c-24.5-19.6-34-46.2-32.8-77.3c0.6-16.1,5.6-32,2.9-48.2c-6.4-38.6-16.1-76.4-26.6-114c-11.5-41-24-81.6-37.3-122.1  C63.7,87.8,51.7,52,38.1,16.8c-0.5-1.2-1-2.3-1.6-3.2c-2.3-3.9-5.7-6.2-11.3-4.6C25,9,24.9,9,24.7,9.1c-4.3,1.2-8.5,2.4-12.8,3.5  c-0.6,0.1-1.1,0.3-1.7,0.4c-2.6,0.6-4.7,1.4-6.3,2.6c-3.7,2.6-4.7,6.7-3.4,13C6.9,57.3,14.5,85.7,22,114.2  c8.2,31.2,19.8,61.3,27.8,92.6c3.1,12.1,7.5,23.7,10.5,35.7c7.5,30.1,14.7,60.2,25.1,89.4c4.5,12.6,10.5,24.5,8.2,38.9  c-3.3,20.4-4,41.1-2,61.7c2.3,23,7.9,44.8,21.1,64.2c2.9,3.8,5.5,7.8,8.6,11.4c22.7,26.7,51.5,37.8,85.6,34.7  c1.1-0.1,2.2-0.2,3.3-0.3c35.9-4.2,49.9-29.9,55.6-57.8c2.7-8.6,4.4-17.4,5-26.4c0.9-12.3,2.5-20.2,18.5-13.2  c11.9,5.2,24,10.1,37.4,10c7.9-0.1,15.8,1,23.7-1.6c19-6.3,31-19.7,40.1-36.7c2.6-4.8,5.8-9.7,12.4-6.2c5,2.7,9.8,5.2,15.7,5.9  c1.5,0.2,2.9,1,3.7,2.2c0.9,1.2,1.2,2.6,0.6,3.9c-3.3,6.9-1.2,13.8-0.9,20.6c1.3,30.6,4.6,60.9,19.7,88.5c0,0,0,0,0,0.1c0,0,0,0,0,0  c0,0,0,0,0-0.1c0.9,2.3,1.3,5,2.6,6.9c0.1,0.2,0.3,0.4,0.4,0.5c0.1,0.1,0.1,0.2,0.2,0.2c0,0,0,0,0,0c0,0,0,0,0,0  c25.8,29.5,56.2,35.6,89.4,13.5c29.4-19.5,53.8-44.5,77.5-70.3c2.5-2.7,5-5.5,7.4-8.2c7.8-8.8,15.2-17.8,21.6-27.7c0,0,0,0,0,0  c14.1-18.1,25.5-38.1,33.9-59.4c10.3-25.7,16-51.2,5.4-75.9c-2.4-5.7-5.7-11.4-10.1-17c-0.9-1.2-1.6-2.4-1.9-3.5  c-1.6-4.8,1.8-8.5,7.2-10.3c8.6-2.8,17.4-1,26.2,0c11.5,1.3,23,1.8,34-4.2c8.4-4.5,16.8-9.8,26.6-11.1c3.7-0.5,6.3,0.4,7.2,2.9  c0.4,1.2,0.4,2.6,0,4.4c-4.8,21.9-10.2,43.7-14.4,65.7c-6.5,33.8-13.3,67.3-29.7,98c-5.7,10.7-10.8,21-10.9,33.7  c0,2.5,0.4,4.9,1.2,7.1c2.8,7.7,10.3,12.7,19.2,10.3c16.3-4.3,24.9-17.3,32.8-30.4c9-14.9,16.4-30.8,23-47  c5.4-13.1,9.2-14.4,21.1-7.3c26.6,16,56,22.9,86.5,24.4c59.4,3,118.2-2.9,176.6-14.2c35.3-6.8,69.9-16.1,104.6-25.3  c35-9.3,69.9-19.4,103.6-32.6c67.2-26.5,134.1-53.5,204.6-70.1c23-5.4,45.8-10.7,69.5-11.9c18.2-0.9,35.6,3.2,53.3,5.6  c10.3,1.4,21.9,4.1,28.6-7.8c5-8.9,3.5-19.4,5.5-29.1C1644.4,241.7,1644.4,241.3,1644.3,241z M483.6,289.4c0.9-1.8,2.5-4,5-3.5  c2.8,0.6,4,3.1,4.8,5.8c2.1,7.5,0.5,15-0.9,22.2c-2.3,12.2-6.4,24-14.5,33.9c-1.8,2.1-3.5,5-6.9,3.7c-4.5-1.7-4.4-5.8-4.4-9.7  C468.5,323.2,475.1,306,483.6,289.4z" id="path6" style="fill:#000000" />
</svg>
