<?xml version="1.0" encoding="UTF-8" standalone="no"?>
<svg xmlns="http://www.w3.org/2000/svg" xmlns:xlink="http://www.w3.org/1999/xlink" width="360" height="290" version="1.0" viewBox="0 0 62 62">
  <defs>
    <linearGradient id="c" x1="61.6255" x2="61.6255" y1="-551.25" y2="-652.24951" gradientTransform="matrix(1 0 0 -1 0 -538)" gradientUnits="userSpaceOnUse">
      <stop offset="0" stop-color="#fff"/>
      <stop offset=".1478" stop-color="#ffe1e1"/>
      <stop offset=".23630001" stop-color="#ffd4d4"/>
      <stop offset=".35049999" stop-color="#ffe3e3"/>
      <stop offset=".52640003" stop-color="#fff3f3"/>
      <stop offset=".72619998" stop-color="#fffcfc"/>
      <stop offset="1" stop-color="#fff"/>
    </linearGradient>
    <linearGradient id="j" x1="52.778114" x2="22.0144" y1="-13.238551" y2="51.987099" gradientUnits="userSpaceOnUse">
      <stop offset="0" stop-color="#d8ebff"/>
      <stop offset="1" stop-color="#4fa9ff"/>
    </linearGradient>
    <linearGradient id="d" x1="62.4063" x2="62.4063" y1="-595" y2="-603.18707" gradientTransform="matrix(1 0 0 -1 0 -538)" gradientUnits="userSpaceOnUse">
      <stop offset="0" stop-color="#8ba4d6"/>
      <stop offset="1" stop-color="#1b3ea6"/>
    </linearGradient>
    <linearGradient xlink:href="#a" id="t" x1="52.778114" x2="22.0144" y1="-13.238551" y2="51.987099" gradientTransform="translate(23.054364 15.962015) scale(.7529)" gradientUnits="userSpaceOnUse"/>
    <linearGradient xlink:href="#b" id="u" x1="54.509937" x2="9.5471001" y1="41.179295" y2="16.248501" gradientTransform="translate(23.054364 15.962015) scale(.7529)" gradientUnits="userSpaceOnUse" spreadMethod="pad"/>
    <linearGradient xlink:href="#c" id="v" x1="61.6255" x2="61.6255" y1="-551.25" y2="-652.24951" gradientTransform="matrix(1 0 0 -1 0 -538)" gradientUnits="userSpaceOnUse"/>
    <linearGradient xlink:href="#d" id="C" x1="62.4063" x2="62.4063" y1="-595" y2="-603.18707" gradientTransform="matrix(.33077 0 0 -.33077 25.752036 -158.92291)" gradientUnits="userSpaceOnUse"/>
    <linearGradient xlink:href="#e" id="r" x1="55.454102" x2="9.5471001" y1="42.752899" y2="16.248501" gradientUnits="userSpaceOnUse"/>
    <linearGradient id="f" x1="52.778114" x2="22.0144" y1="-13.238551" y2="51.987099" gradientUnits="userSpaceOnUse">
      <stop offset="0" stop-color="#d8ebff"/>
      <stop offset="1" stop-color="#4fa9ff"/>
    </linearGradient>
    <linearGradient xlink:href="#f" id="e" x1="54.509937" x2="9.5471001" y1="41.179295" y2="16.248501" gradientUnits="userSpaceOnUse" spreadMethod="pad">
      <stop offset="0" stop-color="#3e79ca"/>
      <stop offset="1" stop-color="#36a8ff"/>
    </linearGradient>
    <linearGradient id="a" x1="52.778114" x2="22.0144" y1="-13.238551" y2="51.987099" gradientUnits="userSpaceOnUse">
      <stop offset="0" stop-color="#ffd8d8"/>
      <stop offset="1" stop-color="#ff4f4f"/>
    </linearGradient>
    <linearGradient xlink:href="#g" id="b" x1="54.509937" x2="9.5471001" y1="41.179295" y2="16.248501" gradientUnits="userSpaceOnUse" spreadMethod="pad">
      <stop offset="0" stop-color="#b22222"/>
      <stop offset="1" stop-color="#ff5043"/>
    </linearGradient>
    <linearGradient id="g" x1="52.778114" x2="22.0144" y1="-13.238551" y2="51.987099" gradientUnits="userSpaceOnUse">
      <stop offset="0" stop-color="#d8ebff"/>
      <stop offset="1" stop-color="#4fa9ff"/>
    </linearGradient>
    <linearGradient id="k">
      <stop offset="0" stop-color="#49c007"/>
      <stop offset="1" stop-color="#209305"/>
    </linearGradient>
    <radialGradient id="h">
      <stop offset="0" stop-color="silver"/>
      <stop offset=".88" stop-color="silver"/>
      <stop offset="1" stop-color="silver" stop-opacity="0"/>
    </radialGradient>
    <radialGradient xlink:href="#h" id="s" cx="32.5" cy="29.5" r="26.5" fx="32.5" fy="29.5" gradientTransform="matrix(.80168 0 0 .8017 21.473283 16.77996)" gradientUnits="userSpaceOnUse"/>
    <radialGradient id="i">
      <stop offset="0" stop-opacity=".31182796"/>
      <stop offset=".88" stop-opacity=".60573477"/>
      <stop offset="1" stop-opacity="0"/>
    </radialGradient>
    <radialGradient xlink:href="#i" id="n" cx="31.385874" cy="32.356133" r="26.5" fx="31.385874" fy="32.356133" gradientTransform="matrix(.89212 -.00516 .00475 .82985 3.1699424 4.9060417)" gradientUnits="userSpaceOnUse"/>
    <radialGradient xlink:href="#j" id="o" cx="16.352713" cy="26.318125" r="26.799999" fx="16.352713" fy="26.318125" gradientTransform="matrix(.41354 1.28287 -1.07194 .3353 40.292921 -7.9412569)" gradientUnits="userSpaceOnUse"/>
    <radialGradient xlink:href="#k" id="p" cx="54.43594" cy="53.529755" r="54.085938" fx="54.43594" fy="53.529755" gradientTransform="matrix(1 0 0 .98325 0 .89686437)" gradientUnits="userSpaceOnUse"/>
    <clipPath id="w">
      <use xlink:href="#l" width="62" height="62" overflow="visible"/>
    </clipPath>
    <clipPath id="q">
      <use xlink:href="#m" width="100%" height="100%" overflow="visible"/>
    </clipPath>
    <circle id="l" cx="61.625" cy="61.875" r="51.375"/>
    <path id="m" d="M127.65 64c0 35.15-28.5 63.66-63.66 63.66C28.84 127.66.35 99.16.35 64 .35 28.85 28.85.35 63.99.35c35.16 0 63.66 28.5 63.66 63.65z"/>
  </defs>
  <g transform="matrix(.97968 0 0 .97 -8.1511978 -.33456336)">
    <circle cx="32.5" cy="29.5" r="26.5" fill="url(#n)" transform="matrix(1.23525 0 0 1.24758 -6.5638001 -5.1685754)"/>
    <circle cx="31" cy="30.5" r="28.5" fill="url(#o)"/>
    <circle cx="31" cy="30.5" r="28.5" fill="#fff" opacity=".29807691"/>
    <g fill="url(#p)" stroke="#1a7a0b" stroke-width="1.46858275" clip-path="url(#q)" transform="matrix(.43205 0 0 .43202 3.412307 2.889638)">
      <path d="M5 61.63c1.02.1 2.02.28 2.9.89 1.2.82 1.58 2.38 1.92 3.74.81 3.25.27 6.76 1.32 9.92.53 1.6.89 3.1 1.72 4.53.8 1.35 1.73 2.58 2.66 3.81 1.18 1.51 3.43 3.57 5.36 2.19 1.75-1.25 1.62-4.56 1.61-6.53-.01-1.85.34-3.66.87-5.41.3-.97.48-2.01.73-2.99.4-1.61 1.04-2.83 2.01-4.14 2.26-3.04 6.42-4.31 9.92-3.15 2 .66 4 1.6 5.83 2.68 1.57.93 2.64 2.49 3.9 3.8.92.95 1.84 1.75 3.17 1.91 1.37.17 2.31.02 3.52.88.48.34 1.03.71 1.34 1.24.31.56.08 1.15.31 1.67.63 1.41 2.36 1.18 3.59 1.19 2.48.01 5.52-1.56 6.22-4.28.26-1.01-.5-1.87-.02-2.85.51-1.06 2.17-1.84 3.06-2.57 2.09-1.71 4.78-5.39 3.75-8.38-.43-1.28-1.38-2.83-2.37-3.74-1.05-.96-2.5-1.57-2.94-2.96-.56-1.82-.91-4.13-.07-5.91.43-.92 1.31-1.77 1.91-2.6.73-1 1.29-2.11 2.01-3.1.98-1.35 2.52-1.99 3.87-2.84 1.32-.84 2.47-2.29 2.99-3.81.51-1.49.55-2.58 1.72-3.8 1.38-1.46 3.41-1.93 4.84-3.32 1.25-1.22 1.51-2.33 2.01-3.85.56-1.7 2.16-3.41 3.75-4.07 3.08-1.29 6.66-1.15 9.68.24 2.26 1.04 5.19 2.61 7.72 1.63 3.6-1.39 1.43-4.45.18-6.77-1.08-2-2.7-3.82-4.37-5.3-2.21-1.98-4.59-3.62-7.29-4.98-2.26-1.16-4.38-2.16-6.82-2.86-.81-.24-1.39-.72-2.12-1.1-1.04-.55-2.23-.83-3.34-1.16C76.16-2.25 69.9-1.78 63.86-1.8c-6.72.01-13.67 1.9-19.95 4.19-4.62 1.69-9.43 2.98-13.8 5.35-4.24 2.31-8.46 5.11-11.89 8.52-2.99 2.99-5.81 6.31-8.23 9.76-1.24 1.77-2.66 3.49-3.76 5.36-.82 1.38-1.07 2.77-2.22 3.97-1.13 1.17-1.76 2.62-2.32 4.13-.38 1.04-.88 1.94-1.34 2.93-.43.91-.55 1.92-.93 2.84-1.15 2.8-1.93 6.52-1.53 9.58.22 1.7.51 3.51 1.58 4.92.47.63 1.1 1.22 1.85 1.53.76.32 1.48.15 2.27.23.47.05.94.08 1.41.12z"/>
      <path d="M79.34 43.82c-.54.69-1.26 1.25-1.79 1.96-.49.65-.54 1.14-.76 1.89-.7 2.41-2.67.96-4.29 1.84-1.37.75-1.61 3.47-1.65 4.83-.07 2.27 1.74 3.18 3.32 1.42.66-.74.87-1.16 1.91-1.18 1.05-.02 1.85-.02 2.82-.53.79-.44 1.21-.92 1.22-1.85.01-.52-.44-1.01-.42-1.48.04-.83.15-.39.75-.82 1.15-.79 1.92-2.05 2.43-3.34.42-1.08.17-3.13 1.04-3.93.59-.55 1.6-.42 2.09-.94 1.47-1.58-.77-7.22-3.27-6.07-1.23.56-3.62 1.74-3.88 3.24-.19 1.1.98 1.72 1.25 2.67.25.91-.22 1.57-.77 2.29zM72.1 75.95c-1.53 0-3.88-.32-5.09.93C63.92 80.15 70.33 80 72 80c1.56 0 2.81.19 4.33.47 1.28.25 2.55.43 3.33-.95.95-1.69-.45-3.04-2.02-3.47-1.87-.54-3.63-.1-5.54-.1zm10.85 1.74c.93.52 3.38.87 4.32.29.83-.51.86-1.9.31-2.63-1.09-1.49-4-1.57-5.53-.87-.87.39-1.23.52-.77 1.49.29.6 1.09 1.38 1.67 1.72zm-5.43 9.92c-2.23-1.6-2.59-2.72-5.71-.95-2.11 1.19-3.9 2.46-5.71 4.05-1.79 1.57-3.98 2.81-4.3 5.4-.23 1.94.11 3.35 1.62 4.58 1.78 1.45 3.53 1.42 5.73 1.42 1.5 0 3.07-.15 4.57-.01 1.46.15 2.58 1.03 3.79 1.74 2.18 1.25 4.53 1.37 6.89 1.89 2.85.63 5.83.09 7.91-2.01 2.52-2.54 2.93-7.48 1.78-10.72-.8-2.27-1.81-4.61-3.74-6.06-2.39-1.78-4.1-.1-6.07 1.09-1.79 1.09-4.51 1.08-6.25-.08-.19-.11-.36-.22-.51-.34z"/>
      <path d="M27.89 84.12c3.14 1.18.14 5.02-1.97 5.25-1.42.16-1.56-1.6-1.39-2.66.25-1.59 1.65-3.24 3.36-2.59z" opacity=".98009997"/>
    </g>
    <circle cx="31" cy="31" r="25.799999" fill="none" stroke="url(#r)" stroke-width="2.53768158" transform="matrix(1.08857 0 0 1.10509 -2.6578995 -3.5749553)"/>
  </g>
  <ellipse cx="47.527981" cy="40.430099" fill="url(#s)" rx="21.2446" ry="21.245039"/>
  <circle cx="46.394119" cy="39.301773" r="19.4247" fill="url(#t)" stroke="url(#u)" stroke-width="2.47387958"/>
  <circle cx="46.428967" cy="39.282719" r="17.531185" fill="#ff8080"/>
  <circle cx="61.625" cy="63.875" r="51.375" fill="url(#v)" clip-path="url(#w)" transform="translate(25.976412 18.720017) scale(.33077)"/>
  <use xlink:href="#x" id="y" width="62" height="62" x="0" y="0" transform="rotate(30 46.394132 39.301801)"/>
  <use xlink:href="#x" id="z" width="62" height="62" x="0" y="0" transform="rotate(60 46.39413 39.301805)"/>
  <use xlink:href="#y" width="62" height="62" transform="rotate(60 46.394127 39.301803)"/>
  <use xlink:href="#z" width="62" height="62" transform="rotate(60 46.394127 39.301803)"/>
  <use xlink:href="#x" width="62" height="62" transform="rotate(150 46.394131 39.301801)"/>
  <use xlink:href="#x" width="62" height="62" transform="rotate(180 46.394129 39.301801)"/>
  <use xlink:href="#y" width="62" height="62" transform="rotate(180 46.394129 39.301799)"/>
  <use xlink:href="#z" width="62" height="62" transform="rotate(180 46.394129 39.301799)"/>
  <use xlink:href="#x" width="62" height="62" transform="rotate(-90 46.394135 39.301794)"/>
  <use xlink:href="#y" width="62" height="62" transform="rotate(-90 46.394136 39.301793)"/>
  <use xlink:href="#z" width="62" height="62" transform="rotate(-90 46.394136 39.301793)"/>
  <path id="x" fill="red" fill-opacity="1" stroke="none" stroke-width="1.23693991" d="M46.154686 23.278074h.47887105v2.3504157H46.154686z"/>
  <circle id="A" cx="50.248127" cy="18.926825" r=".35554361" fill="red" fill-opacity="1" stroke="none" stroke-width=".2137931" transform="rotate(6)"/>
  <use xlink:href="#A" width="62" height="62" transform="rotate(6 46.39415 39.301812)"/>
  <use xlink:href="#A" width="62" height="62" transform="rotate(12 46.39415 39.30181)"/>
  <use xlink:href="#A" width="62" height="62" transform="rotate(18 46.394146 39.301816)"/>
  <use xlink:href="#A" width="62" height="62" transform="rotate(30 46.394144 39.301815)"/>
  <use xlink:href="#A" width="62" height="62" transform="rotate(36 46.394146 39.301813)"/>
  <use xlink:href="#A" width="62" height="62" transform="rotate(42 46.394145 39.301811)"/>
  <use xlink:href="#A" width="62" height="62" transform="rotate(48 46.394146 39.301812)"/>
  <use xlink:href="#A" width="62" height="62" transform="rotate(60 46.394143 39.30182)"/>
  <use xlink:href="#A" width="62" height="62" transform="rotate(66 46.394145 39.30182)"/>
  <use xlink:href="#A" width="62" height="62" transform="rotate(72 46.394145 39.301818)"/>
  <use xlink:href="#A" width="62" height="62" transform="rotate(78 46.394146 39.301816)"/>
  <use xlink:href="#A" width="62" height="62" transform="rotate(90 46.394149 39.301819)"/>
  <use xlink:href="#A" width="62" height="62" transform="rotate(96 46.39415 39.30182)"/>
  <use xlink:href="#A" width="62" height="62" transform="rotate(102 46.39415 39.301818)"/>
  <use xlink:href="#A" width="62" height="62" transform="rotate(108 46.39415 39.301818)"/>
  <use xlink:href="#A" width="62" height="62" transform="rotate(120 46.394147 39.30182)"/>
  <use xlink:href="#A" width="62" height="62" transform="rotate(126 46.394148 39.30182)"/>
  <use xlink:href="#A" width="62" height="62" transform="rotate(132 46.394146 39.301818)"/>
  <use xlink:href="#A" width="62" height="62" transform="rotate(138 46.394148 39.301818)"/>
  <use xlink:href="#A" width="62" height="62" transform="rotate(150 46.394152 39.301817)"/>
  <use xlink:href="#A" width="62" height="62" transform="rotate(156 46.394153 39.301817)"/>
  <use xlink:href="#A" width="62" height="62" transform="rotate(162 46.394153 39.301816)"/>
  <use xlink:href="#A" width="62" height="62" transform="rotate(168 46.394154 39.301816)"/>
  <use xlink:href="#A" width="62" height="62" transform="rotate(180 46.39415 39.301815)"/>
  <use xlink:href="#A" width="62" height="62" transform="rotate(-174 46.394151 39.301816)"/>
  <use xlink:href="#A" width="62" height="62" transform="rotate(-168 46.394151 39.301816)"/>
  <use xlink:href="#A" width="62" height="62" transform="rotate(-162 46.394152 39.301815)"/>
  <use xlink:href="#A" width="62" height="62" transform="rotate(-150 46.394152 39.301817)"/>
  <use xlink:href="#A" width="62" height="62" transform="rotate(-144 46.394152 39.301818)"/>
  <use xlink:href="#A" width="62" height="62" transform="rotate(-138 46.394153 39.301816)"/>
  <use xlink:href="#A" width="62" height="62" transform="rotate(-132 46.394153 39.301817)"/>
  <use xlink:href="#A" width="62" height="62" transform="rotate(-120 46.394149 39.301815)"/>
  <use xlink:href="#A" width="62" height="62" transform="rotate(-114 46.39415 39.301816)"/>
  <use xlink:href="#A" width="62" height="62" transform="rotate(-108 46.39415 39.301812)"/>
  <use xlink:href="#A" width="62" height="62" transform="rotate(-102 46.394152 39.301814)"/>
  <use xlink:href="#A" width="62" height="62" transform="rotate(-90 46.394156 39.301813)"/>
  <use xlink:href="#A" width="62" height="62" transform="rotate(-84 46.394156 39.301815)"/>
  <use xlink:href="#A" width="62" height="62" transform="rotate(-78 46.394157 39.301814)"/>
  <use xlink:href="#A" width="62" height="62" transform="rotate(-72 46.394159 39.301813)"/>
  <use xlink:href="#A" width="62" height="62" transform="rotate(-60 46.394156 39.301815)"/>
  <use xlink:href="#A" width="62" height="62" transform="rotate(-54 46.394157 39.301816)"/>
  <use xlink:href="#A" width="62" height="62" transform="rotate(-48 46.394161 39.301814)"/>
  <use xlink:href="#A" width="62" height="62" transform="rotate(-42 46.394161 39.301814)"/>
  <use xlink:href="#A" width="62" height="62" transform="rotate(-30 46.39416 39.301799)"/>
  <use xlink:href="#A" width="62" height="62" transform="rotate(-24 46.394159 39.3018)"/>
  <use xlink:href="#A" width="62" height="62" transform="rotate(-18 46.394177 39.301778)"/>
  <use xlink:href="#A" width="62" height="62" transform="rotate(-12 46.394187 39.301778)"/>
  <rect width=".66160923" height="11.80027" x="-56.116913" y="14.714886" fill="#911c1c" stroke="#e41d2f" stroke-linejoin="round" stroke-width=".53448272" rx=".33080462" ry=".33080462" transform="rotate(-116.292)"/>
  <path fill="#911c1c" stroke="#e41d2f" stroke-linejoin="round" stroke-width=".53448278" d="m57.28143315 27.75082749.4951577.48659012-13.13554847 13.36683123-.4951577-.48659012z"/>
  <use xlink:href="#B" width="62" height="62" opacity=".25" transform="rotate(-90 46.394159 39.301821)"/>
  <use xlink:href="#B" width="62" height="62" opacity=".5" transform="rotate(-60 46.394158 39.301819)"/>
  <use xlink:href="#B" width="62" height="62" opacity=".75" transform="rotate(-30 46.394156 39.301815)"/>
  <g id="B" fill="#f7bbbb" stroke="#f7bbbb" stroke-linecap="round" stroke-linejoin="round" stroke-width=".34568065" display="inline" transform="rotate(150 51.01861695 41.45881796) scale(1.23694)">
    <rect width=".31723937" height="14.751182" x="43.453007" y="24.066919" display="inline" rx="0" ry="0"/>
    <rect width="1.2240665" height="2.7954612" x="42.999592" y="38.30307" display="inline" rx="0" ry="0"/>
  </g>
  <circle cx="46.394119" cy="39.301773" r="1.4782149" fill="url(#C)"/>
</svg>