<?xml version="1.0" encoding="utf-8"?>
<!-- Generator: Adobe Illustrator 27.2.0, SVG Export Plug-In . SVG Version: 6.00 Build 0)  -->
<svg version="1.1" id="Layer_1" xmlns="http://www.w3.org/2000/svg" xmlns:xlink="http://www.w3.org/1999/xlink" x="0px" y="0px"
	 viewBox="0 0 370 270" style="enable-background:new 0 0 370 270;" xml:space="preserve">
<style type="text/css">
	.st0{fill:none;stroke:#000000;stroke-width:7;stroke-linecap:round;stroke-linejoin:round;stroke-miterlimit:10;}
	.st1{fill:none;stroke:#000000;stroke-width:7;stroke-linecap:round;stroke-miterlimit:10;}
	.st2{fill-rule:evenodd;clip-rule:evenodd;fill:none;stroke:#000000;stroke-width:7;stroke-linecap:round;stroke-miterlimit:10;}
</style>
<path class="st0" d="M201.592,141.732c-1.652,3.28-2.101,16.289-11.116,16.289c-2.214,0-5.164-0.53-8.609-2.069
	c-2.07-0.925-4.23-2.385-6.735-2.4c-20.786,14.692-44.508,22.493-68.333,30.642c-15.839,5.417-32.079,9.311-48.406,12.798
	c-3.967,0.847-8.164,1.96-12.377,1.96c-4.205,0-9.245-1.06-14.105-5.26c-1.578-1.363-3.753-3.059-5.64-3.9"/>
<path class="st0" d="M178.672,79.812c-19.345-0.66-31.142,10.469-39.06,24.57c-10.289,18.323,16.809,27.906,34.132,19.759
	c7.892-3.712,10.088-10.609,7.598-16.925c-1.358-3.445-2.18-5.412-0.03-7.964c4.882-5.793,11.64-9.12,18.6-7.92
	c4.889,0.843,7.246,5.404,9.45,8.595c1.863,2.698,2.345,5.285,6.478,5.171c14.737-18.896,22.124-24.322,27.002-29.242"/>
<path class="st0" d="M286.472,119.649c2.596-0.568,3.632-1.754,4.666-2.76c8.76-8.517,16.775-14.592,24.21-24.42
	c1.67-2.208,3.784-5.071,3.802-7.627c0.035-4.733-8.561-2.626-12.678-1.79c-12.227,2.482-24.097,6.598-36.44,8.791
	c-1.944,0.345-6.255,1.892-15.474,1.901"/>
<path class="st0" d="M264.832,236.266c-23.847,0.827-30.27-15.333-27.61-25.953c0.893-3.567,3.826-6.876,7.09-9.28
	c13.244-9.755,24.616-8.376,34.531-11.204c3.599-1.026,4.229-4.056,2.789-9.276c-1.471-5.332-5.22-9.6-10.44-10.703
	c-7.126-1.506-12.078,2.985-13.535,9.569c-0.745,3.368-0.592,8.584,0.515,13.975"/>
<path class="st0" d="M235.492,151.392c-0.42,3.12-0.059,3.357,0.163,5.16c1.472,11.99-3.427,17.335-14.773,19.47
	c-6.356,1.196-12.466,0.597-18,1.8c-6.99,1.52-12.638,5.731-15.66,12.109"/>
<path class="st0" d="M258.764,93.625c5.266,3.378,12.698,8.473,12.698,11.928c0,1.259-0.743,2.162-3.87,4.5
	c-2.825,2.112-4.966,3.617-8.545,4.25c-8.13,1.439-20.255,0.55-28.469,5.322"/>
<path class="st0" d="M169.582,203.382c-1.33-3.723,2.628-6.862,3.21-10.17c0.503-2.855,1.733-5.821-0.361-7.883
	c-2.173-2.138-5.492-1.421-8.346-0.614c-8.372,2.366-15.932,6.697-23.913,10.012c-3.738,1.552-7.446,2.637-11.495,2.429"/>
<path class="st0" d="M342.742,215.802c0.305,4.202-3.204,7.332-6.21,8.91c-8.824,4.634-16.375,7.422-26.638,10.055"/>
<path class="st0" d="M239.967,78.745c-2.21,9.64-4.521,19.813-5.369,26.267c-2.466,12.907-3.606,15.468-9.126,21.48"/>
<path class="st0" d="M288.892,218.592c2.52,1.26,5.725,1.419,8.1,0.3c4.574-2.155,10.32-5.97,14.398-11.025
	c0.476-0.59,0.19-2.025-0.958-2.025c-1.567,0-2.07,2.01-0.474,2.577"/>
<g>
	<line class="st1" x1="303.172" y1="44.622" x2="302.602" y2="45.702"/>
</g>
<g>
	<line class="st1" x1="221.105" y1="33.619" x2="220.535" y2="34.699"/>
</g>
<path class="st2" d="M198.267,199.229c0,4.963-4.475,11.983-4.475,16.217"/>
</svg>
