<svg width="518" height="290" viewBox="0 0 518 290" fill="none" xmlns="http://www.w3.org/2000/svg">
<path fill-rule="evenodd" clip-rule="evenodd" d="M391.15 78.4219C405.776 55.9608 387.529 77.3282 394.518 85.8027C409.665 105.373 428.472 121.612 449.004 135.314C455.271 139.497 488.412 149.494 486.794 152.416C478.288 156.179 451.212 186.262 440.395 203.854C427.928 219.391 414.368 274.247 406.169 289.281C392.019 252.601 375.409 233.244 343.82 220.839C336.097 217.807 320.556 207.141 324.756 197.541C326.528 192.349 329.675 189.787 332.933 184.565C342.266 169.599 329.155 191.153 336.015 175.647C340.955 164.484 348.495 150.171 356.694 135.59C368.835 114.003 382.42 91.8283 391.15 78.4219Z" fill="url(#paint0_linear_3_9141)" stroke="url(#paint1_radial_3_9141)" stroke-linejoin="bevel"/>
<g style="mix-blend-mode:overlay">
<path d="M449.002 135.315C428.47 121.612 409.663 105.374 394.516 85.8036C391.724 82.419 392.958 76.9779 394.516 73.0937C393.665 74.4959 392.559 76.2552 391.148 78.4227C385.221 87.5256 377.054 100.671 368.622 114.93C368.887 115.798 369.298 116.607 369.889 117.324C385.037 136.895 403.843 153.133 424.375 166.835C426.991 168.581 434.288 171.339 441.785 174.174C447.741 176.425 453.823 178.725 457.786 180.602C469.054 167.253 481.507 154.755 486.792 152.417C488.41 149.494 455.269 139.498 449.002 135.315Z" fill="#1FA03D"/>
</g>
<g style="mix-blend-mode:overlay">
<path d="M356.692 135.591C353.273 141.672 349.968 147.705 346.919 153.484C342.719 163.084 358.26 173.749 365.984 176.782C395.156 188.238 411.553 205.622 425.036 237.105C430.045 223.061 435.31 210.189 440.393 203.855C444.489 197.192 450.918 188.739 457.786 180.602C453.823 178.725 447.741 176.425 441.785 174.174C434.288 171.339 426.991 168.581 424.375 166.835C403.843 153.133 385.037 136.895 369.889 117.324C369.298 116.607 368.887 115.798 368.622 114.93C364.635 121.671 360.589 128.662 356.692 135.591Z" fill="white"/>
</g>
<g style="mix-blend-mode:overlay">
<path d="M343.819 220.84C375.408 233.245 392.017 252.601 406.167 289.282C410.971 280.474 417.615 257.995 424.801 237.764C424.879 237.544 424.958 237.324 425.036 237.105C411.553 205.622 395.156 188.238 365.984 176.782C358.26 173.749 342.719 163.084 346.919 153.484C346.769 153.768 346.62 154.051 346.472 154.333C342.393 162.093 338.792 169.369 336.013 175.648C329.153 191.154 342.264 169.6 332.931 184.566C329.674 189.788 326.526 192.35 324.754 197.542C320.554 207.142 336.095 217.807 343.819 220.84Z" fill="#DB0001"/>
</g>
<g style="mix-blend-mode:lighten">
<path d="M423.036 239.105C409.553 207.622 393.156 190.238 363.984 178.782C358.783 176.74 350.036 171.236 346.161 164.928" stroke="white" stroke-width="4" stroke-linejoin="bevel" stroke-dasharray="2 2"/>
</g>
<g style="mix-blend-mode:lighten">
<path d="M420.955 245.687C420.496 244.566 420.035 243.463 419.569 242.376C406.086 210.894 389.689 193.509 360.517 182.054C355.521 180.092 347.253 174.936 343.174 168.941" stroke="white" stroke-width="4" stroke-linejoin="bevel" stroke-dasharray="6 6"/>
</g>
<path d="M371.622 111.93C371.887 112.797 372.298 113.607 372.889 114.324C388.037 133.895 406.843 150.133 427.375 163.835C429.991 165.581 437.288 168.339 444.785 171.173C450.741 173.425 456.823 175.725 460.786 177.602" stroke="white" stroke-width="4" stroke-linejoin="bevel" stroke-dasharray="2 2"/>
<path d="M375.331 107.573C375.596 108.44 376.007 109.25 376.598 109.967C391.746 129.537 410.552 145.775 431.084 159.478C433.7 161.224 440.997 163.982 448.494 166.816C454.45 169.068 460.532 171.367 464.495 173.245" stroke="white" stroke-width="4" stroke-linejoin="bevel" stroke-dasharray="6 6"/>
<path fill-rule="evenodd" clip-rule="evenodd" d="M391.148 78.4227C405.774 55.9617 387.527 77.329 394.516 85.8036C409.663 105.374 428.47 121.612 449.002 135.315C455.269 139.498 488.41 149.494 486.792 152.417C478.286 156.18 451.21 186.263 440.393 203.855C427.926 219.392 414.366 274.248 406.167 289.282C392.017 252.601 375.408 233.245 343.819 220.84C336.095 217.807 320.554 207.142 324.754 197.542C326.526 192.35 329.674 189.788 332.931 184.566C342.264 169.6 329.153 191.154 336.013 175.648C340.953 164.485 348.493 150.172 356.692 135.591C368.833 114.003 382.418 91.8291 391.148 78.4227Z" stroke="#2D2D2D" stroke-linejoin="bevel"/>
<path fill-rule="evenodd" clip-rule="evenodd" d="M323.508 8.7209C335.147 21.8988 356.299 41.7542 365.354 44.7735C374.409 47.7929 385.57 48.6078 395.906 52.6253C406.539 56.7582 407.56 62.9485 402.238 72.2982C382.814 103.423 350.67 160.781 332.317 185.601C335.884 169.795 317.99 158.981 269.389 163.304C277.037 153.471 302.863 122.747 308.415 92.5204C313.968 62.2934 320.914 48.7288 321.286 36.6959C321.658 24.6629 320.554 13.5319 323.508 8.7209Z" fill="url(#paint2_linear_3_9141)" stroke="url(#paint3_radial_3_9141)" stroke-linejoin="bevel"/>
<g style="mix-blend-mode:overlay">
<path fill-rule="evenodd" clip-rule="evenodd" d="M316.803 57.749C323.96 64.6431 331.583 71.3379 337.6 75.4842L316.803 57.749Z" fill="#DB0001"/>
<path fill-rule="evenodd" clip-rule="evenodd" d="M337.6 75.4842L316.803 57.749C323.96 64.6431 331.583 71.3379 337.6 75.4842Z" fill="#DB0001"/>
<path d="M269.389 163.302C317.99 158.979 335.884 169.792 332.318 185.599C337.349 178.794 343.417 169.545 349.975 159.06C350.195 158.708 350.416 158.354 350.638 157.999C353.412 153.552 356.27 148.892 359.171 144.111C362.7 128.47 345.218 117.714 297.759 121.68C287.871 140.66 274.528 156.696 269.389 163.302Z" fill="#DB0001"/>
</g>
<g style="mix-blend-mode:overlay">
<path d="M316.803 57.749C323.96 64.6431 331.583 71.3379 337.6 75.4842L316.803 57.749Z" fill="#1FA03D"/>
<path d="M365.354 44.7715C356.299 41.7521 335.147 21.8967 323.508 8.71883C321.345 12.2423 321.358 19.1557 321.374 27.3306C321.38 30.3178 321.386 33.4735 321.286 36.6938C321.1 42.7024 319.275 49.0928 316.803 57.749L337.6 75.4842C340.299 77.3446 342.675 78.6919 344.541 79.3139C348.515 80.639 352.895 81.5395 357.432 82.4725C363.233 83.6654 369.293 84.9113 375.093 87.1657C385.726 91.2986 386.702 97.5643 381.38 106.914C389.025 94.0265 396.238 81.9099 402.238 72.2961C407.56 62.9464 406.539 56.7561 395.906 52.6232C390.106 50.3689 384.047 49.1229 378.245 47.93C373.708 46.997 369.328 46.0965 365.354 44.7715Z" fill="#1FA03D"/>
</g>
<g style="mix-blend-mode:overlay">
<path d="M381.38 106.914C386.702 97.5643 385.726 91.2986 375.093 87.1657C369.293 84.9113 363.233 83.6654 357.432 82.4725C352.895 81.5395 348.515 80.639 344.541 79.3139C342.675 78.6919 340.299 77.3446 337.6 75.4842C331.583 71.3379 323.96 64.6431 316.803 57.749C314.329 66.4106 311.184 77.4488 308.416 92.5183C306.594 102.437 302.589 112.41 297.759 121.68C345.218 117.714 362.7 128.47 359.171 144.111C359.515 143.543 359.861 142.974 360.206 142.403C366.448 132.091 372.864 121.272 379.054 110.836L379.054 110.835C379.785 109.602 380.513 108.376 381.236 107.155L381.38 106.914Z" fill="white"/>
<path d="M316.803 57.749C323.96 64.6431 331.583 71.3379 337.6 75.4842L316.803 57.749Z" fill="white"/>
</g>
<path d="M318.297 54.5947C320.912 56.3404 336.297 73.5948 345.297 75.5948C351.253 77.8464 379.297 84.0947 382.796 87.0948C386.296 90.0949 386.797 95.5948 386.797 95.5948" stroke="white" stroke-width="4" stroke-linejoin="bevel" stroke-dasharray="2 2"/>
<g style="mix-blend-mode:lighten">
<path d="M293.797 130.095C303.564 129.039 314.296 129.095 328.796 130.095C343.296 131.095 351.297 130.095 352.796 153.595" stroke="white" stroke-width="4" stroke-linejoin="bevel" stroke-dasharray="6 6"/>
</g>
<g style="mix-blend-mode:lighten">
<path d="M356.797 148.595C358.297 130.095 346.297 125.995 328.797 124.595C311.297 123.195 304.797 124.595 296.297 124.595" stroke="white" stroke-width="4" stroke-linejoin="bevel" stroke-dasharray="2 2"/>
</g>
<path d="M320.297 49.5948C322.297 52.0948 330.797 60.0219 337.297 65.0947C343.796 70.1675 384.297 80.5947 387.797 84.0946C391.297 87.5946 389.297 89.5947 389.297 89.5947" stroke="white" stroke-width="4" stroke-linejoin="bevel" stroke-dasharray="6 6"/>
<path fill-rule="evenodd" clip-rule="evenodd" d="M355.143 162.811C352.92 162.27 350.831 161.334 348.969 160.063L350 158.882C351.61 159.481 353.297 159.88 355.021 160.063C358.832 160.467 362.68 159.804 366.135 158.147C369.591 156.489 372.517 153.903 374.586 150.678C376.656 147.453 377.788 143.716 377.855 139.884C378.922 144.1 378.497 148.555 376.654 152.493C374.81 156.431 371.661 159.611 367.74 161.491C363.819 163.372 359.368 163.838 355.143 162.811Z" fill="#DA0000"/>
<path d="M366.359 166.709C369.483 166.972 372.615 166.3 375.355 164.777C378.095 163.254 380.319 160.949 381.744 158.157C383.169 155.365 383.73 152.211 383.355 149.099C382.981 145.986 381.688 143.056 379.642 140.681C380.479 143.262 380.8 145.983 380.586 148.688C380.372 151.394 379.627 154.03 378.393 156.447C377.16 158.864 375.462 161.014 373.397 162.775C371.333 164.536 368.941 165.873 366.359 166.709ZM351.886 165.123L362.888 147.61L373.058 134.886C373.07 135.964 373.353 137.021 373.882 137.96L366.915 147.909L354.474 164.236L351.886 165.123ZM373.466 133.584L373.579 134.142C373.562 134.884 373.824 135.606 374.312 136.166C374.8 136.725 375.48 137.082 376.218 137.165C376.956 137.249 377.698 137.054 378.299 136.618C378.9 136.182 379.317 135.537 379.466 134.81C379.057 135.215 378.532 135.485 377.963 135.582C377.395 135.679 376.81 135.599 376.289 135.353C375.767 135.106 375.335 134.705 375.049 134.204C374.764 133.703 374.639 133.126 374.693 132.552" fill="#DA0000"/>
<path fill-rule="evenodd" clip-rule="evenodd" d="M352.945 161.272C355.356 164.892 358.944 167.566 363.102 168.84C359.861 166.795 357.253 163.889 355.569 160.446C354.406 158.068 353.716 155.499 353.524 152.881L350.87 157.128C351.385 158.58 352.08 159.973 352.945 161.272Z" fill="#DA0000"/>
<path fill-rule="evenodd" clip-rule="evenodd" d="M364.58 148.795L351.887 165.123L351.834 162.388L362.922 145.113L369.889 135.163C370.952 135.339 372.042 135.244 373.058 134.886L364.58 148.795ZM373.58 134.142L374.143 134.057L374.693 132.551C374.172 132.798 373.587 132.879 373.019 132.782C372.45 132.685 371.925 132.416 371.515 132.01C371.105 131.604 370.83 131.083 370.727 130.515C370.624 129.948 370.698 129.362 370.939 128.838C370.307 129.228 369.843 129.84 369.639 130.553C369.435 131.267 369.505 132.032 369.836 132.697C370.167 133.361 370.735 133.878 371.427 134.146C372.12 134.413 372.888 134.412 373.58 134.142Z" fill="#DA0000"/>
<path d="M364 135.882C362.052 135.157 360.216 134.14 358.557 132.855C359.799 134.5 361.292 135.917 362.969 137.063L364 135.882Z" fill="#DA0000"/>
<path d="M363.877 125.984C364.303 121.656 366.213 117.609 369.284 114.53C372.354 111.45 376.395 109.528 380.721 109.088C377.144 110.462 374.019 112.804 371.696 115.852C369.373 118.899 367.944 122.534 367.568 126.347C367.452 127.526 367.438 128.709 367.524 129.881L364.87 134.128C363.951 131.537 363.604 128.757 363.877 125.984Z" fill="#DA0000"/>
<path d="M359.446 129.065C358.13 126.22 357.691 123.047 358.185 119.952C358.679 116.856 360.084 113.977 362.22 111.683C364.357 109.389 367.128 107.784 370.181 107.071C373.234 106.358 376.43 106.571 379.361 107.682C376.649 107.778 373.983 108.407 371.514 109.533C369.045 110.66 366.823 112.261 364.973 114.247C363.124 116.233 361.684 118.564 360.735 121.106C359.787 123.649 359.349 126.353 359.446 129.065Z" fill="#DA0000"/>
<path d="M364 135.882C362.052 135.157 360.216 134.139 358.557 132.855C359.799 134.5 361.292 135.917 362.969 137.063L364 135.882Z" fill="url(#paint4_linear_3_9141)"/>
<path d="M363.877 125.984C364.303 121.656 366.213 117.609 369.284 114.53C372.354 111.45 376.395 109.528 380.721 109.088C377.144 110.462 374.019 112.804 371.696 115.851C369.373 118.899 367.944 122.533 367.568 126.347C367.452 127.526 367.438 128.709 367.524 129.881L364.87 134.128C363.951 131.537 363.604 128.757 363.877 125.984Z" fill="url(#paint5_linear_3_9141)"/>
<path d="M359.446 129.065C358.13 126.22 357.691 123.047 358.185 119.951C358.679 116.856 360.084 113.977 362.22 111.683C364.357 109.389 367.128 107.784 370.181 107.071C373.234 106.358 376.43 106.571 379.361 107.682C376.649 107.778 373.983 108.407 371.514 109.533C369.045 110.66 366.823 112.261 364.973 114.247C363.124 116.233 361.684 118.564 360.735 121.106C359.787 123.649 359.349 126.353 359.446 129.065Z" fill="url(#paint6_linear_3_9141)"/>
<path fill-rule="evenodd" clip-rule="evenodd" d="M323.508 8.71883C335.147 21.8967 356.299 41.7521 365.354 44.7715C374.41 47.7908 385.57 48.6058 395.906 52.6232C406.539 56.7561 407.56 62.9464 402.238 72.2961C382.815 103.421 350.67 160.779 332.318 185.599C335.884 169.792 317.99 158.979 269.389 163.302C277.037 153.469 302.863 122.745 308.416 92.5183C313.968 62.2914 320.914 48.7268 321.286 36.6938C321.659 24.6609 320.554 13.5298 323.508 8.71883Z" stroke="#2D2D2D" stroke-linejoin="bevel"/>
<path d="M318.817 10.1755C319.534 8.06617 321.728 7.169 323.718 8.17163C325.707 9.17427 326.739 11.697 326.022 13.8064L241.466 262.563C240.749 264.673 238.555 265.57 236.565 264.567C234.576 263.565 233.544 261.042 234.261 258.933L318.817 10.1755Z" fill="url(#paint7_linear_3_9141)"/>
<path fill-rule="evenodd" clip-rule="evenodd" d="M126.616 78.4225C111.99 55.9614 130.237 77.3288 123.248 85.8033C108.101 105.374 89.294 121.612 68.762 135.315C62.4943 139.497 29.3539 149.494 30.9722 152.417C39.4776 156.18 66.5538 186.262 77.3708 203.854C89.8381 219.391 103.397 274.248 111.597 289.282C125.747 252.601 142.356 233.244 173.945 220.84C181.669 217.807 197.21 207.142 193.01 197.542C191.237 192.35 188.09 189.788 184.833 184.565C175.5 169.6 188.611 191.154 181.75 175.648C176.811 164.484 169.271 150.171 161.071 135.591C148.931 114.003 135.345 91.8289 126.616 78.4225Z" fill="url(#paint8_linear_3_9141)" stroke="#004970" stroke-linejoin="bevel"/>
<g style="mix-blend-mode:overlay">
<path fill-rule="evenodd" clip-rule="evenodd" d="M126.616 78.4225C111.99 55.9614 130.237 77.3288 123.248 85.8033C108.101 105.374 89.294 121.612 68.762 135.315C62.4943 139.497 29.3539 149.494 30.9722 152.417C39.4776 156.18 66.5538 186.262 77.3708 203.854C89.8381 219.391 103.397 274.248 111.597 289.282C125.747 252.601 142.356 233.244 173.945 220.84C181.669 217.807 197.21 207.142 193.01 197.542C191.237 192.35 188.09 189.788 184.833 184.565C175.5 169.6 188.611 191.154 181.75 175.648C176.811 164.484 169.271 150.171 161.071 135.591C148.931 114.003 135.345 91.8289 126.616 78.4225Z" fill="#0277B6"/>
<path fill-rule="evenodd" clip-rule="evenodd" d="M126.616 78.4225C111.99 55.9614 130.237 77.3288 123.248 85.8033C108.101 105.374 89.294 121.612 68.762 135.315C62.4943 139.497 29.3539 149.494 30.9722 152.417C39.4776 156.18 66.5538 186.262 77.3708 203.854C89.8381 219.391 103.397 274.248 111.597 289.282C125.747 252.601 142.356 233.244 173.945 220.84C181.669 217.807 197.21 207.142 193.01 197.542C191.237 192.35 188.09 189.788 184.833 184.565C175.5 169.6 188.611 191.154 181.75 175.648C176.811 164.484 169.271 150.171 161.071 135.591C148.931 114.003 135.345 91.8289 126.616 78.4225Z" stroke="#004970" stroke-linejoin="bevel"/>
</g>
<path fill-rule="evenodd" clip-rule="evenodd" d="M126.616 78.4225C111.99 55.9614 130.237 77.3288 123.248 85.8033C108.101 105.374 89.294 121.612 68.762 135.315C62.4943 139.497 29.3539 149.494 30.9722 152.417C39.4776 156.18 66.5538 186.262 77.3708 203.854C89.8381 219.391 103.397 274.248 111.597 289.282C125.747 252.601 142.356 233.244 173.945 220.84C181.669 217.807 197.21 207.142 193.01 197.542C191.237 192.35 188.09 189.788 184.833 184.565C175.5 169.6 188.611 191.154 181.75 175.648C176.811 164.484 169.271 150.171 161.071 135.591C148.931 114.003 135.345 91.8289 126.616 78.4225Z" stroke="#004970" stroke-linejoin="bevel"/>
<path fill-rule="evenodd" clip-rule="evenodd" d="M194.253 8.71883C182.614 21.8967 161.462 41.7521 152.406 44.7715C143.351 47.7908 132.19 48.6058 121.855 52.6232C111.222 56.7561 110.201 62.9464 115.523 72.2961C134.946 103.421 167.091 160.779 185.443 185.598C181.877 169.792 199.771 158.979 248.372 163.302C240.724 153.469 214.897 122.745 209.345 92.5183C203.793 62.2914 196.847 48.7268 196.475 36.6938C196.102 24.6609 197.206 13.5298 194.253 8.71883Z" fill="url(#paint9_linear_3_9141)" stroke="#004970" stroke-linejoin="bevel"/>
<g style="mix-blend-mode:overlay">
<path fill-rule="evenodd" clip-rule="evenodd" d="M194.253 8.71883C182.614 21.8967 161.462 41.7521 152.406 44.7715C143.351 47.7908 132.19 48.6058 121.855 52.6232C111.222 56.7561 110.201 62.9464 115.523 72.2961C134.946 103.421 167.091 160.779 185.443 185.598C181.877 169.792 199.771 158.979 248.372 163.302C240.724 153.469 214.897 122.745 209.345 92.5183C203.793 62.2914 196.847 48.7268 196.475 36.6938C196.102 24.6609 197.206 13.5298 194.253 8.71883Z" fill="#0277B6"/>
<path fill-rule="evenodd" clip-rule="evenodd" d="M194.253 8.71883C182.614 21.8967 161.462 41.7521 152.406 44.7715C143.351 47.7908 132.19 48.6058 121.855 52.6232C111.222 56.7561 110.201 62.9464 115.523 72.2961C134.946 103.421 167.091 160.779 185.443 185.598C181.877 169.792 199.771 158.979 248.372 163.302C240.724 153.469 214.897 122.745 209.345 92.5183C203.793 62.2914 196.847 48.7268 196.475 36.6938C196.102 24.6609 197.206 13.5298 194.253 8.71883Z" stroke="#004970" stroke-linejoin="bevel"/>
</g>
<path fill-rule="evenodd" clip-rule="evenodd" d="M194.253 8.71883C182.614 21.8967 161.462 41.7521 152.406 44.7715C143.351 47.7908 132.19 48.6058 121.855 52.6232C111.222 56.7561 110.201 62.9464 115.523 72.2961C134.946 103.421 167.091 160.779 185.443 185.598C181.877 169.792 199.771 158.979 248.372 163.302C240.724 153.469 214.897 122.745 209.345 92.5183C203.793 62.2914 196.847 48.7268 196.475 36.6938C196.102 24.6609 197.206 13.5298 194.253 8.71883Z" stroke="#004970" stroke-linejoin="bevel"/>
<path d="M199.077 10.3931C198.36 8.2837 196.166 7.38653 194.176 8.38916C192.187 9.39179 191.155 11.9146 191.872 14.0239L276.428 262.781C277.145 264.89 279.339 265.788 281.329 264.785C283.318 263.782 284.35 261.26 283.633 259.15L199.077 10.3931Z" fill="url(#paint10_linear_3_9141)"/>
<defs>
<linearGradient id="paint0_linear_3_9141" x1="355.195" y1="142.631" x2="440.486" y2="204.205" gradientUnits="userSpaceOnUse">
<stop stop-color="#969696"/>
<stop offset="0.52" stop-color="#6A6A6A"/>
<stop offset="0.67" stop-color="#6A6A6A"/>
<stop offset="1" stop-color="#969696"/>
</linearGradient>
<radialGradient id="paint1_radial_3_9141" cx="0" cy="0" r="1" gradientUnits="userSpaceOnUse" gradientTransform="translate(401.567 178.861) rotate(38) scale(72.1081 84.6794)">
<stop stop-color="#323232"/>
<stop offset="1"/>
</radialGradient>
<linearGradient id="paint2_linear_3_9141" x1="308.405" y1="92.7204" x2="368.713" y2="127.412" gradientUnits="userSpaceOnUse">
<stop stop-color="#969696"/>
<stop offset="1" stop-color="#6A6A6A"/>
</linearGradient>
<radialGradient id="paint3_radial_3_9141" cx="0" cy="0" r="1" gradientUnits="userSpaceOnUse" gradientTransform="translate(324.801 101.143) rotate(38) scale(58.4201 83.598)">
<stop stop-color="#323232"/>
<stop offset="1"/>
</radialGradient>
<linearGradient id="paint4_linear_3_9141" x1="362" y1="106" x2="378.5" y2="119" gradientUnits="userSpaceOnUse">
<stop stop-color="#DA0000" stop-opacity="0"/>
<stop offset="1" stop-color="#740000"/>
</linearGradient>
<linearGradient id="paint5_linear_3_9141" x1="362" y1="106" x2="378.5" y2="119" gradientUnits="userSpaceOnUse">
<stop stop-color="#DA0000" stop-opacity="0"/>
<stop offset="1" stop-color="#740000"/>
</linearGradient>
<linearGradient id="paint6_linear_3_9141" x1="362" y1="106" x2="378.5" y2="119" gradientUnits="userSpaceOnUse">
<stop stop-color="#DA0000" stop-opacity="0"/>
<stop offset="1" stop-color="#740000"/>
</linearGradient>
<linearGradient id="paint7_linear_3_9141" x1="283.744" y1="138.185" x2="276.179" y2="135.614" gradientUnits="userSpaceOnUse">
<stop stop-color="#642800"/>
<stop offset="0.25"/>
<stop offset="1" stop-color="#783000"/>
</linearGradient>
<linearGradient id="paint8_linear_3_9141" x1="162.571" y1="142.631" x2="77.2797" y2="204.205" gradientUnits="userSpaceOnUse">
<stop stop-color="#6A6A6A"/>
<stop offset="0.33" stop-color="#969696"/>
<stop offset="0.48" stop-color="#969696"/>
<stop offset="1" stop-color="#6A6A6A"/>
</linearGradient>
<linearGradient id="paint9_linear_3_9141" x1="209.356" y1="92.7183" x2="149.047" y2="127.41" gradientUnits="userSpaceOnUse">
<stop stop-color="#6A6A6A"/>
<stop offset="1" stop-color="#969696"/>
</linearGradient>
<linearGradient id="paint10_linear_3_9141" x1="234.15" y1="138.402" x2="241.715" y2="135.831" gradientUnits="userSpaceOnUse">
<stop stop-color="#783000"/>
<stop offset="0.75"/>
<stop offset="1" stop-color="#642800"/>
</linearGradient>
</defs>
</svg>
