<svg style="width: 100%; height: 100%;" preserveAspectRatio="xMidYMid meet" viewBox="0 0 1096.706895 430.683641" version="1.0" xmlns="http://www.w3.org/2000/svg">
<metadata>
Created by potrace 1.16, written by Peter Selinger 2001-2019
</metadata>
<g style="fill: rgb(0, 0, 0);" stroke="none" fill="#262626" transform="translate(-5.289449,435.957572) scale(0.100000,-0.100000)">
<path d="M8093 4350 c-127 -30 -251 -109 -398 -255 -90 -89 -138 -151 -184 -238 -23 -43 -46 -86 -52 -95 -5 -9 -27 -62 -49 -116 -41 -102 -51 -166 -26 -166 19 0 31 18 46 65 32 108 127 293 195 381 98 127 283 285 387 332 25 11 72 23 105 27 53 6 67 3 126 -23 105 -48 156 -120 179 -252 9 -55 9 -80 -1 -122 -29 -121 -78 -222 -196 -401 -52 -79 -247 -288 -317 -341 -40 -30 -48 -53 -24 -62 43 -16 296 237 415 415 97 145 169 302 185 401 32 199 -38 349 -198 430 -61 31 -122 37 -193 20z"></path>
<path d="M9920 4083 c-76 -24 -196 -125 -260 -217 -8 -12 -21 -29 -30 -38 -8 -9 -30 -43 -49 -75 -19 -32 -41 -69 -51 -83 -35 -52 -201 -399 -216 -451 -42 -149 -66 -345 -48 -393 12 -31 106 -15 144 24 53 53 99 78 166 89 66 11 75 16 132 69 l60 57 -1 -57 c-2 -73 18 -98 78 -98 66 0 105 22 191 108 37 36 54 41 54 13 0 -23 14 -35 61 -51 52 -19 86 -2 157 75 60 66 76 104 102 236 9 45 16 59 36 68 48 21 56 15 34 -26 -23 -44 -25 -82 -5 -137 7 -21 11 -44 9 -50 -3 -7 11 -18 31 -25 19 -7 35 -16 35 -20 0 -30 124 -41 183 -16 61 25 53 66 -11 51 -94 -24 -119 -16 -158 50 -49 83 -22 171 70 229 98 62 70 120 -31 64 -21 -12 -56 -31 -78 -42 -22 -12 -47 -27 -56 -34 -9 -8 -40 -16 -70 -20 -42 -5 -60 -13 -81 -35 -22 -24 -34 -28 -77 -28 -59 0 -91 -23 -91 -66 0 -52 -132 -204 -231 -268 -36 -22 -79 -15 -79 14 0 59 23 121 61 162 21 24 39 47 39 52 0 5 10 20 21 32 12 13 19 30 16 38 -8 19 -38 21 -56 4 -11 -11 -12 -8 -6 12 4 14 11 29 16 34 27 30 -24 116 -68 116 -33 -1 -98 -37 -143 -81 -57 -55 -110 -118 -110 -130 0 -5 -10 -11 -23 -14 -27 -7 -47 -77 -47 -168 l0 -57 -60 -29 c-34 -17 -77 -44 -96 -61 -19 -17 -40 -28 -46 -24 -12 8 -1 145 15 183 6 14 40 60 75 101 36 41 74 86 86 100 11 14 51 60 88 103 37 42 76 90 85 105 9 15 34 48 55 73 21 26 38 49 38 52 0 2 24 45 53 94 54 89 83 149 130 274 24 61 26 109 7 109 -5 0 -14 2 -22 4 -7 3 -20 2 -28 -1z m0 -79 c0 -18 -99 -220 -148 -304 -84 -143 -148 -230 -281 -387 -82 -97 -114 -126 -91 -84 5 11 10 28 10 39 0 10 26 70 58 133 31 63 67 137 80 164 32 71 94 180 119 207 11 13 28 37 37 55 33 66 216 215 216 177z m-46 -649 c8 -23 -45 -112 -104 -173 -68 -70 -143 -132 -159 -132 -18 0 -14 17 29 114 42 95 101 167 163 199 31 16 63 12 71 -8z m476 -108 c0 -75 -107 -217 -164 -217 -53 0 -59 45 -16 113 17 26 30 51 30 55 0 15 65 70 95 80 51 18 55 15 55 -31z"></path>
<path d="M9253 3903 c-34 -7 -203 -195 -203 -227 0 -5 -6 -17 -14 -25 -19 -21 -236 -450 -266 -526 -13 -33 -39 -83 -58 -112 -20 -32 -31 -59 -28 -70 3 -10 -3 -42 -13 -71 -23 -62 -19 -82 15 -82 20 0 30 11 52 58 40 83 73 134 106 162 41 35 59 32 68 -10 9 -44 -33 -201 -62 -230 -13 -13 -20 -33 -20 -59 0 -41 16 -56 48 -44 22 9 91 72 104 97 13 25 -5 44 -26 27 -26 -22 -25 4 5 74 26 62 28 77 23 133 -4 37 -14 72 -24 85 -17 20 -20 21 -57 8 -21 -8 -51 -25 -68 -39 -36 -30 -47 -12 -17 27 12 14 53 73 92 131 101 151 168 248 211 305 20 28 49 71 63 98 14 26 38 68 53 95 68 121 86 178 62 193 -8 5 -16 8 -19 7 -3 0 -15 -3 -27 -5z m-50 -150 c-10 -21 -25 -50 -35 -65 -10 -14 -18 -29 -18 -32 0 -3 -15 -26 -32 -51 -18 -26 -44 -64 -58 -85 -62 -93 -100 -144 -100 -131 0 15 39 90 58 109 6 7 12 18 12 23 0 50 143 269 176 269 11 0 11 -7 -3 -37z"></path>
<path d="M10956 3611 c-11 -12 -15 -27 -12 -39 4 -11 -1 -46 -10 -78 -28 -106 -33 -126 -27 -140 12 -33 53 -5 53 36 1 14 14 59 30 100 17 41 30 90 30 108 0 27 -4 32 -23 32 -13 0 -32 -9 -41 -19z"></path>
<path d="M7789 3423 c-9 -10 -16 -59 -21 -137 -7 -123 -19 -218 -37 -291 -18 -74 -28 -108 -90 -310 -16 -49 -35 -119 -42 -154 -11 -50 -18 -65 -36 -72 -28 -10 -30 -39 -4 -70 16 -20 23 -22 38 -13 18 11 51 101 73 204 7 30 16 60 21 66 4 5 15 37 24 70 34 124 58 200 76 236 5 10 9 35 9 55 1 21 8 67 16 103 17 69 38 296 29 317 -6 18 -40 16 -56 -4z"></path>
<path d="M5961 3191 c-73 -46 -210 -181 -261 -256 -45 -67 -160 -304 -160 -330 0 -4 -6 -21 -14 -38 -56 -128 -115 -385 -117 -512 -1 -75 6 -88 47 -83 22 2 33 12 46 38 9 19 17 44 18 55 0 12 9 38 20 60 11 22 20 48 20 60 0 11 7 28 15 39 8 10 24 51 36 90 19 64 30 80 109 165 99 106 106 108 134 24 18 -52 21 -170 7 -217 -22 -71 -39 -201 -29 -213 25 -31 76 -10 102 41 18 35 6 69 -21 59 -13 -5 -15 -2 -9 21 15 60 34 194 34 240 0 58 -18 115 -53 160 -14 18 -25 39 -25 47 0 8 22 41 48 74 55 69 112 159 112 178 0 7 4 17 9 22 18 20 51 127 51 166 0 85 -64 144 -119 110z m39 -76 c24 -28 -4 -146 -56 -237 -39 -69 -112 -181 -141 -215 -10 -12 -33 -24 -50 -28 -29 -6 -33 -4 -33 15 0 11 7 37 15 57 21 50 19 65 -7 61 -25 -3 -58 -80 -58 -135 0 -23 -12 -45 -41 -80 -52 -59 -72 -104 -62 -141 4 -15 6 -34 5 -42 -4 -23 -54 -155 -73 -192 -5 -10 -9 -26 -9 -36 0 -10 -4 -22 -9 -27 -5 -6 -11 -19 -14 -30 -3 -11 -5 -2 -6 21 0 22 8 76 19 119 11 43 20 88 20 99 0 12 13 62 29 111 28 88 34 104 72 192 11 24 19 48 19 55 0 7 9 24 20 38 11 14 20 28 20 33 0 22 101 171 154 227 64 68 155 150 167 150 3 0 12 -7 19 -15z"></path>
<path d="M8204 3028 c-20 -17 -58 -64 -85 -102 -26 -39 -57 -82 -68 -96 -11 -14 -21 -30 -21 -36 0 -6 -13 -35 -29 -65 -40 -75 -59 -161 -41 -194 11 -21 21 -25 60 -25 34 0 52 5 65 20 10 11 26 20 36 20 10 0 23 -9 29 -20 9 -16 21 -20 68 -20 57 0 82 11 82 37 0 8 -14 13 -39 13 -29 0 -44 6 -55 21 -18 26 -14 38 36 110 30 44 39 65 36 90 -3 30 -7 34 -30 34 -36 -1 -35 6 4 120 27 79 30 95 19 109 -19 22 -25 21 -67 -16z m-2 -105 c-5 -10 -12 -38 -16 -63 -4 -25 -18 -70 -31 -100 -13 -30 -32 -81 -40 -113 -18 -61 -46 -87 -80 -73 -41 15 18 175 111 301 45 60 76 88 56 48z"></path>
<path d="M6522 2893 c-39 -48 -102 -165 -102 -191 0 -14 -10 -38 -58 -146 -21 -45 -35 -62 -59 -73 -42 -17 -68 -17 -87 2 -22 22 -63 19 -71 -6 -15 -45 59 -80 121 -57 19 6 36 9 39 7 3 -3 -6 -32 -19 -65 -27 -65 -21 -94 17 -94 15 1 37 21 72 68 79 107 138 173 167 188 24 12 27 12 30 -4 2 -9 1 -38 -2 -65 -6 -47 -17 -61 -70 -89 -47 -24 -58 -65 -15 -54 20 5 25 3 25 -14 0 -25 -37 -63 -54 -57 -22 9 -39 -9 -31 -32 10 -34 81 -29 125 9 20 16 47 29 63 30 20 0 33 9 47 33 11 17 20 39 20 48 0 24 51 77 57 60 22 -56 93 -68 145 -23 47 40 61 43 107 21 53 -25 89 -24 185 6 101 31 160 64 164 91 5 35 -21 34 -93 -2 -40 -20 -76 -32 -86 -29 -11 4 -28 0 -39 -8 -25 -17 -63 -11 -85 13 -21 23 -13 40 61 127 56 65 58 70 48 97 -8 22 -31 20 -46 -4 -17 -27 -28 -25 -28 6 0 40 -18 64 -48 64 -21 0 -43 -17 -95 -72 -37 -40 -86 -101 -108 -135 -23 -35 -48 -63 -56 -63 -9 0 -37 -16 -63 -35 -57 -41 -86 -46 -76 -12 4 12 9 45 13 73 11 102 -34 122 -122 54 -29 -23 -65 -58 -79 -79 -30 -43 -76 -86 -76 -71 0 29 48 97 121 172 93 96 133 170 143 266 8 70 -1 92 -39 92 -15 0 -37 -16 -63 -47z m19 -166 c-29 -60 -86 -135 -95 -126 -2 2 4 24 14 49 10 25 26 67 36 94 10 27 29 63 43 80 l26 30 3 -33 c2 -21 -7 -54 -27 -94z m476 -103 c-5 -48 -45 -110 -112 -175 -44 -43 -72 -56 -87 -41 -20 20 52 140 139 230 50 52 67 48 60 -14z"></path>
<path d="M10340 2911 c-27 -15 -189 -66 -320 -101 -19 -5 -66 -18 -105 -29 -38 -11 -115 -31 -170 -46 -55 -14 -149 -39 -210 -56 -60 -16 -128 -34 -150 -39 -22 -5 -60 -15 -85 -23 -25 -8 -83 -25 -130 -37 -47 -13 -114 -31 -150 -42 -36 -10 -81 -23 -100 -28 -19 -5 -65 -18 -102 -30 -37 -11 -74 -20 -83 -20 -8 0 -23 -4 -33 -9 -9 -5 -37 -15 -62 -21 -25 -7 -54 -16 -65 -20 -11 -4 -40 -13 -65 -20 -25 -7 -58 -16 -74 -21 -16 -5 -41 -9 -55 -9 -15 0 -31 -4 -37 -9 -8 -8 -109 -41 -219 -71 -16 -5 -52 -15 -80 -23 -27 -9 -84 -25 -125 -37 -41 -11 -97 -28 -125 -36 -27 -9 -66 -20 -85 -25 -19 -6 -51 -15 -70 -20 -19 -6 -51 -14 -70 -19 -19 -5 -51 -13 -70 -19 -69 -19 -187 -52 -295 -82 -60 -16 -126 -35 -145 -40 -19 -6 -53 -14 -75 -19 -22 -5 -87 -23 -145 -41 -58 -17 -122 -35 -142 -40 -21 -5 -55 -13 -75 -18 -44 -11 -233 -60 -348 -91 -44 -12 -98 -25 -120 -30 -22 -4 -85 -20 -140 -35 -209 -55 -533 -137 -595 -151 -35 -8 -78 -18 -95 -24 -16 -5 -73 -21 -125 -34 -52 -14 -167 -44 -255 -67 -88 -23 -178 -45 -200 -50 -50 -9 -160 -37 -200 -49 -33 -11 -216 -57 -280 -71 -22 -5 -76 -18 -120 -30 -44 -11 -98 -24 -120 -28 -22 -5 -92 -20 -155 -35 -307 -73 -368 -88 -400 -96 -19 -5 -82 -20 -140 -34 -58 -14 -163 -39 -235 -56 -278 -66 -334 -80 -465 -110 -74 -17 -146 -35 -160 -40 -14 -4 -70 -18 -125 -30 -55 -12 -116 -26 -135 -31 -19 -4 -82 -19 -140 -33 -58 -14 -172 -41 -255 -61 -82 -20 -179 -43 -215 -52 -36 -8 -101 -24 -145 -33 -116 -26 -445 -112 -580 -151 -38 -11 -88 -25 -110 -31 -301 -81 -680 -231 -706 -280 -14 -25 -4 -52 25 -68 32 -16 49 -5 41 29 -5 22 -1 29 27 42 59 29 122 57 168 74 25 9 59 22 75 29 31 13 165 57 295 96 41 13 84 26 95 31 11 4 31 10 45 12 14 3 59 15 100 26 116 34 300 82 350 92 25 5 70 16 100 25 30 8 71 19 90 24 115 28 180 43 220 50 25 5 83 18 130 30 47 12 103 25 125 30 22 5 84 21 139 35 54 14 108 25 120 25 12 0 26 4 32 9 5 5 27 11 49 14 40 4 107 20 242 57 39 11 80 20 92 20 11 0 30 4 43 9 30 12 82 25 198 50 52 12 111 26 130 31 32 9 151 37 385 92 50 11 151 36 225 55 74 19 160 38 190 43 30 5 78 16 105 25 28 8 62 15 77 15 15 0 29 4 32 9 3 5 23 11 43 14 47 6 157 33 240 58 34 11 70 19 80 19 10 0 47 9 83 20 91 27 268 71 310 77 19 2 44 8 55 13 20 9 42 14 125 30 75 15 100 22 106 31 3 5 22 9 43 9 20 0 41 4 46 8 6 5 28 14 50 20 90 25 253 65 290 72 22 3 56 12 75 18 19 7 89 25 155 41 241 59 302 75 355 91 66 20 272 73 340 87 14 2 57 14 95 25 39 10 86 23 105 28 19 5 67 18 105 29 39 11 97 25 130 32 33 7 69 17 80 22 18 10 69 23 181 47 22 5 56 15 75 23 19 9 70 23 114 33 44 10 92 24 107 31 15 7 38 13 51 13 13 0 50 8 83 19 32 10 77 24 99 30 22 6 81 23 130 37 102 29 143 41 197 55 21 5 55 15 75 23 21 7 56 18 78 24 117 32 192 55 207 63 10 5 25 9 34 9 9 0 37 7 63 15 25 8 71 21 101 30 88 25 317 92 375 110 22 7 56 16 75 20 19 3 60 15 90 25 30 10 80 24 110 30 30 7 78 20 105 30 28 10 75 23 105 30 30 7 75 19 100 27 25 8 95 28 155 44 61 15 160 42 220 59 61 17 119 33 130 36 84 21 153 41 315 95 94 30 135 53 124 70 -7 11 -54 11 -74 0z"></path>
<path d="M4826 2859 c-32 -27 -136 -193 -183 -289 -12 -25 -25 -73 -28 -107 -8 -71 -35 -110 -35 -50 0 20 -4 39 -10 42 -14 9 -90 -37 -90 -55 0 -8 -21 -46 -45 -84 -25 -39 -50 -87 -57 -108 -10 -33 -9 -41 7 -58 23 -25 33 -25 62 2 37 34 27 4 -17 -51 -55 -70 -135 -131 -170 -131 -50 0 -60 9 -60 52 0 44 11 67 70 157 44 66 48 94 13 99 -15 2 -25 -5 -35 -25 -10 -21 -21 -29 -48 -31 -19 -2 -47 -13 -63 -24 -41 -29 -175 -193 -183 -223 -19 -75 63 -76 136 -1 42 42 50 44 50 11 0 -14 11 -37 25 -50 19 -20 34 -25 74 -25 40 0 59 7 105 38 62 42 150 139 173 192 8 19 21 48 29 63 8 16 14 40 14 54 0 30 39 103 55 103 6 0 17 -17 24 -37 17 -48 27 -60 73 -89 46 -29 71 -30 142 -3 61 24 91 50 83 74 -9 21 -33 19 -66 -6 -44 -32 -95 -29 -132 7 -38 38 -50 89 -38 162 18 119 39 170 81 200 30 22 118 159 118 185 0 38 -35 41 -74 6z m-661 -734 c-45 -60 -114 -127 -126 -123 -6 2 10 29 35 60 72 89 154 145 91 63z"></path>
<path d="M1718 2710 c-26 -20 -59 -81 -79 -145 -7 -22 -17 -44 -21 -50 -4 -5 -8 -22 -8 -39 0 -16 -4 -43 -10 -60 -5 -17 -12 -51 -15 -77 -5 -39 -17 -59 -91 -145 -48 -54 -116 -130 -151 -169 -137 -146 -148 -207 -37 -203 52 2 114 -28 115 -56 4 -64 -7 -104 -31 -111 -11 -4 -44 -41 -72 -83 -28 -42 -86 -112 -129 -155 -65 -66 -83 -78 -106 -75 -38 4 -53 39 -54 124 -1 71 25 253 41 289 5 11 12 40 16 65 3 25 13 60 20 79 11 25 11 37 3 47 -16 19 -32 17 -46 -5 -13 -21 -62 -179 -70 -226 -3 -16 -9 -34 -13 -40 -4 -5 -13 -28 -20 -50 -19 -60 -106 -226 -141 -268 -59 -71 -105 -37 -95 69 9 98 16 155 32 254 9 52 20 127 24 165 5 39 13 90 19 115 21 85 38 301 27 337 -34 106 -116 -34 -206 -347 -60 -210 -241 -690 -260 -690 -6 0 22 302 40 435 30 208 39 434 24 564 -5 49 -14 71 -34 94 -23 26 -29 28 -48 18 -12 -6 -25 -24 -28 -38 -4 -15 -24 -64 -46 -109 -21 -45 -38 -91 -38 -101 0 -10 -4 -23 -9 -29 -5 -5 -18 -40 -30 -79 -11 -38 -35 -115 -52 -170 -17 -55 -34 -113 -39 -130 -33 -109 -38 -303 -10 -359 22 -43 46 -55 67 -33 16 16 16 19 2 45 -40 70 -49 200 -20 297 7 22 15 51 17 65 3 14 9 34 14 45 4 11 22 67 40 125 57 188 92 294 113 338 l20 44 14 -34 c18 -40 19 -295 3 -428 -33 -266 -40 -332 -45 -400 -6 -82 -23 -245 -31 -300 -6 -46 7 -65 40 -56 19 5 28 15 33 36 3 17 10 33 14 36 5 3 9 13 9 23 0 18 35 108 83 211 36 80 125 310 148 385 6 22 15 49 19 60 8 20 26 85 40 140 21 83 55 185 76 229 l24 50 0 -55 c-1 -75 -42 -365 -70 -499 -15 -68 -40 -275 -40 -326 0 -90 41 -124 117 -98 50 18 84 59 139 172 26 51 49 91 52 88 3 -3 6 -36 8 -73 1 -38 3 -78 3 -90 1 -12 13 -35 27 -52 20 -25 34 -31 64 -31 33 0 48 9 106 62 38 34 84 85 101 113 19 29 33 43 33 33 0 -10 -4 -18 -10 -18 -5 0 -10 -8 -10 -18 0 -11 -9 -27 -20 -37 -21 -19 -27 -59 -11 -69 17 -11 36 4 65 52 82 133 136 256 151 344 11 67 -33 123 -112 143 -58 15 -59 30 -6 84 20 20 72 81 116 136 43 55 84 102 89 104 7 2 8 -21 4 -65 -14 -161 -24 -394 -20 -464 6 -118 42 -190 94 -190 32 0 100 80 100 118 0 12 4 23 8 26 4 3 18 40 31 83 13 43 31 96 41 118 10 22 21 47 24 55 3 8 4 -49 1 -128 -5 -160 5 -207 55 -242 38 -27 99 -26 129 1 32 30 22 44 -31 44 -83 1 -90 19 -93 252 -2 158 -9 193 -37 193 -28 0 -68 -80 -123 -246 -42 -125 -73 -194 -90 -194 -60 0 -69 142 -36 560 14 179 11 169 106 340 45 81 73 205 54 241 -13 26 -36 29 -61 9z m12 -92 c0 -47 -62 -197 -68 -165 -2 9 2 25 7 36 6 11 11 28 11 38 0 23 33 103 43 103 4 0 7 -6 7 -12z"></path>
<path d="M5160 2346 c-17 -17 -11 -45 11 -57 42 -22 139 13 139 50 0 16 -9 18 -70 17 -39 0 -75 -5 -80 -10z"></path>
<path d="M3474 1998 c-98 -96 -136 -123 -160 -114 -18 7 -18 65 1 90 20 26 19 56 -1 56 -8 0 -36 -20 -62 -44 -81 -76 -146 -126 -164 -126 -34 0 -22 33 55 156 4 7 0 17 -8 24 -11 9 -24 1 -67 -47 -232 -254 -288 -294 -288 -201 0 27 12 63 40 114 45 84 46 89 25 98 -18 6 -50 -24 -107 -102 -79 -109 -129 -161 -164 -172 -18 -6 -38 -9 -44 -5 -20 12 -10 93 20 166 30 75 31 89 2 89 -12 0 -29 -25 -52 -72 -19 -40 -51 -91 -71 -113 -19 -22 -45 -55 -58 -73 -23 -33 -58 -58 -68 -48 -3 3 4 36 15 73 12 37 31 100 43 140 l21 72 -30 31 c-45 44 -71 40 -110 -19 -17 -28 -32 -54 -32 -59 0 -5 -7 -23 -15 -39 -19 -37 -70 -176 -96 -258 -19 -62 -18 -89 5 -98 21 -8 75 30 97 68 24 40 22 40 54 19 22 -14 26 -14 62 11 22 14 64 55 94 91 l54 66 3 -57 c3 -50 6 -57 30 -66 37 -14 74 5 158 83 l67 63 -6 -42 c-6 -35 -4 -46 13 -63 11 -11 28 -20 38 -20 25 0 96 47 160 105 45 41 57 47 70 37 47 -34 67 -28 158 39 l69 51 3 -31 c5 -45 38 -65 83 -49 41 14 105 56 138 92 30 32 35 32 49 1 9 -19 19 -25 42 -25 55 0 190 79 190 111 0 24 -32 19 -65 -10 -35 -31 -87 -42 -100 -21 -3 5 4 28 15 51 21 41 21 69 -1 69 -6 0 -54 -42 -105 -92z m-1176 -103 c4 -45 -19 -113 -59 -173 -16 -24 -29 -46 -29 -50 -1 -9 -47 -62 -54 -62 -16 0 53 207 101 303 19 38 37 29 41 -18z"></path>
<path d="M3803 2058 c-93 -145 -86 -203 16 -145 45 24 111 83 111 98 0 16 -20 10 -65 -21 -64 -44 -84 -39 -45 10 23 30 26 70 6 70 -8 0 -18 -6 -23 -12z"></path>
</g>
</svg>