<?xml version="1.0" encoding="UTF-8" standalone="no"?>
<svg
   xmlns:dc="http://purl.org/dc/elements/1.1/"
   xmlns:cc="http://creativecommons.org/ns#"
   xmlns:rdf="http://www.w3.org/1999/02/22-rdf-syntax-ns#"
   xmlns:svg="http://www.w3.org/2000/svg"
   xmlns="http://www.w3.org/2000/svg"
   xmlns:sodipodi="http://sodipodi.sourceforge.net/DTD/sodipodi-0.dtd"
   xmlns:inkscape="http://www.inkscape.org/namespaces/inkscape"
   width="427.48999"
   height="421.57001"
   id="svg5131"
   version="1.1"
   inkscape:version="0.47 r22583"
   sodipodi:docname="Mohammadreza pahlavi signature.svg">
  <title
     id="title5668">Mohammadreza pahlavi signature's</title>
  <defs
     id="defs5133">
    <inkscape:perspective
       sodipodi:type="inkscape:persp3d"
       inkscape:vp_x="0 : 526.18109 : 1"
       inkscape:vp_y="0 : 1000 : 0"
       inkscape:vp_z="744.09448 : 526.18109 : 1"
       inkscape:persp3d-origin="372.04724 : 350.78739 : 1"
       id="perspective5139" />
    <inkscape:perspective
       id="perspective5123"
       inkscape:persp3d-origin="0.5 : 0.33333333 : 1"
       inkscape:vp_z="1 : 0.5 : 1"
       inkscape:vp_y="0 : 1000 : 0"
       inkscape:vp_x="0 : 0.5 : 1"
       sodipodi:type="inkscape:persp3d" />
  </defs>
  <sodipodi:namedview
     id="base"
     pagecolor="#ffffff"
     bordercolor="#666666"
     borderopacity="1.0"
     inkscape:pageopacity="0.0"
     inkscape:pageshadow="2"
     inkscape:zoom="5.0226472"
     inkscape:cx="279.55074"
     inkscape:cy="334.54562"
     inkscape:document-units="px"
     inkscape:current-layer="layer1"
     showgrid="false"
     inkscape:window-width="1280"
     inkscape:window-height="968"
     inkscape:window-x="-4"
     inkscape:window-y="-4"
     inkscape:window-maximized="1" />
  <metadata
     id="metadata5136">
    <rdf:RDF>
      <cc:Work
         rdf:about="">
        <dc:format>image/svg+xml</dc:format>
        <dc:type
           rdf:resource="http://purl.org/dc/dcmitype/StillImage" />
        <dc:title>Mohammadreza pahlavi signature's</dc:title>
        <dc:description>فارسی: امضای fa:محمدرضا پهلوی
English: en:mohammadreza pahlavi's signature</dc:description>
        <dc:source>http://fa.wikipedia.org/wiki/%D9%BE%D8%B1%D9%88%D9%86%D8%AF%D9%87:Shah_01.tif</dc:source>
        <cc:license
           rdf:resource="http://creativecommons.org/licenses/publicdomain/" />
      </cc:Work>
      <cc:License
         rdf:about="http://creativecommons.org/licenses/publicdomain/">
        <cc:permits
           rdf:resource="http://creativecommons.org/ns#Reproduction" />
        <cc:permits
           rdf:resource="http://creativecommons.org/ns#Distribution" />
        <cc:permits
           rdf:resource="http://creativecommons.org/ns#DerivativeWorks" />
      </cc:License>
    </rdf:RDF>
  </metadata>
  <g
     inkscape:label="Layer 1"
     inkscape:groupmode="layer"
     id="layer1"
     transform="translate(-125.39665,-230.56326)">
    <path
       style="fill:none;stroke:#000000;stroke-width:7.87792397;stroke-linecap:round;stroke-linejoin:round;stroke-miterlimit:4;stroke-opacity:1;stroke-dasharray:none"
       d="m 523.93537,300.9091 c 14.25485,-13.049 23.19629,-14.02082 23.01195,-13.9183 -3.47417,1.92904 -44.38738,33.48958 -49.25331,39.59691 -5.4489,6.8392 -46.28018,44.35687 -43.05811,47.83445 3.22207,3.47752 37.75469,-15.62933 28.77281,-10.04788 -9.05594,5.62799 -14.10831,12.34671 -21.58289,23.16099 -7.47457,10.81429 -21.71891,41.92726 -23.27349,40.75708 -2.33712,-1.75909 22.31711,-36.3259 7.38109,-39.3339 -21.03038,-4.23549 -60.76138,28.55091 -60.79867,-1.5049 -0.0525,-30.05575 39.28354,-62.76289 49.13042,-71.12126 9.8474,-8.35838 21.26882,-19.59996 28.65673,-14.83587 7.38739,4.7641 -36.48844,54.23667 -45.43724,50.61645 -8.94879,-3.62027 0.33613,-14.53109 -3.00254,-18.52951 -6.88373,4.27709 -22.04978,16.08914 -22.68159,0.94824 -1.33977,-32.09004 36.65235,-52.38604 60.66422,-87.20489 -2.93188,4.20897 -39.61933,49.84088 -54.46454,47.51902 -10.09244,-1.57851 -7.04175,-23.78161 1.56007,-24.03645 -40.86699,11.418 -63.81958,-7.91789 -35.65758,-33.30986"
       id="path2834"
       sodipodi:nodetypes="csszzzsszzzzcscscc" />
    <path
       style="fill:none;stroke:#000000;stroke-width:7.87792397;stroke-linecap:round;stroke-linejoin:round;stroke-miterlimit:4;stroke-opacity:1;stroke-dasharray:none"
       d="m 353.87935,283.04002 c -3.72363,33.39578 -28.65148,21.45542 -38.83291,2.3304 -0.19957,120.27463 -4.35754,240.54921 -4.55554,360.82384"
       id="path2836"
       sodipodi:nodetypes="ccc" />
    <path
       style="fill:none;stroke:#000000;stroke-width:7.87792397;stroke-linecap:round;stroke-linejoin:round;stroke-miterlimit:4;stroke-opacity:1;stroke-dasharray:none"
       d="m 397.86706,544.58159 c 11.03382,0.18802 52.62348,-20.41811 45.47663,-34.25185 -7.14686,-13.83374 -48.24336,-1.10317 -70.92811,13.04763"
       id="path2838"
       sodipodi:nodetypes="czc" />
    <path
       style="fill:none;stroke:#000000;stroke-width:7.87792397;stroke-linecap:round;stroke-linejoin:round;stroke-miterlimit:4;stroke-opacity:1;stroke-dasharray:none"
       d="m 447.93074,484.26043 c 27.05384,-82.05814 -80.61848,-39.4964 -114.51981,-25.36708 -80.01345,33.34815 -129.21634,64.0553 -202.07532,109.9482"
       id="path2840"
       sodipodi:nodetypes="csc" />
  </g>
</svg>