<?xml version="1.0" encoding="UTF-8"?><svg id="uuid-b544bda9-c44c-4a6f-bf2b-3b6dc331911b" xmlns="http://www.w3.org/2000/svg" viewBox="0 0 1786.64 697.41"><defs><style>.uuid-a22f4e5d-7f12-435e-adf7-94e2e9afdcf5{fill:#007a3d;}</style></defs><g id="uuid-696d671c-4e9f-43cb-a763-10bef1441f1e"><path id="uuid-f4f8c7f4-3a9c-4461-8133-151386340fe7" class="uuid-a22f4e5d-7f12-435e-adf7-94e2e9afdcf5" d="m469.52,593.81c-6.07-.98-3.76-2.42,13.5-8.41,65.16-22.63,111.16-45.02,168.19-81.87,4.45-2.88,7.06-5.06,7.28-6.09.18-.88.88-4.48,1.54-7.98,2.45-12.93,10.21-36.15,12.8-38.3,2.6-2.16,2.29,1.02-1.55,16.18-4.35,17.14-5.84,26.53-4.05,25.47,4.24-2.52,23.28-16.53,32.54-23.93,11.61-9.29,32.25-28.81,33.02-31.22.27-.84-2.14-6.94-6.26-15.84-10.54-22.79-16.26-38.35-18.86-51.23-.73-3.59-1.52-5.13-3.95-7.65l-3.05-3.15,3.22-15.23c1.77-8.38,3.47-15.51,3.77-15.84.3-.34,4.89,5.01,10.2,11.89,5.31,6.87,11.79,15.25,14.39,18.61,2.6,3.36,5.41,7.42,6.25,9.02,2.25,4.3,1.08,4.84-5.35,2.45-2.94-1.09-5.48-1.98-5.65-1.98-.57,0,4.02,12.29,7.57,20.25,4.72,10.59,6.91,17.15,8.22,24.66,1.39,7.91,1.39,19.21.02,25.71-1.76,8.29-6.31,20.95-9.39,26.13-6.75,11.34-26.72,30.11-52.9,49.72-4.95,3.71-9.3,7.01-9.66,7.33-.95.85,2,5.27,5.97,8.92,1.88,1.74,5.68,4.22,8.43,5.53,4.87,2.31,5.29,2.37,15.13,2.34,9.04-.03,10.81-.26,16.5-2.15,14.97-4.96,32.9-15.97,52.12-31.98,19.87-16.55,45.37-43.41,58.77-61.91l4.11-5.67-1.75-8c-7.25-33.2-20-71.2-36.67-109.25l-5.26-12-7.35-.47c-12.26-.79-21.02-4.85-28.89-13.4-7.71-8.38-12.95-21.36-14.82-36.73-1.7-13.95-.65-26.95,4.46-55.49,3.95-22.05,3.92-23.73-.34-18.67-6.85,8.14-11.83,23.96-19.81,62.91-2.5,12.18-5.41,25.17-6.48,28.87-2.52,8.74-6.54,16.83-10.27,20.68-6.56,6.76-17.3,9.05-24.57,5.23-4.79-2.51-11.91-10.05-15.27-16.18-3.58-6.52-7.46-18.21-8.83-26.62-1.56-9.57-1.35-38.48.35-49.5,2.71-17.55,6.6-30.75,9.07-30.75,1.45,0,1.46-.42-.3,13.22-3.41,26.46-3.76,45.26-1.09,58.85,1.29,6.6,5.47,16.47,8.86,20.92,4.35,5.72,11.7,8.62,17.22,6.8,3.91-1.29,8.64-6.45,11.45-12.49,3.18-6.85,5.97-16.72,10.8-38.17,8.96-39.87,13.36-52.99,23.44-69.96,4.87-8.2,11.59-15.46,15.13-16.34,2.89-.73,5.21.6,6.86,3.92,1.2,2.42,1.41,4.39,1.32,12.26-.12,9.56-1.07,17.16-5.98,47.62-5.29,32.8-3.36,50.14,6.77,60.97,1.88,2,5.05,4.54,7.05,5.63,4.01,2.18,11.75,4.25,15.99,4.26h2.73l.9-5.05c1.34-7.55,1.48-7.9,2.65-6.94.73.61,6.86,9.64,7.49,11.03.04.09,2.08-.37,4.54-1.01,21.73-5.67,35.58-24.39,38.2-51.65.96-9.96-2.17-38.38-5.98-54.37-1.03-4.33-3.63-13.15-5.77-19.59l-3.89-11.71,5.12-14.16c2.81-7.79,5.42-14.5,5.8-14.91,1.06-1.16,1.67.29,7.31,17.24,8.71,26.2,11.12,36.71,15.83,69,4.13,28.34,7.21,41.16,12.36,51.38,7.83,15.56,24.52,23.95,41.13,20.69,7.12-1.4,12.54-3.83,16.8-7.54,2.6-2.26,3.19-3.26,3.19-5.37,0-3.52-2.11-9.53-7.95-22.63-13.48-30.25-19.86-50.27-23.45-73.66-1.15-7.52-2.05-10.69-4.52-16.01-1.69-3.65-3.09-7.19-3.09-7.87-.02-2.46,10.15-30.86,11.05-30.86.51,0,1.48,1.09,2.17,2.43s5.9,9.88,11.58,18.99c12.28,19.66,15.71,25.77,15.71,27.95s-.84,2.06-7.87-1.01c-3.3-1.44-6.23-2.62-6.52-2.62-.76,0,.59,4.38,11.08,36.16,9.77,29.59,12.58,40.14,13.78,51.74,1.91,18.44-4.51,39.72-15.6,51.7-10.38,11.21-25.33,14.52-41.37,9.17-7.56-2.52-13.03-5.98-18.45-11.66-9.23-9.67-15.15-21.38-18.33-36.23-1.22-5.71-1.9-6.48-2.55-2.87-2.32,12.84-11.46,33.26-19.2,42.89-2.98,3.7-10.11,9.82-13.98,11.98-1.17.65-.71,1.95,4.49,12.79,13.56,28.21,22.6,54.96,28.19,83.34.85,4.33,2.57,15.64,3.82,25.12,2.74,20.8,4.55,31.04,7.45,42.06,6.65,25.29,17.04,43.8,31.55,56.18,9.61,8.21,8.57,8.35,9.94-1.35,2.4-17.02,7.65-27.44,19.25-38.17,8-7.4,21.62-13.94,55.94-26.82,9.08-3.41,17.01-6.51,17.63-6.89.71-.43-1.95-.54-7.13-.27-20.36,1.03-59.22,2.39-109.59,3.83-10.72.31-17.5.22-17.78-.22-.67-1.09,5.81-22.28,8.41-27.49,1.26-2.53,3.99-6.84,6.06-9.58,4.62-6.12,20.84-21.84,30.63-29.7,13.75-11.04,34.69-24.27,54.32-34.32,4.84-2.47,8.8-4.74,8.8-5.02s-1.6-2.65-3.57-5.25c-6.98-9.23-9.27-18.18-7.37-28.95,2.63-15,12.03-25.91,23.7-27.54,13.42-1.87,41.46,14,57.97,32.8l4.18,4.76-4.54,14.97c-2.5,8.23-4.62,15.06-4.7,15.16-.09.1-3.84,1.21-8.34,2.46-7.09,1.97-30.62,9.47-31.88,10.17-.24.13.03,2.52.6,5.3,1.26,6.12,1.05,11.13-.47,11.13-.58,0-2.55-2.53-4.37-5.63-1.82-3.09-3.7-6.02-4.19-6.51-.68-.68-2.72-.14-8.76,2.32-19.25,7.82-42.37,21.73-68.55,41.24l-11.17,8.33,5.55.25c10.55.47,80.22-2.23,158.8-6.14,26.13-1.3,47.68-2.08,47.9-1.73.22.35-1.92,7.07-4.75,14.92-3.89,10.79-5.52,14.42-6.65,14.83-.82.3-3.9,1.12-6.83,1.81-5.52,1.3-68.9,22.72-98.55,33.3-31.38,11.2-58.3,22.1-67.32,27.26-5.1,2.92-10.73,7.74-14.15,12.13-2.62,3.37-2.67,3.55-1.49,5.35,5.35,8.17,17.89,15.49,45.09,26.33l13.5,5.38-.16,16.37c-.09,9-.32,16.79-.52,17.3-.27.7-2.45.38-8.77-1.28-27.34-7.17-47.62-15.57-64.04-26.51-8.43-5.62-23.48-20.45-28.78-28.37-12.54-18.73-21.44-45.61-24.51-74.06-.29-2.68-.7-5.17-.9-5.53-.21-.36-1.13,2.17-2.04,5.63-4.44,16.74-11.02,26.76-32.46,49.4-32.81,34.65-63.13,56.87-87.58,64.17-7.88,2.36-20.94,3.27-27.27,1.91-14.34-3.08-25.13-14.97-29.26-32.26-.82-3.44-1.64-6.4-1.81-6.58-.17-.17-6.18,3.51-13.35,8.2-35.28,23.04-69.36,41.25-84.4,45.09-16.54,4.22-79.65,9.84-90.63,8.07h0v-.02Zm524.8-260.49c7.32-2.61,13.2-5.05,13.08-5.43-.42-1.3-15.79-10.07-19.97-11.39-5.3-1.68-12.82-1.69-17.8-.01-5.05,1.7-5.92,2.75-4.53,5.41,2.03,3.86,13.62,16.78,14.78,16.47.62-.17,7.11-2.43,14.43-5.04h0Zm-600.27,252.11c-15.97-1.86-31.65-9.51-44.34-21.62l-5.81-5.54-6.78,1.24c-10.29,1.88-20.13,1.69-27.12-.53-24.67-7.84-40.36-37.09-40.36-75.26,0-11.44.88-19.28,3.48-31.01,3.92-17.7,13.25-42.38,16.02-42.38,1.63,0,1.1,3.64-2.03,13.87-8.49,27.77-9.99,34.91-10.52,49.96-.57,16.22,1.79,25.96,8.75,36.22,7.44,10.95,22.07,18.07,37.17,18.07h6.13l-1.35-6.19c-5.43-24.91-2.8-58.91,6.75-87.49,3.41-10.2,6.98-18.05,9.07-19.94,1.43-1.29,1.51-1.29,2,0,.29.75-1.02,7.63-2.98,15.66-5.19,21.3-6.56,30.38-6.59,43.57-.03,16.72,2.77,29.45,9.17,41.63,4.76,9.06,4.38,8.77,9.47,7.17,27.86-8.75,69.99-38.05,100.96-70.2,9.06-9.4,21.82-24.59,23.25-27.68.98-2.1-6.05-17.54-7.69-16.9-.66.26-4.69,1.44-8.95,2.64-10.04,2.82-18.82,3.96-27.79,3.59-6.16-.25-7.95-.64-12.23-2.64-13.16-6.17-19.33-18.63-17.1-34.54,2.54-18.16,11.66-33.32,24-39.89,8.33-4.43,15.58-3.29,25.91,4.08,7.65,5.46,16.81,16.9,22.36,27.93l2.74,5.44,5.42-2.73c5.52-2.78,37.07-20.22,38.44-21.25.41-.31,1.84-.93,3.18-1.38,1.97-.66,2.65-.6,3.59.35.64.64,1,1.72.8,2.39-.2.68-.93,4.07-1.62,7.54-3.21,16.14,3.53,27.64,18.74,31.98,6.78,1.93,19.41.79,23.09-2.09,1.1-.86,1-3.7-1.28-33.57-1.36-17.94-2.51-32.71-2.55-32.8-.04-.1-4.21,1.99-9.26,4.65-10.41,5.47-24.04,11.65-25.7,11.65-1.51,0-1.4-1.48.2-2.73.72-.56,8.75-5.74,17.84-11.52l16.53-10.5-2.81-39.19c-3.32-46.31-6.06-82.93-8.2-109.32-1.44-17.74-1.73-19.66-4.11-26.48-1.41-4.05-2.57-7.86-2.57-8.48,0-2.12,11.47-28.79,12.38-28.79,2.36,0,24.37,65.13,24.37,72.13,0,3.72-2.39,2.56-7.39-3.61-2.56-3.15-4.95-6.27-5.32-6.93-.37-.66-.82-1.03-1-.83-.35.39,9.72,139.49,10.13,139.9.7.7,18.6-15.2,24.82-22.05l3.65-4.01-4-2.64c-5.49-3.63-9.46-7.52-11.28-11.03-3.01-5.83-.42-15.02,5.98-21.24,4.99-4.86,10.54-7.74,15.81-8.21,3.84-.35,4.53-.18,6.65,1.6,1.3,1.09,2.79,3.24,3.31,4.78,1.53,4.53,1.03,12.55-1.19,18.91-1.08,3.09-2.14,6.15-2.35,6.78-.27.78.95,2.08,3.78,4.03,2.29,1.58,4.17,3.21,4.17,3.63,0,.98-5.89,11.66-6.72,12.17-.35.22-2.41-.8-4.57-2.26-2.17-1.46-4.18-2.8-4.46-2.98-.29-.18-1.65,1.25-3.03,3.17-5.98,8.33-18.13,20.67-27.56,28l-2.47,1.92,2.41,31.45c1.33,17.3,2.56,31.62,2.73,31.83.43.5,3.69-3.35,10.16-12,10.66-14.25,16.44-19.71,19.6-18.49,1.65.63,1.45,2.86-.69,7.95-4.59,10.9-3.85,16.82,2.95,23.75,5.57,5.68,10.4,7.28,20.66,6.88,6.55-.26,8.57-.64,12-2.28,7.12-3.4,7.18-3.5,4.82-8.17-1.11-2.2-2.82-5.26-3.8-6.8-.97-1.54-1.77-3.32-1.77-3.94,0-1.88,7.56-29.22,8.29-29.97,1.98-2.04,7.88,17.74,8.67,29.09,1.09,15.46-6.05,36.85-15.44,46.26-5.88,5.9-10.12,7.78-17.65,7.81-5.22.03-6.65-.28-11.01-2.34-8.26-3.91-15.81-12.26-19.05-21.05-.72-1.97-1.59-3.89-1.93-4.27-.9-1.03-3.21,1.32-9,9.12l-5.14,6.93v17.45c0,24.65-1.98,43.27-5.97,56.17-2.77,8.97-10.74,19.55-25.63,34.05-32.06,31.21-79.47,58.31-119.2,68.15-17.73,4.39-31.91,5.7-45.04,4.17h0v.03Zm38.34-33.37c38.54-7.48,83.14-30.1,118.86-60.28,7.62-6.44,18.82-17.45,23.21-22.82l2.94-3.6-.91-17.39c-1.23-23.38-1.64-27.67-2.65-27.22-8.64,3.87-10.88,4.46-18.34,4.8-12.8.59-20.1-1.78-27.16-8.81-6.4-6.37-11.2-18.41-11.2-28.07,0-1.85-.29-3.55-.65-3.77-.36-.22-7.19,3.24-15.19,7.7-11.6,6.47-14.5,8.39-14.37,9.55.09.8.19,6.51.22,12.7.07,15.63-1.82,25.79-6.56,35.25-5.94,11.85-16.33,24.68-34.04,42.02-22.96,22.48-44.93,39.15-68.99,52.36-2.29,1.26-2.39,1.44-1.1,2.16,4.64,2.6,14.85,5.71,22.56,6.88,4.79.73,27.2-.24,33.37-1.44h0v-.02Zm3.11-16.17c.17-.58,5.03-4.15,10.79-7.93,5.76-3.78,15.88-10.42,22.48-14.74,6.6-4.33,16.44-11.43,21.87-15.79,9.29-7.46,24.28-21.55,24.24-22.78-.01-.31-2.07-1.91-4.57-3.56-13.85-9.14-15.48-19.85-4.73-31.12,4.85-5.09,10.99-8.4,16.41-8.85,3.56-.29,4.17-.11,6.62,2.05,5.11,4.48,5.44,13.98.9,26.04-1.03,2.74-1.79,5.04-1.68,5.11,2.74,1.65,8.07,5.98,8.07,6.56,0,.97-6.23,12.59-6.75,12.59-.21,0-2.35-1.32-4.77-2.92l-4.39-2.92-5.92,7.36c-6.99,8.7-18.56,19.81-26.71,25.66-6.8,4.88-19.9,12.11-35.98,19.86-11.95,5.76-16.42,7.28-15.86,5.4h0l-.02-.02Zm87.19-76.86c.25-.65.46-2.3.46-3.66,0-6.85-2.15-10.16-6.59-10.16-2.96,0-7.76,2.04-8.22,3.49-.4,1.29,3.81,5.77,8.27,8.79,4.4,2.98,5.43,3.24,6.08,1.53h0Zm-68.82-77.28c.98-.25,1.78-.74,1.78-1.11s-2.16-2.86-4.79-5.55c-7.28-7.42-14.26-9.89-21.34-7.54-4.1,1.36-9.12,6.09-9.12,8.6,0,2.19,5.96,4.72,15,6.37,2.29.42,16.02-.15,18.47-.77h0Zm165.2-124.25c.08-3.05-1.66-8-3.14-8.94-2.68-1.7-11.78.7-11.78,3.11,0,1.47,4.99,6.37,9.37,9.22,2.99,1.94,4.66,2.33,4.99,1.18.27-.95.52-3.01.56-4.57h0Zm638.85,328.23c-.63-.63,2.34-7.91,3.84-9.42,1.36-1.37,49.49-20.5,50.09-19.9.2.2-.33,2.2-1.18,4.46l-1.53,4.1-7.3,2.86c-30.85,12.09-39.81,15.75-41.51,16.96-1.08.76-2.16,1.19-2.39.95h-.02Zm98.09-.46c-.19-.52-1.21-3.97-2.27-7.69-2.28-8.01-6.8-17.61-10.19-21.66l-2.43-2.91-1.35,1.67c-1.13,1.39-1.82,1.59-4.19,1.19-3.68-.62-8.27-3.24-10.17-5.8-1.44-1.94-1.45-2.16-.26-5.25.68-1.77,1.94-4.37,2.79-5.76,1.45-2.38,1.75-2.51,4.83-2.16,7.3.82,14.21,7.44,19.8,18.94,1.6,3.3,3.52,8.02,4.26,10.5.74,2.47,1.56,4.76,1.83,5.09.27.32,1.07-3.56,1.78-8.63,1.96-13.97,3.33-20,5.72-25.18,2.51-5.43,5.36-7.31,9.11-6.01,2.54.89,8.87,7.72,8.87,9.58,0,.73-.7,2.9-1.55,4.82l-1.55,3.5-2.29-1.93c-9.12-7.67-12.06-4.63-14.55,15-1.92,15.19-4.49,23.63-7.21,23.63-.36,0-.81-.42-1-.94h.02Zm56.65-3.75c.01-1.19,2.4-2.73,19.64-12.66,40.26-23.2,54.93-33.89,77.52-56.48,19.6-19.6,29.57-34.01,31.12-44.99.8-5.64.16-17.47-2.3-42.43-.79-8.04-1.95-20.53-2.58-27.75s-2.99-32.19-5.26-55.5-6.66-69.54-9.76-102.75c-9.06-96.89-8.36-90.72-11.38-100.16l-2.65-8.29,5.88-14.39c3.23-7.91,6.27-14.39,6.74-14.4,1.41-.02,16.07,40.62,21.69,60.14,2.56,8.89,3.19,13.63,1.92,14.42-.82.51-3.72-2.35-8.25-8.12-3.1-3.95-3.49-4.23-3.68-2.62-.23,1.97,5.93,66.52,14.06,147.3,8.31,82.54,9.58,100.65,8.77,125.64-1.13,34.99-8.92,59.74-26.74,84.93-7.06,9.98-22.11,24.84-29.63,29.26-12.58,7.39-34.52,15.71-65.88,24.96-16.99,5.01-19.25,5.47-19.24,3.9h.01Zm-223.34-2.37c-7.77-3.71-17.73-15.63-23.61-28.26-1.33-2.85-2.67-5.18-2.98-5.18s-3.44,1.19-6.94,2.64c-16.45,6.81-63.68,21.36-65.01,20.03-1.25-1.25,1.3-2.98,22.37-15.15,11.04-6.38,25.61-15.26,32.36-19.74l12.28-8.15-.46-3.51c-3.45-26.3-2.08-56.87,3.38-75.32,1.48-5.01,3.17-6.57,4.2-3.89.25.65-.35,6.98-1.32,14.06-2.24,16.23-2.4,38.77-.37,52.26.71,4.74,1.57,8.91,1.91,9.25.88.89,9.89-6.98,22.98-20.06,14.97-14.97,23.2-25.52,28.31-36.3,2.36-4.99,2.37-5.05,2.33-17.01-.03-7.46-.96-21.65-2.48-37.5-4.59-48.12-9.84-104.31-15.1-161.63-9.07-98.9-8.66-95.19-11.71-105l-2.69-8.63,5.73-13.87c3.15-7.63,6.02-14.16,6.38-14.52.96-.96,2.21,1.84,8.48,19.02,9.56,26.15,16.29,47.87,16.3,52.56,0,4.45-2.02,3.38-7.92-4.16-3.81-4.87-4.49-5.45-4.68-3.96-.23,1.79,6.53,73.85,13.7,146.06,6.62,66.68,6.7,67.89,6.74,98.63.03,30.05-.34,34.6-4.14,50.05-5.05,20.52-14.41,38.93-28.11,55.28-6.9,8.24-15.3,16.28-20.77,19.91-2.37,1.57-4.31,3.19-4.31,3.61,0,1.66,6.09,8.69,9.46,10.92,4.95,3.28,8.53,4.14,13.13,3.15,13.69-2.94,22.48-14.47,38.27-50.19,14.04-31.76,22.2-45.22,34.92-57.59l6.27-6.1-3.01-37.78c-7.11-89.12-16.45-215.06-18.47-248.9-.4-6.77-1.05-10.28-3.02-16.32l-2.5-7.69,5.82-14.06c3.45-8.33,6.23-14.06,6.83-14.06,1.13,0,7.14,15.4,14.63,37.5,8.6,25.36,11.12,36.37,8.31,36.37-.93,0-7.21-7.16-11.88-13.54-1.32-1.8-1.34-1.66-.91,6.41.6,11.43,18.43,255.36,19.32,264.33.15,1.51.81,1.99,3.72,2.73,8.72,2.21,14.72,8.11,24.9,24.45,7.45,11.97,14.49,21.41,18.97,25.46,11.22,10.13,33.94,11.74,56.97,4.04,8.25-2.76,15.9-6.34,17.39-8.13,1.03-1.24.25-15.82-3.29-61.62-1.8-23.33-9.1-125.02-10.94-152.31l-.91-13.56-6.73-7.82c-41.47-48.21-62.41-76.4-72.62-97.79-2.14-4.49-5.17-9.42-7.08-11.54l-3.33-3.71v-15.41c0-8.47.26-15.57.57-15.76.75-.47,43.27,40.25,46.87,44.89,3.12,4.01,3.63,6.37,1.37,6.37-.79,0-4.31-1.01-7.81-2.25-3.51-1.24-6.59-2.25-6.84-2.25-1.09,0,17.03,22.91,36.69,46.4,7.03,8.4,13.35,15.99,14.05,16.86.69.87,1.42,1.42,1.62,1.22s-.8-15.36-2.21-33.68c-1.71-22.19-3.44-35.72-5.18-40.59-1.44-4-2.61-7.71-2.61-8.25,0-1.95,11.64-29.2,12.37-28.97.97.31,5.51,11.34,14.23,34.62,9.89,26.4,12.59,36.48,10.35,38.72-1.25,1.25-3.14-.17-8.42-6.38-2.65-3.12-4.95-5.54-5.11-5.39-.3.3,4.23,68.06,4.72,70.55.16.82,8.66,11.32,18.89,23.32s21.27,25.07,24.54,29.05c3.27,3.98,6.07,7.11,6.22,6.97.15-.15-.59-11.53-1.63-25.3-2.17-28.67-5.83-79.95-7.52-105.34-1.01-15.19-1.42-18.17-3.38-24.38-1.23-3.89-2.24-7.59-2.24-8.22s1.47-4.68,3.28-9,4.37-10.47,5.69-13.67,2.8-5.81,3.29-5.81c1.67,0,19.07,49.27,22.97,65.01,3.08,12.45.88,12.36-8.8-.34-2.29-3-4.28-5.33-4.44-5.18-.51.51,10.78,154.82,11.4,155.83.21.34,4.68,6.35,9.92,13.35,11.7,15.61,17.54,24.85,24.95,39.46,6.42,12.66,11.88,28.28,13.77,39.37.67,3.92,1.43,12.05,1.69,18.07.47,10.74.04,15.81-1.21,14.48-.35-.37-2.14-5.23-3.99-10.8-5.81-17.51-13.84-33.72-25.64-51.79-4.9-7.51-16.39-23.22-16.72-22.89-.11.11,1.5,22.73,3.56,50.26,2.07,27.54,3.76,53.37,3.76,57.41,0,17.96-3.36,34.39-9.81,47.95-3.85,8.08-5.9,9.56-4.26,3.05,1.74-6.9.99-29.43-2.29-68.25-1.72-20.42-4.48-54.3-6.12-75.3-2.12-27.11-3.28-38.52-4-39.37-.55-.66-5.53-6.6-11.05-13.2-13.59-16.23-37.62-43.99-37.85-43.72-.22.25,5.49,80.23,8.21,114.97,3.81,48.64,4.26,73.91,1.57,89.06-1.5,8.47-5.62,20.57-8.78,25.78-4.55,7.5-12.32,12.72-25.5,17.13-21.29,7.11-42.92,6.26-55.67-2.2-6.76-4.48-10.61-9.45-27.07-34.9-2-3.09-4.85-7.09-6.33-8.87-2.92-3.53-8.22-7.77-9.06-7.26-.29.18-.74,3.79-1,8.04-.51,8.18-2.3,17.31-4.98,25.34-1.94,5.82-6.64,15.46-8.14,16.7-.92.76-.98.3-.41-3.22.8-4.98.81-38.97.02-42.94l-.56-2.83-3.45,2.46c-9.27,6.61-18.8,19.08-25.49,33.37-1.89,4.04-6.45,14.58-10.13,23.42-10.84,26.04-16.32,36.09-23.6,43.28-7.89,7.78-18.44,10.47-26.33,6.7h0v.08Zm-134.43-11.5c-.01-9.47-2.2-24.64-5.97-41.55-4.18-18.72-3.92-24.61,1.34-30.14,2.52-2.65,5.19-4.1,11.31-6.11l4.79-1.58-2.08-1.36c-1.14-.75-3.38-1.54-4.97-1.75-2.67-.36-3.13-.13-5.9,2.9-2.96,3.24-3,3.26-3,1.25,0-3.33,3.09-10.57,5.45-12.78,2.52-2.36,5.84-2.69,9.9-.99,3.12,1.3,8.83,6.46,10.95,9.89,1.43,2.32,1.48,2.86.64,6.65-.88,3.93-1.05,4.14-3.62,4.53-12.83,1.94-21.8,4.96-23.58,7.94-.5.84.22,5.15,2.37,14.25,4.34,18.36,5.56,26.55,5.67,38.18.09,9.89-1.08,18-2.6,18-.37,0-.68-3.29-.69-7.31h0v-.02Zm-58.74,3.99c-9.46-2.54-14.26-10.85-12.52-21.67,1.38-8.6,7.91-18.06,18.69-27.11,2.93-2.46,5.33-4.7,5.33-4.96,0-.64-4.79-1.42-8.78-1.43-6.64-.02-10.73,1.44-14.25,5.06-1.85,1.9-3.57,3.1-3.91,2.73-.33-.37-.12-2.8.47-5.39,1.93-8.4,7.91-12.17,19.29-12.14,6.28.01,13.6,1.59,15.3,3.3,1.12,1.12,1.07,1.64-.64,6.64-1.82,5.3-2.03,5.56-9.73,11.94-9.2,7.62-13.62,12.38-15.81,17.03-3.87,8.23,1.79,15.82,11.8,15.83,3.93,0,13.36-2.04,17.63-3.82,5.88-2.46,13.55-7.71,18.64-12.74,2.46-2.44,4.81-4.43,5.23-4.43,3.73,0-7.42,15.59-16.02,22.41-10.52,8.34-21.08,11.35-30.72,8.76h0Zm271.28-11c.28-1.82,1.17-4.21,1.97-5.31l1.46-2.01-2.63-1.62c-2.82-1.75-4.84-4.89-4.84-7.56,0-2.21,4.6-10.3,7.25-12.77,2.63-2.45,6.41-4.4,8.52-4.4,2.58,0,5.98,3.96,5.98,6.96,0,2.52-1.31,7.29-2,7.29-.19,0-1.47-1.18-2.83-2.62-2.69-2.86-6.03-3.46-9.76-1.75-2.55,1.16-2.42,3.24.36,6.02,2.19,2.19,2.48,2.26,7.69,1.97,4.88-.28,5.97-.65,11.04-3.79,6.05-3.75,6.6-3.63,5.68,1.28-.4,2.12-1.63,3.22-9.26,8.29-4.84,3.22-10.65,7.25-12.92,8.97-6.45,4.89-6.3,4.86-5.72,1.07h0v-.02Zm133.97,1.34c0-1.99,2.37-7.89,3.62-9.02,1.61-1.45,55.56-22.56,56.15-21.97.24.24-.21,2.22-.99,4.39l-1.42,3.96-26.24,10.22c-14.43,5.62-27.34,10.94-28.68,11.82-1.73,1.13-2.44,1.31-2.44.6h0Zm-328.49-8.58c0-.31,2.45-1.88,5.44-3.5,12.88-6.96,33.25-21.06,39.74-27.53,2.37-2.36,4.31-4.6,4.31-4.98s-1.33-1.09-2.97-1.58c-1.63-.49-3.49-1.41-4.12-2.05-1.6-1.6-1.45-6.26.34-10.98,1.79-4.71,1.76-4.32.38-4.32s-1.43-1.73.02-4.54c.93-1.8,1.63-2.21,3.72-2.21,7.61,0,18.07,7.53,19.9,14.32,1.1,4.08.41,9.58-1.43,11.42-1.44,1.44-6.17,1.86-10.41.93-1.9-.42-2.29-.11-4.33,3.41-5.33,9.25-28.56,25.52-43.74,30.63-4.81,1.62-6.88,1.91-6.87.98h.02Zm65.24-41.32c0-1.62-7.81-10.61-8.52-9.8-.15.17-.49,2.25-.76,4.61-.48,4.23-.45,4.3,1.58,4.75,1.14.25,2.4.57,2.82.71,1.57.52,4.87.34,4.87-.27h.01Zm-12.31-4.76c-.89-5.55-3.22-6.6-6.67-3-3.06,3.2-2.64,4.32,2.04,5.44,4.9,1.17,5.18,1.03,4.63-2.44h0Zm296.91,16.84c.28-1.55,1.14-3.89,1.91-5.21l1.39-2.39-2.57-1.52c-3.57-2.11-5.42-6.11-4.25-9.21,5-13.23,16.54-19.35,20.83-11.04,1.07,2.06,1.06,2.64-.01,6.35-.65,2.25-1.43,4.07-1.73,4.05-.3-.02-1.22-1.11-2.05-2.42-2.07-3.28-4.83-4.15-8.83-2.77-3.82,1.32-4.24,2.78-1.67,5.83,1.44,1.71,2.83,2.44,5.36,2.82,4.31.65,7.57-.32,13.92-4.16,2.76-1.66,5.2-3.02,5.43-3.02.62,0,.48,5.49-.16,6.44-.3.45-4.26,3.28-8.8,6.29-4.54,3.01-10.48,7.12-13.22,9.12-2.73,2-5.22,3.64-5.52,3.64s-.32-1.27-.04-2.81h.01Zm-815.6-30.77c0-.32,2.37-3.78,5.27-7.69,8.7-11.72,12.19-20.46,10.91-27.3-.6-3.21-3.31-5.31-6-4.63-2.54.64-6.22,3.89-8.51,7.52-2.53,4.01-2.95,2.42-1.03-3.89,3.96-12.99,14.25-21.36,19.37-15.73,3.54,3.89,4.37,8.62,2.94,16.8-1.8,10.33-7.64,20.77-17.23,30.83-4.19,4.39-5.73,5.5-5.73,4.1h.01Zm-318-6.65c0-.24,1.57-2.51,3.48-5.04,4.68-6.19,7.77-12.84,7.77-16.73,0-4.6-.55-5.5-3.39-5.5-2.01,0-3.08.67-5.65,3.56-3.03,3.41-3.15,3.46-2.64,1.31.91-3.86,3.87-9.66,6.02-11.79,7.44-7.34,13.37.58,9.7,12.96-.66,2.24-1.84,5.31-2.6,6.82-2.78,5.45-12.69,16.7-12.69,14.4h0Zm70.83-8.3c1.35-3.51,2.08-14.31,1.68-24.59-.24-6.19-2.31-34.03-4.6-61.87s-4.16-51.15-4.16-51.79c0-.8-1.74-1.67-5.49-2.78-22.04-6.48-34.65-31.45-33.25-65.81.46-11.3,1.92-22.33,5.36-40.48,2.36-12.44,3.04-18.4,2.12-18.4-.39,0-1.57.93-2.61,2.06-6.84,7.44-12.08,23.8-19.76,61.69-5.14,25.38-7.2,33.15-10.84,40.95-4.43,9.49-9.31,14.13-17.37,16.52-7.31,2.17-13.83-.1-21.07-7.34-7.56-7.56-13.25-19.86-16.09-34.75-1.79-9.36-2.16-32.48-.72-44.84,1.91-16.44,6.55-36.32,8.81-37.72,2.03-1.26,2.18,1.35.71,12.88-4.65,36.51-3.79,57.68,2.93,72.04,2.7,5.78,7.68,12.24,10.65,13.83,2.55,1.36,8.21,2.03,10.9,1.29,4.06-1.12,8.94-6.15,11.82-12.17,3.26-6.83,5.36-14.25,10.91-38.69,9.04-39.79,13.53-53.29,23.08-69.37,9.44-15.91,18.19-20.92,22.29-12.75,1.26,2.51,1.49,4.39,1.42,11.62-.09,9.01-.93,15.99-5.15,42.75-3.64,23.06-4.41,30.78-3.83,38.59,1.03,13.89,4.53,23.22,10.94,29.22,3.53,3.3,10.15,7.04,10.99,6.2.2-.2-1.51-24.78-3.81-54.63-2.3-29.84-5.01-65.73-6.03-79.76-1.72-23.63-2.02-26.01-4.13-32.47-1.25-3.83-2.27-7.29-2.27-7.67,0-1.84,11.57-28.48,12.37-28.48,2.26,0,24.38,65.05,24.38,71.71,0,4.43-2.74,2.61-9.63-6.39l-4.25-5.56-.22,2.56c-.19,2.22,8.77,125.74,10.06,138.53l.47,4.72,3.47-.47c10.62-1.43,21.78-6.09,28.24-11.77,4.04-3.55,9.04-10.43,12.25-16.83,5.32-10.61,7.42-24.74,6.09-40.93-1.85-22.6-4.97-38.39-11.38-57.68l-3.9-11.74,5.1-14.14c2.8-7.78,5.41-14.47,5.8-14.88,1.09-1.15,1.68.23,7.34,17.24,8.71,26.2,11.12,36.71,15.83,69,5.2,35.73,9.3,49.48,17.68,59.36,6.76,7.96,17.85,13.19,28.04,13.23,9.89.03,19.43-3.31,24.82-8.71,4.76-4.76,4.68-5.1-9.01-36.72-10.37-23.96-16.27-43.43-19.49-64.28-1.15-7.47-2.07-10.72-4.51-16.01-1.69-3.65-3.06-7.23-3.06-7.95,0-1.67,9.62-30.2,10.47-31.06.35-.36,1.12.15,1.72,1.12.59.97,6.01,9.75,12.04,19.5,13.07,21.15,16.27,26.85,16.27,29.02s-.83,2.07-8.43-1.32l-6.56-2.92.46,1.99c.25,1.1,4.95,15.66,10.44,32.37,10.41,31.67,13.4,42.77,14.52,53.79,2.32,22.88-7.57,48.42-22.44,57.97-14.51,9.31-36.7,6.58-50.69-6.24-10.26-9.4-16.5-21.16-20.92-39.41l-1.34-5.52-1.7,6.65c-2.47,9.66-5.19,16.77-10.16,26.52-6.76,13.29-14.07,20.99-25.25,26.59-5.09,2.55-15.17,5.66-18.33,5.66-1.24,0-1.36.43-.99,3.56.23,1.96,1.62,19.43,3.09,38.81,3.7,48.77,3.23,62.81-2.73,81.21-2.26,6.96-7.56,17.42-8.83,17.42-.69,0-.88-.45-.56-1.28h0Zm760.48-1.15c.26-1.34.67-7.84.91-14.44.37-10.5-.15-19.04-4.15-68.25-2.52-30.94-5.89-72.89-7.49-93.23l-2.91-36.98-3.7-4.27c-48.84-56.36-73-88.79-84.22-113.02-1.53-3.3-4.18-7.58-5.88-9.5l-3.1-3.49v-15.88c0-8.92.29-15.78.66-15.63,1.38.52,41.73,39.46,45.57,43.98,3.77,4.44,4.6,6.06,3.59,7.07-.61.61-8.37-1.31-12.63-3.14-2.01-.86-3.79-1.44-3.95-1.28-.31.31,11.58,15.93,21.77,28.62,12.31,15.34,38.18,46.18,38.48,45.88.17-.17-.71-13.94-1.95-30.6s-2.48-34-2.74-38.54c-.37-6.41-1.06-10.07-3.07-16.38l-2.59-8.13,5.77-14c3.17-7.7,6.06-14.31,6.42-14.69.84-.9,2.59,3.12,8.89,20.42,9.01,24.75,15.79,46.78,15.79,51.29,0,4.9-2.36,3.21-10.59-7.57-3.43-4.5-3.66-4.66-3.66-2.62,0,1.2,1.35,20.06,3,41.92,1.64,21.86,2.99,40.12,2.99,40.58s5.5,7.56,12.23,15.8c23.88,29.24,40.1,50.6,48.6,64,14.35,22.62,23.14,45.09,25.4,64.93.96,8.44.75,25.73-.31,26.01-.39.1-1.61-2.85-2.72-6.57-6.11-20.46-18.86-45.16-34.49-66.8-9.17-12.7-44.78-57-45.36-56.42-.12.12,1.95,28.58,4.62,63.23,4.42,57.52,4.81,64.4,4.5,79.13-.36,17.21-1.17,22.51-5.35,34.94-3.53,10.51-9.69,20.6-8.32,13.62h-.01Zm-734.82-.66c-1.89-1.1-3.49-5.21-3.49-8.99,0-1.72,1.42-7.39,3.16-12.59,3.55-10.6,3.4-10.26,4.09-9.57.28.28-.38,3.79-1.47,7.81-2.88,10.68-3,11.71-1.74,14.73,1.8,4.3,5.14,3.27,7.05-2.17.76-2.18.79-2.14.85,1.26.13,7.5-3.97,12.11-8.45,9.51h0Zm382.58-8.95c-.71-.42-2.15-2.21-3.19-3.98-1.59-2.71-1.89-4.16-1.88-9.16,0-5.32.51-7.41,4.81-20.05,2.64-7.77,5-14.32,5.24-14.56,1.19-1.19.17,4.98-2.19,13.36-4.24,15.03-4.23,21.62.04,24.41,1.51.99,2.07,1.01,3.87.15,1.92-.92,3.31-3.02,5.37-8.11,1.32-3.27,1.03,5.91-.34,10.5-1.99,6.69-7.27,10.04-11.73,7.44h0Zm-83.38-11.57c-1.11-1.03-2.51-3.05-3.11-4.48-1.39-3.33-1.38-11.59.02-16.9.86-3.26,6.15-18.67,8.5-24.75.29-.74.53-.44.71.89.15,1.11-.94,6.34-2.43,11.62-3.4,12.09-4.01,18.35-2.12,21.99,2.84,5.47,8.83,3.15,10.66-4.14.46-1.85,1.05-3.36,1.31-3.36,1.18,0-.35,11.82-1.96,15.22-2.73,5.73-7.77,7.43-11.57,3.91h-.01Zm676.05-1.56c0-.4,1.72-3.08,3.82-5.96s4.47-6.5,5.26-8.04c1.67-3.26,2.56-8.63,1.88-11.34-1.02-4.07-6.43-2.76-9.57,2.32-2.36,3.81-2.69,1.72-.61-3.85,1.83-4.89,6.13-9.84,9.24-10.62,1.7-.43,2.5-.14,4.11,1.46,1.82,1.82,1.99,2.48,1.94,7.79-.04,4.81-.44,6.64-2.35,10.78-1.27,2.74-3.65,6.79-5.3,9-3.35,4.48-8.42,9.58-8.42,8.46h0Zm-1114.17-32.13c-3.22-1.4-7.21-6.33-8.97-11.06-1.16-3.14-1.46-5.7-1.38-11.88.11-8.8,1.45-14.26,7.56-30.75,1.91-5.16,4.53-12.69,5.82-16.73,1.29-4.05,2.67-7.25,3.06-7.12,1.51.5.26,8.82-3.04,20.19-5.68,19.57-6.73,27.03-4.8,33.98,1.86,6.72,7.9,9.21,12.64,5.22,2.9-2.44,4.29-5.08,5.51-10.44.52-2.29,1.27-4.24,1.67-4.32,1.04-.22,1.31,10.02.39,14.98-.91,4.92-3.93,11.85-6.27,14.4-1.75,1.9-6.89,4.57-8.77,4.54-.62,0-2.16-.46-3.42-1.01h0Zm67.49-4c-3.19-14.36-8.79-29.07-13.34-35.06-.76-1-1.51-1-2.24,0-1.1,1.48-1.14,1.48-5.34.05-5.18-1.76-8.65-5.33-8.64-8.88,0-2.67,3.93-10.12,5.68-10.79,1.97-.75,8.03,2.15,11.75,5.62,6.18,5.78,11.06,15.48,14.02,27.89.81,3.39,1.59,6.28,1.73,6.43.14.14,1.19-5.95,2.34-13.53,3.37-22.34,6.05-30.88,10.4-33.12,3.76-1.94,7.84.18,12.08,6.29l2.02,2.92-1.61,3.88c-.89,2.13-1.86,3.88-2.16,3.88s-1.83-1.02-3.4-2.27c-3.98-3.16-6.04-3.54-8.19-1.52-2.39,2.25-3.77,7.75-6.01,24.01-2.8,20.26-4.55,26.28-7.63,26.28-.55,0-1.2-.93-1.45-2.06h0v-.02Zm625.21-4.87c.02-.52.95-3.3,2.08-6.18,1.77-4.52,2.49-5.49,5.18-6.97,2.7-1.49,25.93-10.27,130.9-49.46,10.62-3.97,19.5-7.02,19.73-6.79.23.23-.53,2.89-1.69,5.9l-2.11,5.48-49.87,18.59c-80.91,30.15-98.34,36.82-101.02,38.64-2.93,1.99-3.24,2.06-3.2.79h0Zm370.47-10.17c0-1.22,2.47-8.03,3.29-9.07,1.1-1.39.62-1.19,41.53-16.97,19.5-7.52,35.6-13.43,35.78-13.13.41.66-2.03,7.27-3.03,8.21-.39.37-16.74,6.8-36.33,14.3s-36.89,14.46-38.44,15.46c-1.55,1-2.81,1.54-2.81,1.2h0Zm-549.75-10.37c0-.43,2.07-3.63,4.59-7.09,7.79-10.69,10.66-19.27,7.87-23.53-2.5-3.81-7.96-1.48-12.3,5.24-1.99,3.08-.13-4.39,2.32-9.32,2.49-5.03,6.17-8.61,9.7-9.47,1.69-.41,2.46-.08,4.25,1.84,6.99,7.48.8,26.45-12.98,39.79-1.9,1.84-3.45,2.99-3.45,2.55h0Zm537-15.99c0-.4.68-2.53,1.51-4.75,1.32-3.54,1.94-4.23,5.06-5.68,8.31-3.87,53.08-20.87,53.31-20.24.38,1.03-2.29,8.05-3.21,8.42-.44.18-11.77,4.6-25.17,9.82-13.41,5.22-25.85,10.32-27.66,11.32-3.71,2.07-3.84,2.11-3.84,1.11h0Zm-440.83-1.62c-7.46-3.69-10.31-10.84-10-25.04.26-11.76.25-12.26-.34-15.56-.27-1.55-.3-3.6-.06-4.55.49-1.94,5.46-8.76,6.39-8.76,1.08,0,2.34,3.76,2.34,6.97,0,1.73-.51,5.8-1.13,9.03-2.07,10.83-1.26,17.33,2.73,21.87,2.82,3.21,6.13,4.21,10.69,3.24,4.43-.94,10.6-6.32,11.66-10.17.93-3.36-.12-11.51-2.56-19.95l-1.75-6.05,1.62-3.97c.89-2.19,1.86-3.97,2.16-3.97,1.71,0,3.21,5.63,6.2,23.27,2.03,12,5.62,16.08,14.14,16.08,3.91,0,4.6-.24,6.25-2.16,2.28-2.65,2.15-3.29-2.83-13.58-4.69-9.69-5.21-13.61-2.76-20.57,2.02-5.72,3.31-6.54,3.95-2.53.62,3.85,2.6,9.77,5.93,17.66,3.66,8.67,4.08,12.55,2.03,18.67-2.74,8.21-9,15.01-14.83,16.1-4.68.88-10.63-2.46-14.79-8.28-.99-1.38-1.13-1.29-2.66,1.72-5.25,10.29-14.29,14.54-22.39,10.53h.01Zm475.74-49.98c-2.64-11.26-7.95-24.9-11.84-30.42-1.38-1.95-1.58-2.02-2.82-.9-3.52,3.19-14.32-3.75-14.24-9.14.01-.74,1.11-3.37,2.45-5.85,2.39-4.42,2.48-4.5,5.42-4.32,4.17.25,10.45,4.84,14.3,10.45,3.81,5.55,7.25,13.73,9.63,22.86,1,3.85,1.86,6.67,1.89,6.26.29-3.19,3.94-25.82,4.84-30.06,2.62-12.31,6.47-18.2,11.26-17.24,2.34.47,6.14,3.66,8.85,7.41,1.48,2.05,1.48,2.2.21,5.62-.72,1.93-1.56,3.8-1.87,4.14-.31.34-2.15-.58-4.08-2.06-4.2-3.2-6.49-3.4-8.59-.73-2.42,3.08-3.14,6.33-6.04,27.29-2.26,16.36-4.21,22.5-7.13,22.5-.48,0-1.48-2.62-2.23-5.81h-.01Zm-258.19-4.13c-2.23-2.44-3.43-6.83-2.87-10.52.38-2.51,6.14-20.93,6.95-22.23.11-.17.42-.09.69.18.27.27-.57,4.5-1.88,9.4-1.3,4.9-2.37,9.81-2.37,10.92,0,3.22,2.03,6.43,4.05,6.43s3.1-1.08,4.52-4.95l1.07-2.92.04,3.75c.08,8.72-5.96,14.6-10.21,9.94h.01Zm-129.85-47.14c.37-1.19,7.14-5.81,21.75-14.82,14.12-8.71,27.77-19.07,37.23-28.27l8.02-7.79-1.88-1.26c-13.57-9.12-16.17-14.94-11.17-24.96,3.76-7.52,12.44-13.52,19.59-13.56,7.6-.04,10.78,6.94,8.41,18.44-.67,3.23-1.69,6.79-2.27,7.92-1.66,3.21-1.33,4.05,2.74,6.96l3.8,2.73-3.11,5.78c-1.71,3.18-3.22,5.89-3.35,6.02-.13.13-2.13-1.01-4.44-2.55-2.31-1.54-4.3-2.66-4.42-2.49-6.5,8.99-18.78,21.4-26.76,27.06-5.65,4-19.97,11.63-31.98,17.04-9.8,4.41-12.62,5.28-12.15,3.75h-.01Zm73.67-64.85c1.66-4.33-.52-11.97-3.65-12.75-3.79-.95-9.4,1.31-9.4,3.78,0,1.12,3.99,4.9,8.25,7.8,3.93,2.68,4.19,2.74,4.79,1.16h.01Zm134.33,52.81c-5.97-3.29-8-8.59-7.93-20.68.02-4.44,0-8.99-.06-10.11-.1-2.02,3.26-7.34,4.64-7.34s1.69,4.04.83,9.68c-1.66,10.94-.6,16.25,3.71,18.48,2.76,1.43,4.15,1.36,7.98-.38,4.7-2.13,6.4-5.29,5.87-10.87-.23-2.46-.98-6.44-1.66-8.85-1.01-3.61-1.07-4.9-.34-7.34.49-1.63,1.16-2.97,1.49-2.97,1.13,0,2.3,3.72,3.47,11.05,1.62,10.09,2.33,12.41,4.38,14.34,3.78,3.55,11.75,2.67,11.73-1.29,0-1.08-1.35-4.84-2.99-8.35s-2.99-7.07-2.99-7.93c-.01-2.38,2.21-9.32,2.99-9.32.38,0,.92,1.27,1.2,2.81.28,1.55,1.85,6.17,3.5,10.27,2.55,6.36,2.92,8,2.55,11.14-.77,6.49-5.97,13.3-10.99,14.41-2.93.64-7.29-1.52-9.44-4.68l-1.57-2.3-1.35,2.37c-4.08,7.15-10.36,10.44-15.01,7.87h0Zm-885.34-11.38c-.02-.34,1.96-3.38,4.4-6.75,6.44-8.9,8.64-15.32,6.62-19.25-1.63-3.17-4.01-2.82-7.8,1.13-1.85,1.93-3.48,3.39-3.63,3.24-.15-.15.33-2.02,1.05-4.16,2.78-8.2,8.61-13.52,12.52-11.43,2.45,1.31,3.57,5.27,3.1,11.01-.55,6.88-4.41,14.35-11.03,21.33-2.86,3.02-5.22,5.21-5.24,4.87h.01Zm1037.45-1.27c.19-.63,2.24-3.79,4.56-7.02,4.9-6.84,7.01-12.79,5.99-16.92-.56-2.26-1.01-2.7-3-2.89-1.98-.19-2.83.33-5.55,3.38l-3.21,3.6.48-2.63c.8-4.33,4.44-10.7,7.17-12.54,3.27-2.2,4.93-2.16,7.3.21,1.8,1.8,1.9,2.3,1.65,8.1-.23,5.34-.65,6.96-3.07,11.87-1.82,3.69-4.54,7.49-7.75,10.83-2.72,2.83-4.78,4.64-4.59,4.01h.02Zm-530.28-14.71c-3.46-3.29-3.68-4.24-4.2-18.1-.29-7.69-.17-8.67,1.28-10.82.88-1.3,2.01-2.49,2.51-2.66,1.47-.48,1.93,3.19,1.04,8.3-1.16,6.68-1.03,10.22.48,13.26,2.54,5.08,7.92,5.56,12.62,1.12,2.25-2.12,2.57-2.88,2.57-6.11,0-2.03-.51-5.63-1.13-8.01-1.36-5.24-1.38-7.07-.07-9.43.98-1.76,1.03-1.77,1.8-.32.44.82,1.34,4.67,2,8.56,1.59,9.37,2.38,11.63,4.67,13.44,2.17,1.7,7.61,2.07,9.07.61,1.42-1.42,1.09-3.03-1.82-9.17-2.86-6.03-3.1-9.13-1.09-14.22,1.04-2.63,1.48-2.29,2.42,1.88.4,1.76,1.75,5.56,3.02,8.43,1.88,4.28,2.24,5.95,1.97,9.2-.67,8.05-7.4,14.95-12.76,13.08-1.33-.46-3.5-1.89-4.81-3.16l-2.39-2.31-1.12,2.15c-2.13,4.08-5.38,6.46-9.35,6.84-3.44.33-3.86.17-6.71-2.55h0Zm-97.32-1.47c-2.6-2.81-3.63-6.6-3.12-11.48.39-3.71,7.15-24.97,8.3-26.13,1.07-1.07.28,3.77-1.8,11.05-3.62,12.67-2.8,20.25,2.2,20.25,1.81,0,4.29-3.08,4.96-6.16.43-1.94.63-2.13,1.21-1.09.91,1.63-.45,9.11-2.13,11.69-2.82,4.34-6.64,5.07-9.62,1.86h0Zm285.11-4.81c-2.11-2.5-3.16-7.5-2.39-11.36.27-1.38,2.08-7.23,4.01-13.01,4.11-12.27,5.26-11.25,1.68,1.49-2.47,8.81-2.77,12-1.41,14.99,1.93,4.23,6.86,2.75,7.82-2.34.81-4.33,2.06-2.95,1.52,1.67-1.13,9.64-6.73,13.9-11.23,8.56h0Zm-353.56-27.9c.16-.49,3.65-2.74,7.75-4.99,28.55-15.68,61.21-39.17,70.16-50.46l2.23-2.82-5.14-1.53c-2.95-.88-5.87-2.3-6.84-3.34-3.24-3.44-2.78-11.23,1.14-19.66,2.16-4.64,2.17-4.8.26-4.8-2.04,0-2.55-1.63-1.5-4.8,1.59-4.83,3.46-6.45,7.39-6.44,7.64.03,19.81,5.98,25.26,12.36,6.22,7.27,8.18,13.96,6.78,23.25-1.19,7.91-7.68,10.04-20.66,6.78-1.7-.43-2.19.06-5.25,5.28-9.45,16.1-45.41,41.32-70.99,49.79-7.25,2.4-11.1,2.9-10.59,1.37h0Zm103.9-65.73c1.38-.88-3.81-8.61-8.77-13.06-2.18-1.96-4.2-3.56-4.49-3.56s-.51,1.94-.48,4.31-.23,5.72-.57,7.43l-.62,3.12,3.99.81c6.64,1.34,6.94,1.4,8.49,1.47.83.04,1.93-.2,2.45-.53h0Zm-18.72-5.5c.34-2.9-1.2-7.96-2.93-9.7-2.02-2.02-4.04-1.34-7.98,2.72-4.39,4.51-4.24,6.03.75,7.42,8.63,2.41,9.85,2.36,10.17-.44h-.01Zm464,59.04c-2.95-3.13-4.47-8.7-3.88-14.18.46-4.23,9.55-32.67,10.46-32.71,1.12-.05.51,3.62-2.1,12.77-3.44,12.05-4.1,20.28-1.9,23.76,1.17,1.84,2.08,2.44,3.73,2.44,2.71,0,5.8-3.4,6.51-7.16.78-4.15,1.82-3.81,1.82.6,0,13.13-8.23,21.26-14.64,14.47h0Zm-367.98-2.28c-.27-.28-.32-2.92-.1-5.88.84-11.44-3.1-21.64-11.97-30.98l-5.28-5.56.96-5.39.96-5.39,4.65,4.91c5.55,5.85,8.58,10.95,11.35,19.04,1.78,5.21,2.04,7.14,2.01,14.63-.03,8.12-1.39,15.82-2.58,14.63h0Zm-548.13-1.08c0-.96,3.05-3.02,10.13-6.82,10.32-5.54,21.88-12.65,28.31-17.4,7.15-5.28,17.39-15.2,16.75-16.23-.24-.38-2.08-1.09-4.09-1.58-2.01-.48-4.8-1.83-6.19-3-2.47-2.07-2.53-2.25-2.46-7.64.07-5.3.34-6.26,4.53-16.11.2-.46-.5-1.06-1.56-1.33-2.22-.56-2.37-1.67-.77-5.51,1.85-4.44,3.16-5.44,7.03-5.42,7.7.04,19.69,5.92,25.2,12.36,5.73,6.69,6.74,9.42,6.74,18.13s-1.08,11.24-6.45,12.81c-3.16.93-6.31.72-14.93-.98-1.65-.33-2.18.18-4.5,4.34-3.25,5.83-12.16,14.88-19.12,19.43-6.49,4.24-19.43,10.22-28.82,13.32-7.32,2.42-9.81,2.83-9.81,1.63h0Zm79.72-47.94c1.21-.48,1.05-.98-1.57-5.01-2.92-4.49-9.9-11.6-11.38-11.6-.5,0-.62,1.07-.33,2.88.25,1.59.06,4.82-.43,7.18-.49,2.37-.72,4.47-.52,4.68.35.35,10.52,2.35,12.13,2.38.41,0,1.36-.22,2.09-.52h0Zm-18.61-5.3c.97-4.42-2.23-11.31-5.25-11.31-1.49,0-7.66,5.7-8.28,7.65-.69,2.17.89,3.39,6.05,4.63,6.5,1.57,6.94,1.52,7.48-.98h0Zm157.93,42.42c.05-13.4-.98-19-4.95-26.89-3.3-6.57-7.6-12.2-14.59-19.08l-5.44-5.35,1.34-7.6c.73-4.18,1.6-7.51,1.93-7.39s2.41,1.97,4.64,4.11c10.3,9.94,17.39,22.83,20.44,37.21,1.91,8.97,1.37,24.11-1.19,33.63-1.53,5.68-2.21,2.95-2.17-8.64h0Zm491.07-7.78c-8.93-6.06-9.64-19.84-2.08-39.96,1.32-3.51,3.51-9.75,4.88-13.87,2.46-7.44,3.91-9.17,3.48-4.12-.12,1.44-1.72,8.19-3.55,15s-3.54,14.23-3.79,16.5c-.84,7.43,2.36,14.25,6.68,14.25,3.84,0,8.7-6.36,8.74-11.44.03-3.04,1.25-2.51,1.78.78,1.11,6.95-2.71,18.84-7.05,21.94-3.13,2.23-6.65,2.59-9.09.93h0Zm-705.08-17.46c-2.96-2.33-4.57-7.39-4.08-12.83.41-4.56,7.9-27.66,8.96-27.66.73,0,.07,3.33-2.51,12.69-3.2,11.59-2.72,19.01,1.28,20.01,2.67.67,4.59-.9,6.28-5.14l1.57-3.94-.28,5.25c-.33,6.13-2.42,10.89-5.36,12.23-2.71,1.23-3.64,1.14-5.86-.61h0Zm371.46-4.87c0-.27,2.01-3.27,4.47-6.65,5.11-7.03,7.36-11.68,7.94-16.34.84-6.81-3.3-9.41-8.18-5.13-1.47,1.29-2.87,2.99-3.13,3.79-.73,2.3-2.1,1.75-1.51-.61,2.5-10.13,9.85-17.76,14.65-15.19,5.11,2.73,4.75,14.34-.77,24.69-3.42,6.42-13.47,17.93-13.47,15.44h0Zm-93.57-4.31c-4.71-5.03-4.38-10.17,1.82-27.94,3.42-9.81,4.43-8.19,1.45,2.34-3.45,12.2-3.46,16.51-.04,18.75,1.69,1.11,1.99,1.11,3.69,0,1.06-.69,2.25-2.57,2.8-4.4l.95-3.19.24,3.14c.73,9.48-6.04,16.49-10.91,11.29h0Zm220.45-8.09c1.38-4.09,1.87-4.69,5.01-6.27,4.21-2.1,58.04-22.96,59.25-22.96s1.09.51-.53,4.78l-1.39,3.65-28.56,11.06c-15.71,6.08-29.78,11.78-31.28,12.66s-3.01,1.6-3.38,1.6.03-2.04.87-4.53h.01Zm381.09,2.56c.79-3.89,2.75-7.71,4.41-8.6,3.26-1.74,60.9-23.91,61.25-23.55.2.2-.25,2.19-1.01,4.41l-1.37,4.04-28.56,11.04c-15.71,6.07-30.05,11.89-31.86,12.93l-3.3,1.89.44-2.16h0Zm-304.08,380.45c.26.72,1.68,5.55,3.16,10.73,3.19,11.18,9.49,24.58,14.22,30.24l3.4,4.07,1.89-2.33c1.57-1.94,2.54-2.22,5.85-1.66,5.13.87,11.55,4.53,14.2,8.1,2.01,2.71,2.02,3.01.36,7.33-.95,2.48-2.7,6.09-3.89,8.04-2.03,3.32-2.44,3.5-6.75,3.01-10.19-1.15-19.84-10.38-27.64-26.44-2.24-4.61-4.91-11.2-5.94-14.66-1.03-3.45-2.18-6.65-2.55-7.1-.37-.45-1.49,4.97-2.48,12.04-2.73,19.49-4.65,27.92-7.99,35.14-3.5,7.59-7.48,10.21-12.72,8.38-3.55-1.24-12.38-10.78-12.38-13.37,0-1.02.97-4.04,2.16-6.73l2.16-4.88,3.2,2.69c12.73,10.71,16.84,6.46,20.31-20.94,2.68-21.21,6.27-32.98,10.06-32.98.5,0,1.13.59,1.39,1.31h-.02Z"/></g></svg>