<svg xmlns="http://www.w3.org/2000/svg" width="452" height="170" viewBox="0 0 452 170"><path d="M95.5 37.8C21.7 53.2 5 65.2 5 79.1c0 21.8 22.1 26.7 30.3 26.7 37.3 0 47.4-31.8 47.6-32.4.8-2.5.8-2.8-1-4.5-3.6-3.3-4.8-4.2-3.6-5.4 1.3-1.4 2-3 3.3-4.5 1.2-1.5 3.6-1.5 3.5.6-.1 6.5 5.6 2.7 4.3 6.3-5.3 14-12.4 22.8-19 31.2-10.5 13.5-29.5 15.2-39 15.2C14.5 112.3 0 101.1 0 84.5 0 50.7 55.6 39 136.2 22.3c61-12.6 202-22.3 274-22.3C440 0 453.4 1.2 452 3c-2.3 3-4.7 6.1-7 7.5-2.8 1.8-16 0-40.3 0-82.6 0-229 10.7-309 27.3ZM143.2 87c2.3 0 6 1.2 6 5.3 0 .5-.4 6.3-11 14-7 5.2-13.5 7.8-20.4 8.3-7.7.6-13.8 2.4-18.3 4.3-15.4 6.2-29.4 24.5-43 24.5-3 0-5-1.1-5-4.3 0 0 0-5 5.2-14.8.4-.8 1.1-1.7 2-1.2.6.3.2 1 0 1.4a36 36 0 0 0-2 8.9c0 3.5 2.2 3 3.5 3 8.8 0 17.5-12.5 35.2-21a92 92 0 0 1 27.2-8.1c8-1.3 15.2-3.3 20.3-9.4 1.5-1.8 0-4-3-4-10.6 0-23 27.2-23 30.2 0 .9-2.3 13 15.1 13a53.2 53.2 0 0 0 38.1-20.7c.3-.4 6.5-9.7 11.3-16.3 1.3-1.8 4.1-4.7 5.7-7 1.5-2.4-1.6-1.1-3.7-2.5-1.2-.8-1.3-1.5-.6-2.7 2-3.2 3.4-6.3 6.3-4.2 1 .8 1.9 1.8 2.5 2.8 1.6 2.5 1 2 .5 5.2-.3 1.7-.7 3.3-2.3 4.4-6 4.4-15.8 18.8-18.4 22-2.9 3.5-3.2 6.4-9.7 12.9a46.8 46.8 0 0 1-32.8 14.1c-10.3-.3-18.2-3.4-18.2-14.4 0-11.8 17.1-43.7 32.5-43.7Zm105.6 12.8c0 3.1 6.4 4 6.4 5.2 0 1-5.2 2.4-15.2 11.1-3 2.7-11.4 11.7-11.4 18.4 0 4.1 1.7 8.3 1.7 10.4 0 1.6-5.5 7.4-7.7 7.4-1.7 0-2.9-5.2-2.9-11.3 0-6.3-1.1-17.5-7-17.5-3.3 0-7.5 2.9-10.2 6a629.8 629.8 0 0 1-33.5 30c-1.7 1.5-3.4 2.7-4.9 2.7-2.2 0-3.5-3-3.5-4.9 0-2 1.1-3.7 1.1-6.7 0-.6-.3-1-.8-1-1 0-1.4 1.3-3.2 5.2-1.7 3.8-2.2 5.4-2.2 7.3 0 4.2.7 7.9 5.7 7.9 2.7 0 6-1.3 9.8-5.2 8.8-9 24.5-20.6 28.6-26.6 2.3-3.3 6.2-6.6 9.2-6.6 5 0 5 12.5 5 19.6 0 3.8 3.4 10.4 6 10.4 2 0 9-8.9 9.2-9.1 2.1-1.8 8.5-9.3 8.5-12.7 0-4.9-2-10-2-10.5 0-6.5 28-24 28.6-25.3 2.2-4.4 6-7.3 6-9.5 0-3.6-7.7-3.1-9.8-3.1-7.5 0-11.5 6.3-11.5 8.4Zm47.4 29.6c-5.6 4.2-12 10.6-17.6 15.8-9.8 9-18 16.3-22.3 16.3-3.3 0-3.3-.2-4 2.4-1 3-1 2.9 3.5 2.9 8.7 0 14-7 23.5-16.5 7.8-7.9 19.1-18.3 26.7-18.3 3.6 0 4.4 1.5 6.4 1.5 2.1 0 5-.5 7-1 2.5-1 6-6.4 6-8.5 0-1-.5-3.5-1-4.7-4.4-12.9-3.3-10.6-3.9-13-.4-2-1-2.6-1.8-2.6-2.1 0-5 3.8-5.8 4.5-1 1-1.4 2-1.4 3.2 0 3.8 3.8 13.9 3.8 14.3-3.9.5-7.3 0-8.8 0-4 0-7 1.2-10.3 3.7Zm65.2 5.3c0 7.1-2.8 12.5-7 16.8a32.5 32.5 0 0 1-20.2 8.4c-3.2.3-5.2 2.3-2.7 3.5 1.7.8 3 1.4 4.9 1.4 2.3 0 5-.5 10.9-3.1 7.2-3.2 6-.6 16.8-16.5 2-3.2 4.4-7.2 5.5-9.8 1.2-3 1.8-4.5 1.8-7 0-.7 0-11.2-5.2-11.2a4 4 0 0 0-3.5 2.2c-.6 1-2.5 2.8-2.5 5.8 0 2 1.2 4.4 1.2 9.5Zm22-94.2c-1.2-.4-2.4-.5-3.6-.5-.5 0-6.2-2.5-37.1 27a558.2 558.2 0 0 0-32 34.7c-2.2 3-.6 3.7.9 3 3.9-1.8 22-25.1 36-39.2 9-9 27-20.7 30.3-20.6 5.2.4 8.2-3.6 5.5-4.4Z" fill="#000"/></svg>