<svg xmlns="http://www.w3.org/2000/svg" xmlns:xlink="http://www.w3.org/1999/xlink" width="679.6" height="722.9" viewBox="0 0 179.8 191.3"><defs><linearGradient id="A" gradientUnits="userSpaceOnUse"><stop stop-color="#dcba61" offset="0"/><stop stop-color="#fef6ae" offset=".17"/><stop stop-color="#cba244" offset=".5"/><stop stop-color="#fef7b1" offset=".85"/><stop stop-color="#dec069" offset="1"/></linearGradient><linearGradient id="B" x1="283.4" x2="299.5" y1="218.6" y2="204.7" xlink:href="#A"/><linearGradient id="C" x1="270.9" x2="284.7" y1="223.4" y2="197.1" xlink:href="#A"/><linearGradient id="D" x1="248.8" x2="268.1" y1="198.6" y2="181.7" xlink:href="#A"/><linearGradient id="E" x1="261.7" x2="283.8" y1="201.7" y2="189.8" xlink:href="#A"/><linearGradient id="F" x1="246.6" x2="267.7" y1="166.2" y2="166" xlink:href="#A"/><linearGradient id="G" x1="235.5" x2="262.8" y1="165.3" y2="158.3" xlink:href="#A"/><linearGradient id="H" x1="247.1" x2="270.9" y1="134.6" y2="143.9" xlink:href="#A"/><linearGradient id="I" x1="236.8" x2="265.7" y1="128.8" y2="130.1" xlink:href="#A"/><linearGradient id="J" x1="252.4" x2="277.8" y1="103.3" y2="114.2" xlink:href="#A"/><linearGradient id="K" x1="259.3" x2="275.9" y1="111" y2="129.7" xlink:href="#A"/><linearGradient id="L" x1="271.6" x2="287.7" y1="88.92" y2="106.3" xlink:href="#A"/><linearGradient id="M" x1="130.3" x2="619.7" y1="532.4" y2="532.4" xlink:href="#A"/><linearGradient id="N" x1="-1.88" x2="371.5" y1="306.6" y2="306.6" xlink:href="#A"/><linearGradient id="O" x1="272.9" x2="646.3" y1="306.6" y2="306.6" xlink:href="#A"/><linearGradient id="P" x1="267.8" x2="641.2" y1="306.6" y2="306.6" xlink:href="#A"/><linearGradient id="Q" x1="634.5" x2="1008" y1="306.6" y2="306.6" xlink:href="#A"/><linearGradient id="R" x1="102.7" x2="136.1" y1="237.9" y2="237.9" xlink:href="#A"/><path id="S" d="M293.6 228c-1.99-19.86-13.61-20.23-22.11-29.48.25 11.52 7 21.49 22.11 29.48z"/><path id="T" d="M293.6 228c-31.55.75-40.9-18.65-44.7-25.23 13.43 8.17 30.19 13.24 44.7 25.23z"/><path id="U" d="M266 211.5c-29.3-11.7-30.19-33.41-31.1-40.95 8.06 10.12 18.7 20.88 27.94 34.08 11.69 9.54 12.35 12.06 3.16 6.88z"/><path id="V" d="M278.9 218c-2.24-2.47-7.69-14.22-12.38-24.18-2.95-6.26-6.93-7.57-10.04-16.37-6.84 13.04 5.91 31.21 22.41 40.56z"/><path id="W" d="M250.7 147c-7.64 13.45-11.36 27.93 5.43 47.8-.86-4.94-3.11-4.3-1.65-20.82.5-5.68-3.71-10.86-3.77-26.98z"/><path id="X" d="M232.9 136.4c-.33 14.47-10.82 20.66 16.93 51.17-6.99-8.7-4.25-19.62-7.48-29.09-2.58-7.58-6.65-14.56-9.46-22.08z"/><path id="Y" d="M243.8 162.4c-4.09-19.51.79-32.87 14.41-39.66-.39 13.14-10.85 24.7-14.41 39.66z"/><path id="Z" d="M243.1 106.4c-4.79 13.66-16.68 16.29.24 53.9-3.95-10.44 2.04-19.97 1.91-29.98-.1-8-1.81-15.9-2.15-23.92z"/><path id="a" d="M267.5 85.04c-10.2 10.38-24.12 7.78-21.94 49.44.77-11.13 9.88-17.58 13.89-26.81 3.19-7.34 5-15.2 8.05-22.63z"/><path id="b" d="M245.9 133.2c5.61-19.42 19.35-31.08 27.91-32.18-3.27 20.74-21.37 19.5-27.91 32.18z"/><path id="c" d="m288.9 77.51c-12.45 4.32-23.14 13.37-30.12 32.37 10.96-11.29 28.07-16.89 30.12-32.37z"/><path id="d" d="M-2349-2112c0 32.42-6.09 55.08-18.26 67.97-1.5 1.56-3.45 2.34-5.86 2.34h-45.8c-5.4 0-8.11-2.21-8.11-6.64 0-2.41 1.17-4.17 3.52-5.27 8.4-3.97 18.52-9.67 30.37-17.09 16.02-10.03 24.15-17.02 24.41-21-13.28 0-21.91-.78-25.88-2.34-8.66-3.39-12.99-11.33-12.99-23.83a89.3 89.3 0 0 1 5.66-31.93c5.21-13.74 12.89-20.6 23.05-20.61 11.33 0 19.53 7.42 24.61 22.27 3.51 10.22 5.27 22.27 5.27 36.13zm-20.51-17.09c0-2.08-1.53-4.07-4.59-5.96-2.8-1.69-5.34-2.54-7.62-2.54-6.05 0-9.08 2.25-9.08 6.74 0 2.47 3.68 3.71 11.04 3.71 6.84 0 10.25-.65 10.25-1.95z"/><path id="e" d="M-2415-2127c0 5.73-.88 12.99-2.64 21.78-1.82 9.24-3.84 16.24-6.05 21-2.73 5.73-5.31 8.59-7.72 8.59-2.6 0-4.85-3.48-6.74-10.45-2.67-9.83-8.33-43.72-16.99-101.7l29.49-32.13c1.82-2.02 3.06-3.03 3.71-3.03.52 0 .98.91 1.37 2.73 2.86 12.96 4.62 28.42 5.27 46.39.2 5.47.29 21.06.29 46.78z"/></defs><g transform="translate(-29.53 -64.53)"><path d="M124.4 64.54h0c-1.33-.03-2.65.28-3.83.89-.77-.11-1.56-.11-2.33 0-3.97-2.06-8.86-.43-10.8 3.6-.14.3-.11.63-.22.94a23.3 23.3 0 0 0-13.68 14.7c-.16.04-.31.09-.46.14-5.21 1.81-10.28 4.5-14.98 8.13-3.12-1.76-7.03-1.21-9.55 1.34a23 23 0 0 1-2.2 1.95c-.8.63-1.68 1.26-2.65 1.92l-2.04 1.4c-1.07.74-2.22 1.55-3.4 2.48a39.1 39.1 0 0 0-1.8 1.51 34.5 34.5 0 0 0-1.21 1.13 31.4 31.4 0 0 0-2.95 3.33l-.56.76h0c-.97 1.35-1.84 2.9-2.65 4.53-3.09.28-5.73 2.34-6.77 5.27-.09.26-.19.53-.31.82h0l-.03.07v.01c.01-.03-.03.06-.12.3h0l-.25.6-.16.34-.26.56-.16.33h0l-.29.57-.18.34-.33.62-.13.24h0l-.38.69h0l-.9 1.61-.51.92-.12.22-.46.86-.13.26-.47.91h0l-.13.26-.46.95h0l-.13.3a34.5 34.5 0 0 0-3.02 16.03c-1.05 1.34-1.64 2.99-1.68 4.7a19.2 19.2 0 0 1-.02.5v.05l-.02.44h0a28 28 0 0 1-.2 1.99 46.3 46.3 0 0 1-.34 2.07c-.46 2.5-1.17 5.38-1.49 8.93-.05.51-.08 1.03-.11 1.56v.01l-.03.79-.01.8a30.9 30.9 0 0 0 .05 1.73l.06.88c.35 4.16 1.73 8.69 4.18 13.67-.07.61-.07 1.23 0 1.85l.15 1.34h0l.05.38.19 1.64.05.42.07.56h0l.08.57.09.59h0l.09.6.12.68.1.58h0l.14.71.13.65.15.69.16.72.17.69.39 1.47h0l.2.71.25.82h0l.22.71.46 1.34.03.1v.01l.55 1.46c.01.02.01.03.02.05l.01.03a48.1 48.1 0 0 0 1.72 3.83c-.02-.04-.01-.02.04.08l.34.66h0c-.01-.01.02.04.08.15l.35.65.1.18h0l.37.64.1.18.39.66h0l.09.15h0l.43.69.07.11h0l.47.72.01.02.02.03c.92 1.38 1.91 2.72 2.96 3.99l.6.72c-.01-.01.02.02.09.1l.01.01.59.67.13.15h0l.63.69h0l.09.09h0l.64.66h0l.01.01c.18.66.44 1.29.78 1.88 1.01 1.75 3.05 5.66 6.32 9.84l.45.56a49.9 49.9 0 0 0 4.14 4.56 47.9 47.9 0 0 0 1.38 1.28l.72.64a47.5 47.5 0 0 0 2.32 1.87h0l.35.26c.41.3.85.62 1.32.95 4.6 3.18 10.32 5.9 17.22 7.53l1.31.29h0a60.9 60.9 0 0 0 2.69.51l1.39.22a67.2 67.2 0 0 0 4.34.48l1.5.1a79 79 0 0 0 5 .08c.34.87 1.08 1.95 2.97 3.37a8.6 8.6 0 0 0 4.85 1.63c1.03 0 1.98-.25 2.83-.57l-.18-.08c.05.02.06 0 .11.02.04.01.04.03.08.05l.06-.02c1.19.46 2.31.61 2.94.61 1.43 0 2.58-.42 3.58-.94.07.03.12.09.19.12 1.17.51 2.44.77 3.72.77a10.3 10.3 0 0 0 .9-.04c.03 0 .06-.01.1-.02.17.03.17.03 0 0 .01 0 .02 0 .03-.01a7.7 7.7 0 0 0 .4.07l.63.03c.23.02.43.07.67.07 1.04 0 2.07-.18 3.05-.52h0c.16-.06.27-.16.43-.23.89.39 1.88.69 3.08.69a7.7 7.7 0 0 0 6.65-3.53c.54-.79.64-1.17.79-1.57a7.9 7.9 0 0 0 1.14.11c15.24.36 26.7-3.68 34.75-9.23.57-.39 1.12-.79 1.67-1.21h0l.8-.62.77-.62a47.4 47.4 0 0 0 1.47-1.27c.47-.42.93-.85 1.38-1.28a48.3 48.3 0 0 0 3.93-4.38c.24-.23.46-.48.67-.75 3.27-4.18 5.3-8.08 6.32-9.84.34-.59.6-1.22.77-1.87l.01-.01h0l.62-.64h0l.15-.16h.01l.61-.66h0l.1-.12h0l.47-.53c.31-.32.36-.41.18-.21l.01-.01c1.5-1.74 2.86-3.58 4.1-5.52-.06.09-.02.05-.12.19a8 8 0 0 0 .17-.26c0-.01.01-.01.01-.02s.01-.02.02-.03l.45-.72h0c-.01.01.01-.02.06-.1h0l.4-.68.1-.17h0l.37-.65h0l.1-.17h0l.29-.53c.15-.27.16-.29.12-.22v-.02l.38-.72c.01-.02.01-.02.01-.03a48.5 48.5 0 0 0 2.32-5.41l.03-.08.46-1.34.24-.78.24-.78h0l.2-.71h0l.39-1.49h0l.16-.66h0l.16-.72h0l.15-.69h0l.13-.69h0l.12-.64h0l.12-.66h0l.1-.62h0l.1-.6v-.01l.09-.61h0l.07-.52h0l.08-.59h0l.06-.46h0l.16-1.33.22-1.98c.07-.61.07-1.23 0-1.85 2.45-4.98 3.83-9.52 4.18-13.67h0a32 32 0 0 0 .11-2.57v-.03-.78c-.1-4.65-1.07-8.28-1.62-11.32l-.18-1.04v-.01c-.2-1.21-.34-2.34-.39-3.5h0l-.02-.49c-.01-.12-.02-.24-.03-.36v-.22l-.02-.11a7.3 7.3 0 0 0-.06-.39l-.07-.39a7.9 7.9 0 0 0-.1-.4 7.8 7.8 0 0 0-.1-.37 8 8 0 0 0-.14-.39 8 8 0 0 0-.14-.35 7.9 7.9 0 0 0-.18-.38 7.9 7.9 0 0 0-.17-.33 7.9 7.9 0 0 0-.21-.34 7.6 7.6 0 0 0-.23-.35 7.8 7.8 0 0 0-.21-.27l-.03-.04h0a34.5 34.5 0 0 0-3.03-16.05h0a8.1 8.1 0 0 0-.13-.28h0l-.44-.91h0l-.16-.32h0l-.44-.86v-.01l-.15-.28h0l-.48-.89v.01l-.1-.18h0l-.52-.94h0l-.9-1.61h0l-.36-.65h0l-.16-.3-.31-.58h0l-.19-.36-.28-.55h0l-.17-.34-.26-.57-.15-.32h0l-.25-.59h0l-.13-.31h0c.03.08.02.05-.03-.07h0c-.1-.26-.2-.52-.29-.78l-.02-.04-.03-.07-.05-.13-.01.01-.06-.14c.01.02.04.09.04.09a7.7 7.7 0 0 0-.1-.24 7.8 7.8 0 0 0-.13-.31l-.03-.06-.11-.2-.04-.07-.06-.1-.1-.2-.03-.05a7.1 7.1 0 0 0-.27-.4c-.06-.09-.12-.18-.19-.27a8 8 0 0 0-.32-.39l-.17-.2c-.12-.13-.25-.25-.38-.37a8 8 0 0 0-.2-.19 7.7 7.7 0 0 0-.38-.31c-.08-.06-.15-.12-.23-.18-.16-.12-.33-.22-.5-.33l-.14-.09a7.9 7.9 0 0 0-.52-.27c-.07-.04-.14-.07-.21-.11-.17-.07-.33-.14-.5-.2a6.4 6.4 0 0 0-.23-.09 8 8 0 0 0-.41-.13h0l-.2-.05a8.2 8.2 0 0 0-.25-.06 7.4 7.4 0 0 0-.55-.1l-.21-.03a6.4 6.4 0 0 0-.19-.02 32.6 32.6 0 0 0-2.64-4.53 29.7 29.7 0 0 0-.56-.75h0c-.94-1.23-1.94-2.34-2.95-3.33h0c-.39-.39-.8-.76-1.21-1.13h0l-.6-.53c-1.61-1.37-3.18-2.48-4.6-3.47l-2.03-1.4c-.96-.67-1.84-1.29-2.65-1.93-.53-.42-1.03-.84-1.51-1.28l-.35-.33-.34-.34c-1.49-1.52-3.53-2.37-5.66-2.37h0c-1.36 0-2.7.35-3.89 1.02a51.1 51.1 0 0 0-8.33-5.32l-1.31-.64c-1.76-.82-3.54-1.53-5.33-2.16-.15-.05-.31-.09-.46-.14a23.3 23.3 0 0 0-13.68-14.7c-.11-.31-.08-.64-.22-.94-1.29-2.69-3.99-4.43-6.98-4.49zm72.53 56.47c0 .06 0 .12 0 .18h-.01zm10.16 30.23h.01v.18c0-.02 0-.12-.01-.18zm-99.61 102.4c.02.01.02.01.02.02zm10.25.46c.01.01.02.02.03.03l-.04-.03zm3.43 1.48c.03.01.06 0 .09.01l.15.03a8.9 8.9 0 0 1-.11-.01c-.04-.01-.02 0-.07-.01zm.3.03c.1.02.2.03.31.04l-.34-.03c.01 0 .02-.01.03-.01zm1.02.1l.49.02-.19.01-.3-.03z" paint-order="stroke fill markers"/><g transform="translate(-193.2 14.39)"><g id="f" stroke="#000" stroke-width=".27"><use fill="url(#B)" xlink:href="#S"/><use fill="url(#C)" xlink:href="#T"/><use fill="url(#D)" xlink:href="#U"/><use fill="url(#E)" xlink:href="#V"/><use fill="url(#F)" xlink:href="#W"/><use fill="url(#G)" xlink:href="#X"/><use fill="url(#H)" xlink:href="#Y"/><use fill="url(#I)" xlink:href="#Z"/><use fill="url(#J)" xlink:href="#a"/><use fill="url(#K)" xlink:href="#b"/><use fill="url(#L)" xlink:href="#c"/></g><use transform="matrix(-1 0 0 1 625.3 0)" xlink:href="#f"/></g><g transform="matrix(.0912 0 0 .0912 100.4 72.08)" fill="url(#M)"><path d="m296.7 47.67s156 122 41.33 297.3c108-66 117.3-247.5-41.33-297.3z"/><path d="M208.9 30.33c-24.83 28-67.5.17-52.83-30.33 25.67 46 52.83 8.83 52.83 8.83S236.07 46 261.73 0c14.67 30.5-28 58.33-52.83 30.33z"/><path d="M208.9 410.3l-17.83-23.33s-42 14-97.33-5.33c45.33 0 70.67-8 80-12.67 0 0-102.7-55.33-100.7-168 6-114 66.67-148.7 66.67-148.7s-108 157.3 50.67 288.8l-7-162.7V58.87c9-2.17 25.5-21.17 25.5-21.17s16.5 19 25.5 21.17v119.5l-7 162.7c158.7-131.5 50.66-288.8 50.66-288.8s60.67 34.67 66.67 148.7c2 112.7-100.7 168-100.7 168 9.33 4.67 34.67 12.67 80 12.67-55.33 19.33-97.33 5.33-97.33 5.33l-17.83 23.33z"/><path d="m121 47.67s-156 122-41.33 297.3c-108-66-117.3-247.5 41.33-297.3z"/></g><g transform="matrix(.1936 0 0 .1936 78.9 110.1)"><path d="M211.66 16.93l-2.38.17c0 .04.01.08.01.12v.06c.55 4.73-2.16 7.43-4 11.19-.92 1.88-1.55 4.07-1.08 6.64s1.97 5.45 4.99 8.98l1.68-1.43.6.73c2.7-2.22 4.18-4.39 4.73-6.59s.15-4.32-.55-6.37c-1.39-4.09-3.89-8.11-3.98-13.37 0-.05 0-.08-.01-.13zm-1.12 6.91c.93 2.8 2.12 5.23 2.84 7.36.63 1.84.9 3.43.5 5.02-.39 1.55-1.46 3.22-3.77 5.17-2.17-2.76-3.23-4.96-3.55-6.7-.36-1.99.08-3.52.88-5.16.84-1.72 2.14-3.53 3.1-5.69z" fill="url(#N)"/><g transform="matrix(.2073 -.1197 .1197 .2073 1066 248.4)"><g fill="url(#N)"><use xlink:href="#d"/><use xlink:href="#e"/><path d="M-2447-2133l-4.36 18.46c-2.91 12.37-4.85 18.62-5.82 18.75-3.03.46-7.97.72-14.82.78-6.97.07-11.97-.2-15-.78-3.27 3.06-9.03 5.76-17.27 8.11-7.33 2.08-13.39 3.13-18.18 3.13h-6.54v-44.34h6.54c3.33 0 5.7-.72 7.09-2.15-4.24-4.36-6.36-8.14-6.36-11.33 0-11.39 4-21.84 12-31.35 8.24-9.76 17.6-14.65 28.08-14.65 7.45 0 14.18 2.96 20.18 8.89a42.7 42.7 0 0 1 10.82 18.07c.42 1.43.64 2.86.64 4.3 0 3.91-1.03 5.86-3.09 5.86-2.42 0-6.3-.68-11.63-2.05s-9.39-2.05-12.18-2.05c-5.51 0-10.94.88-16.27 2.64-6.42 2.08-9.63 4.88-9.63 8.4 0 3.65 3.48 6.28 10.45 7.91a62.4 62.4 0 0 0 14 1.47c8 0 17.45-1.01 28.36-3.03 2.48-.46 3.73-.1 3.73 1.07a25 25 0 0 1-.73 3.91z"/><path d="M-2524-2084h-7.91c-11.57 0-21.06-8.07-28.45-24.22-5.15 9.9-9.94 16.76-14.36 20.61-5.33 4.62-12.12 6.93-20.36 6.93-18.54 0-27.81-11.69-27.81-35.06 0-4.95.67-10.29 2-16.02 1.82-7.88 4.33-11.82 7.54-11.82 3.33 0 5.51 1.79 6.54 5.37 1.76 5.99 2.85 9.31 3.27 9.96 2.42 3.58 6.85 5.37 13.27 5.37a41.6 41.6 0 0 0 12.82-2.05c5.21-1.69 7.82-3.71 7.82-6.05 0-.39-.09-.81-.27-1.27l-15.09-38.77 20.18-21.88c.97-1.04 1.7-1.56 2.18-1.56.42 0 .91.78 1.45 2.34l17.09 50.49c2.97 8.85 7.39 13.28 13.27 13.28h6.82z"/><path d="M-2727-2194c.7 1.76 1.05 3.16 1.05 4.2 0 1.43-.85 2.15-2.55 2.15-1.46 0-3.83-.55-7.11-1.66l2.11 60.16c.59 16.54-2.22 28.84-8.42 36.91-4.8 6.25-10.94 9.38-18.43 9.38h-15.27v-44.34h5.09c4.45 0 7.55-.32 9.3-.98 2.87-1.04 4.3-3.29 4.3-6.74 0-5.34-1.23-15.33-3.69-29.98a550 550 0 0 0-8.6-41.99l22.03-21.68c1.99-1.95 3.3-2.93 3.95-2.93.7 0 1.67 1.5 2.9 4.49z"/><path d="M-2771-2083h-14.3c3.04 7.1 4.56 12.53 4.56 16.31 0 6.05-1.51 10.84-4.52 14.36s-7.21 5.27-12.59 5.27c-9.18 0-17.2-4.53-24.04-13.57-5.44-7.23-8.72-14.68-9.83-22.36h-11.85v-44.34h12.9c.94-7.88 4.74-16.08 11.41-24.61 7.61-9.7 15.56-14.55 23.87-14.55 4.45 0 8.22 1.72 11.32 5.18s4.65 7.62 4.65 12.5c0 7.1-2.16 14.26-6.49 21.48h14.92zm-25.1-51.56c0-3.84-2.46-5.76-7.37-5.76-5.03 0-9.92 4.72-14.66 14.16h14.66c1.99 0 3.72-.85 5.18-2.54a8.7 8.7 0 0 0 2.19-5.86zm-.7 58.98c0-2.15-.75-4.1-2.24-5.86s-3.2-2.64-5.13-2.64h-14.57c4.74 9.38 9.59 14.06 14.57 14.06 4.91 0 7.37-1.86 7.37-5.57z"/><path d="M-2838-2083h-5c-2.22 0-3.74-.78-4.56-2.34 0 7.36-1.17 13.41-3.51 18.16-2.93 5.99-7.43 8.98-13.51 8.98-8.19 0-14.77-4.91-19.74-14.75-3.98-7.88-6.52-17.84-7.63-29.88-.7-.32-1.4-.49-2.11-.49-1.87 0-3.48.91-4.83 2.73s-2.02 3.81-2.02 5.96v34.67c0 2.28-.76 6.28-2.28 12.01s-2.84 9.47-3.95 11.23c-2.22 3.45-4.8 5.18-7.72 5.18-1.99 0-3.54-1.69-4.65-5.08a25.3 25.3 0 0 1-1.23-7.81c0-18.94-.73-40.76-2.19-65.43-.59-10.22 2.22-18.26 8.42-24.12 5.68-5.47 13.19-8.2 22.55-8.2a45.26 45.26 0 0 1 5.88.39c.29-5.53 1.26-8.3 2.9-8.3.47 0 3.92 2.47 10.36 7.42 6.96 5.4 10.91 8.37 11.85 8.89 7.43 4.3 13.13 6.45 17.11 6.45h5.88zm-24.13-7.91c0-4.04-1.78-7.68-5.35-10.94-7.66-6.97-12.23-11.36-13.69-13.18 2.46 19.53 7.25 29.3 14.39 29.3 3.1 0 4.65-1.72 4.65-5.18z"/><path d="M-2929-2111c0 8.53-2.48 15.82-7.45 21.88-5.09 6.32-11.47 9.47-19.16 9.47-9.7 0-17.59-5.14-23.69-15.43-4.08 9.83-9.52 14.75-16.32 14.75h-5.68v-44.34h2.93c7.45 0 11.32-2.57 11.62-7.72.36-6.84 2.1-12.82 5.23-17.97 4.73-7.81 11.77-11.72 21.11-11.72 11.24 0 19.66 6.51 25.28 19.53 4.08 9.44 6.12 19.95 6.12 31.54zm-14.02-7.91c0-4.17-1.03-8.66-3.11-13.48-2.48-5.79-5.38-8.69-8.69-8.69a5.4 5.4 0 0 0-4.44 2.3c-1.18 1.53-1.77 3.3-1.77 5.32 0 4.95.98 9.77 2.93 14.45 2.48 5.99 5.86 8.98 10.11 8.98 3.31 0 4.97-2.96 4.97-8.89z"/><path d="M-2996-2081h-9.58c-22.18 0-33.27-12.76-33.27-38.28 0-10.87-.36-25.16-1.07-42.87-.77-18.68-1.57-31.06-2.39-37.11-.41-2.99.06-5.14 1.42-6.45l25.82-20.02c1.77-1.37 2.99-2.05 3.64-2.05.77 0 1.15.78 1.15 2.34v86.04c0 9.51 3.81 14.26 11.44 14.26h2.84z"/><path d="M-3087-2132c0 11.52-1.46 22.07-4.37 31.64-4.07 13.35-10.01 20.02-17.82 20.02-6.6 0-12.07-4.3-16.42-12.89-3.19 8.46-7.64 12.7-13.36 12.7-7.97 0-13.34-4.33-16.09-12.99-3.36 8.85-8.25 13.28-14.68 13.28h-6.43v-44.04h6.27c3.8 0 6.49-1.82 8.08-5.47l2.39-9.57c1.43-4.1 3.22-6.15 5.36-6.15 2.59 0 4.29 1.82 5.11 5.47l2.39 10.25c1.54 3.65 4.45 5.47 8.74 5.47 3.19 0 5.33-1.86 6.43-5.57l1.9-10.25c.77-3.71 2.59-5.57 5.45-5.57 2.53 0 4.18 1.95 4.95 5.86l2.14 10.84c1.54 3.91 4.43 5.86 8.66 5.86 5.11 0 7.67-2.18 7.67-6.54a24.1 24.1 0 0 0-1.4-8.01 193.2 193.2 0 0 0-2.56-7.03l10.64-13.87c1.16-1.5 2.01-1.4 2.56.29 2.91 8.66 4.37 17.42 4.37 26.27z"/><path d="M-3171.06-2080.59h-6.35c-7.92 0-14.05-4.33-18.4-12.99-4.29 8.66-10.81 12.99-19.55 12.99h-8.08v-44.34h5.2c5.89 0 9.98-2.08 12.29-6.25.55-.98 1.65-4.78 3.3-11.43 1.05-4.17 2.94-6.25 5.69-6.25 2.64 0 4.34 2.08 5.11 6.25 1.21 6.38 2.12 10.19 2.72 11.43 2.09 4.17 5.99 6.25 11.71 6.25h6.35zm-5.11-107.13c.66.72.63 1.5-.08 2.34l-9.73 11.52c-.72.85-1.43.85-2.14 0l-9.32-10.64-9.07 10.64c-.72.85-1.43.85-2.14 0l-9.82-11.33c-.77-.91-.69-1.92.25-3.03l9.07-10.84c.82-.98 1.65-.98 2.47 0l9.24 10.45 8.74-10.45c.82-.98 1.65-.98 2.47 0z"/><path d="M-3219-2081h-5.11c-10.78 0-18.92-6.97-24.42-20.9-13.03 13.93-31.95 20.9-56.76 20.9h-25.74v-44.34h17.32c0-31.32-4.29-57.78-12.87-79.39l21.37-21.97c1.93-1.95 3.16-2.93 3.71-2.93.66 0 1.57 1.5 2.72 4.49l12.54 33.01c.93 2.47 1.4 4.13 1.4 4.98 0 .78-.58 1.17-1.73 1.17-1.26 0-3.24-.49-5.94-1.47a110.8 110.8 0 0 1 .49 10.55c0 14.32-2.36 28.38-7.09 42.19 19.91-26.24 36.85-39.36 50.82-39.36a17.4 17.4 0 0 1 14.68 7.42c3.52 4.69 5.28 10.71 5.28 18.07 0 8.85-1.26 15.76-3.8 20.7.72 1.69 3.05 2.54 7.01 2.54h6.1zm-33.99-52.44c0-7.49-3.77-11.23-11.3-11.23-7.37 0-16.86 6.77-28.46 20.31a144.7 144.7 0 0 0 7.42.2c9.95 0 18.07-1.11 24.34-3.32 5.33-1.89 8-3.87 8-5.96z"/><path d="M-3326-2081h-7.67c-15.12 0-24.44-5.18-27.96-15.53-2.91 5.86-6.35 9.96-10.31 12.3-3.68 2.15-8.52 3.22-14.52 3.22h-12.13v-44.34h10.97c7.97 0 12.62-.75 13.94-2.25-3.85-6.05-7.37-10.38-10.56-12.99a32.6 32.6 0 0 0-1.57-.98l-3.47-2.15c-.88-.52-1.32-2.08-1.32-4.69 0-6.05 2.61-11.75 7.84-17.09 5.94-6.05 13.34-9.08 22.19-9.08 6.38 0 12.07 1.86 17.08 5.57 5.72 4.23 8.58 9.96 8.58 17.19 0 4.23-1.76 8.95-5.28 14.16-.88 1.3-3.68 4.82-8.41 10.55 1.82 1.17 6.02 1.76 12.62 1.76h9.98z"/><path d="M-3393.46-2080.59h-6.35c-7.92 0-14.05-4.33-18.4-12.99-4.29 8.66-10.81 12.99-19.55 12.99h-8.08v-44.34h5.2c5.88 0 9.98-2.08 12.29-6.25.55-.98 1.65-4.78 3.3-11.43 1.05-4.17 2.94-6.25 5.69-6.25 2.64 0 4.34 2.08 5.11 6.25 1.21 6.38 2.12 10.19 2.72 11.43 2.09 4.17 5.99 6.25 11.71 6.25h6.35zm-5.11-107.13c.66.72.63 1.5-.08 2.34l-9.73 11.52c-.72.85-1.43.85-2.14 0l-9.32-10.64-9.07 10.64c-.72.85-1.43.85-2.14 0l-9.82-11.33c-.77-.91-.69-1.92.25-3.03l9.07-10.84c.82-.98 1.65-.98 2.47 0l9.24 10.45 8.74-10.45c.82-.98 1.65-.98 2.47 0z"/><path d="M-3441-2081h-4.7c-2.09 0-3.52-.78-4.29-2.34 0 7.36-1.1 13.41-3.3 18.16-2.75 5.99-6.99 8.98-12.7 8.98-7.7 0-13.89-4.91-18.56-14.75-3.74-7.88-6.13-17.84-7.18-29.88-.66-.32-1.32-.49-1.98-.49-1.76 0-3.27.91-4.54 2.73s-1.9 3.81-1.9 5.96v34.67c0 2.28-.72 6.28-2.14 12.01s-2.67 9.47-3.71 11.23c-2.09 3.45-4.51 5.18-7.26 5.18-1.87 0-3.33-1.69-4.37-5.08-.77-2.54-1.16-5.14-1.16-7.81 0-18.94-.69-40.76-2.06-65.43-.55-10.22 2.09-18.26 7.92-24.12 5.34-5.47 12.4-8.2 21.2-8.2a40.04 40.04 0 0 1 5.53.39c.28-5.53 1.18-8.3 2.72-8.3.44 0 3.68 2.47 9.73 7.42 6.54 5.4 10.26 8.37 11.14 8.89 6.98 4.3 12.35 6.45 16.09 6.45h5.53zm-22.69-7.91c0-4.04-1.68-7.68-5.03-10.94-7.2-6.97-11.49-11.36-12.87-13.18 2.31 19.53 6.82 29.3 13.53 29.3 2.91 0 4.37-1.72 4.37-5.18z"/><path d="M-3524-2115a31.5 31.5 0 0 1-8.2 21.88 27 27 0 0 1-21.09 9.47c-10.68 0-19.37-5.14-26.07-15.43-4.49 9.83-10.48 14.75-17.97 14.75h-6.25v-44.34h3.22c8.2 0 12.47-2.57 12.79-7.72.39-6.84 2.31-12.82 5.76-17.97 5.21-7.81 12.96-11.72 23.24-11.72 12.37 0 21.65 6.51 27.83 19.53 4.49 9.44 6.74 19.95 6.74 31.54zm-15.43-7.91c0-4.17-1.14-8.66-3.42-13.48-2.73-5.79-5.93-8.69-9.57-8.69-1.95 0-3.58.76-4.88 2.3s-1.95 3.3-1.95 5.32a34.3 34.3 0 0 0 3.22 14.45c2.73 5.99 6.45 8.98 11.13 8.98 3.65 0 5.47-2.96 5.47-8.89z"/><path d="M-3598-2085h-5.47c-3.45 0-6.12-1.43-8.01-4.3 0 35.81-19.73 53.71-59.18 53.71-16.21 0-28.97-3.09-38.28-9.28-11.13-7.36-16.7-18.75-16.7-34.18 0-7.55 1.53-16.37 4.59-26.46 3.65-11.98 7.72-17.97 12.21-17.97 2.73 0 4.49 1.2 5.27 3.61.39 1.24.59 3.58.59 7.03 0 1.69-.39 4.31-1.17 7.86s-1.17 6.2-1.17 7.96c0 12.76 12.92 19.14 38.77 19.14a87.2 87.2 0 0 0 21.78-2.64c10.22-2.6 15.33-6.71 15.33-12.3 0-4.69-6.54-12.3-19.63-22.85l15.23-29.69c.59-1.11 1.11-1.66 1.56-1.66s1.2.55 2.25 1.66c10.29 10.68 18.23 16.02 23.83 16.02h8.2zm-61.43-74.8c.91.85.88 1.76-.1 2.73l-13.09 13.18c-.91.91-1.86.91-2.83 0l-13.28-12.99c-1.04-.98-.94-2.08.29-3.32l12.3-12.5c1.04-1.04 2.12-1.04 3.22 0z"/><path d="M-3720-2134c0 38.22-18.65 57.32-55.96 57.32h-12.5v-44.34h12.3c21.55 0 33.92-1.2 37.11-3.61 1.37-1.04 2.05-2.21 2.05-3.52 0-1.76-.91-2.64-2.73-2.64a4.3 4.3 0 0 0-1.76.39c-2.21.98-7.32 1.47-15.33 1.47-16.73 0-25.1-6.74-25.1-20.22 0-9.05 2.25-18 6.74-26.86 5.34-10.55 12.08-15.82 20.22-15.82 11.98 0 21.19 7.29 27.64 21.88 4.88 11.07 7.32 23.05 7.32 35.94zm-22.75-21.78c0-2.08-1.53-4.04-4.59-5.86-2.73-1.69-5.24-2.54-7.52-2.54-2.21 0-4.2.55-5.96 1.66-2.02 1.24-3.03 2.93-3.03 5.08 0 2.41 3.61 3.61 10.84 3.61 6.84 0 10.25-.65 10.25-1.95zm13.57-63.57c.72.65.68 1.47-.1 2.44l-11.62 11.33c-.85.85-1.69.85-2.54 0l-10.94-10.64-10.84 10.64c-.72.91-1.56.91-2.54 0l-11.52-11.23c-.98-.98-.91-2.02.2-3.12l10.64-10.84c.98-.98 1.99-.98 3.03 0l11.04 10.45 10.25-10.45c.98-.98 1.99-.98 3.03 0z"/><path d="M-3783-2076h-10.45c-1.69 21.81-7.49 38.02-17.38 48.63-1.43 1.56-3.39 2.34-5.86 2.34h-45.8c-5.4 0-8.11-2.21-8.11-6.64 0-2.41 1.17-4.17 3.52-5.27 8.4-3.97 18.52-9.67 30.37-17.09 16.02-10.03 24.15-17.02 24.41-21-13.15 0-21.74-.78-25.78-2.34-8.72-3.39-13.09-11.33-13.09-23.83a89.3 89.3 0 0 1 5.66-31.93c5.21-13.74 12.89-20.6 23.05-20.61 14.19 0 23.5 11.13 27.93 33.4h11.52zm-30.57-36.04c0-2.08-1.53-4.07-4.59-5.96-2.8-1.76-5.31-2.64-7.52-2.64-5.99 0-8.99 2.25-8.98 6.74 0 2.47 3.68 3.71 11.04 3.71 6.71 0 10.06-.62 10.06-1.86z"/><path d="M-3848-2119c0 13.41-3.16 24.35-9.47 32.81-7.1 9.44-17.12 14.16-30.08 14.16-23.05 0-34.57-10.71-34.57-32.13 0-7.81 2.41-19.17 7.23-34.08 5.66-17.58 11.46-26.37 17.38-26.37 10.35 0 20.57 3.58 30.66 10.74 12.56 8.92 18.85 20.54 18.85 34.86zm-19.63 2.64c0-2.6-3.68-5.5-11.04-8.69-6.71-2.93-11.75-4.39-15.14-4.39-1.95 0-3.58 1.34-4.88 4-1.04 2.21-1.56 4.46-1.56 6.74 0 5.6 5.89 8.4 17.68 8.4 9.96 0 14.94-2.02 14.94-6.05z"/></g><use x="-274.76" fill="url(#O)" xlink:href="#d"/><use x="-269.71" fill="url(#P)" xlink:href="#e"/><use x="-636.4" fill="url(#Q)" xlink:href="#e"/></g><g fill="url(#N)"><path d="M347.7 95.4l-12.48 6.67 6.33 11.97-136.8 74.54c-4.76 1.77-12.22 1.02-7.87 11.28l1.65 3.42c3.64-.29 6.26.22 7.12.95 8.5 7.19 14.18 17.34 16.83 25.08.86 2.51-1.27 9.84-3.68 16.09l17.58 36.52 30.94-16.24-25.81-53.86 24.11-12.99 5.65-15.39 56.24-30.43 4.45-17.78 39.49-21.03-6.83-13.85-10.78 5.47z"/><path d="M165.8 77.95c-34.05.16-68.01 13.51-93.53 39.92-28.38 29.38-41.42 70.33-35.24 110.7l4.73-.72c-5.95-38.91 6.6-78.36 33.95-106.7 46.31-47.93 121.4-51.24 171.6-9.05a117.8 117.8 0 0 1 4.18 3.69l3.25-3.51a123.4 123.4 0 0 0-4.35-3.84l-.01-.01c-24.45-20.52-54.56-30.66-84.61-30.52zm119.4 75.92l-4.35 2.01c21.19 45.86 13.43 102-23.8 140.5-12.68 13.12-30.4 24.7-46.31 31.09l1.79 4.44c16.61-6.68 34.72-18.49 47.96-32.2 38.61-39.97 46.7-98.23 24.7-145.8zM78.8 299.47l-3.32 3.44c29.92 28.91 70.1 40.71 108.4 35.58l-.64-4.74c-36.88 4.94-75.57-6.41-104.4-34.28z"/><path d="M164.3 78.33l-2.72 2.35a109.6 109.6 0 0 1 22.87 41.97c.57 1.95 4.22 1.94 3.49-.81-4.64-17.42-13.17-31.4-23.64-43.51z"/><path d="M157.9 78.26l2.66 3.1a125.8 125.8 0 0 0-31.65 44.33c-.93 2.14-4.97 1.56-3.75-1.47 7.76-19.15 19.32-33.78 32.74-45.97z"/><path d="M136.3 85.1l8.39-.83c-17.48 9.69-39.46 26.69-52.73 44.37-1.54 2.05-5.9.53-3.82-2.4 13.18-18.52 30.34-31.26 48.16-41.14z"/><path d="M112.1 95.06l2.26-3.04c21.61 11.48 62.74 16.2 84.72 8.46 2.42-.85 4.67 3.24 1.25 4.33-25.33 8.09-70.81 1.72-88.23-9.76z"/><path d="M209.1 41.46v85.2h3.59v-85.2z"/><path d="M222.11 34.17c-.88.06-1.15.48-1.55.86-.79.77-1.69 1.92-2.78 3.23-2.19 2.62-5.16 5.72-7.99 6.56l.68 2.3c3.85-1.14 6.9-4.62 9.15-7.31l1.92-2.23c.44 4.4.07 8.05-1.46 11.1-1.7 3.4-4.82 6.23-10.11 8.71l1.01 2.16c5.6-2.63 9.25-5.82 11.25-9.8s2.29-8.61 1.55-14c-.04-.3-.1-.62-.36-.97a1.69 1.69 0 0 0-1.3-.6z"/><path d="M224.93 50.77c-.48.05-.87.32-1.13.57-.34.33-.61.73-.9 1.24-1.9 3.39-3.44 3.79-5.62 4.61s-4.91 2.02-7.52 6.3l2.04 1.25c2.36-3.86 4.18-4.49 6.32-5.3 1.95-.73 4.23-1.66 6.27-4.73-.08 1.53-.37 3.62-1.11 6.1-1.87 6.26-5.98 13.6-12.43 15.14l.55 2.33c7.85-1.86 12.19-10.12 14.18-16.79 1-3.34 1.42-6.27 1.3-8.19-.03-.48-.1-.89-.25-1.31s-.46-.99-1.18-1.17a1.55 1.55 0 0 0-.52-.04z"/><path d="M230.1 68.91c-2.11 5.03-5.04 6.8-8.6 8.49s-7.79 3.21-11.51 7.46l1.8 1.58c3.32-3.8 7.03-5.11 10.75-6.87 2.31-1.1 4.62-2.42 6.6-4.62-.7 4.32-1.55 8.38-3.27 11.87-2.48 5.01-6.63 9-15.02 11.43l.67 2.3c8.87-2.57 13.76-7.14 16.49-12.67s3.41-11.9 4.38-18.32z"/><path d="M231.4 87.17c-2.08 4.98-5.46 6.77-9.52 8.47s-8.77 3.18-12.53 7.47l1.8 1.58c3.29-3.75 7.47-5.08 11.66-6.84 2.64-1.11 5.29-2.44 7.48-4.68-1.03 4.97-2.55 10.14-4.86 14.14-1.61 2.79-3.59 4.99-5.98 6.25s-5.22 1.64-8.84.66l-.63 2.31c4.1 1.11 7.67.69 10.59-.85s5.16-4.11 6.92-7.16c3.53-6.1 5.21-14.18 6.19-20.69z"/><path d="M195.84 40.48l.5 4.42c.58 5.17.28 11.52 1.58 16.41.65 2.45 1.74 4.61 3.72 5.92s4.71 1.58 8.16.7l-.6-2.33c-3.06.78-4.95.48-6.25-.37s-2.16-2.4-2.72-4.54c-.86-3.24-.94-7.64-1.19-11.95 2.7 3.38 5.87 6.48 10.67 7.58l.54-2.33c-5.36-1.24-8.41-5.45-11.75-9.95z"/><path d="M203.74 55.35l-2.25.82c.54 1.49 1.38 2.88 2.76 3.79s3.23 1.26 5.52.98l-.3-2.37c-1.9.24-3.07-.06-3.9-.61s-1.4-1.41-1.84-2.6z"/><path d="M216.8 43.64c-.7 2.92-4.42 6.12-7.77 9.46l1.69 1.7c3.22-3.21 7.41-6.37 8.42-10.61z"/><path d="M216.87 63.14c-.92 2.1-1.8 3.1-2.78 3.76s-2.21 1.01-3.84 1.51l.7 2.28c1.59-.48 3.08-.87 4.48-1.81s2.6-2.41 3.64-4.78z"/><path d="M216.4 86.94l-7.13 6.89 1.67 1.73 7.13-6.89z"/><path d="M220.8 103.1c-1.81 1.28-6.42 2.38-11.04 8.86l1.96 1.4c4.28-5.99 7.84-6.44 10.48-8.3z"/><path d="M211.1 30.9l-2.22.89c1.94 4.86 1.68 9.18.56 13.52l2.31.6c1.19-4.63 1.51-9.61-.65-15.01z"/><path d="M240.3 274.1l-2.16 1.74c-5.08 4.07-11.56 5.93-17.19 8.81s-10.43 7.08-11.3 15.46l2.38.25c.79-7.59 4.69-10.85 10.01-13.57 4.62-2.36 10.29-4.11 15.35-7.44-.97 6.28-3.53 11.76-7.5 15.58-4.52 4.36-10.86 6.66-19.12 5.57l-.32 2.38c8.86 1.17 16.06-1.37 21.09-6.22s7.92-11.93 8.55-19.79z"/><path d="M240.3 293.9l-2.16 1.74c-5.08 4.07-11.56 5.93-17.19 8.81s-10.43 7.08-11.3 15.46l2.38.25c.79-7.59 4.69-10.85 10.01-13.57 4.62-2.36 10.29-4.11 15.35-7.44-.97 6.29-3.53 11.76-7.5 15.58-4.52 4.36-10.86 6.66-19.12 5.57l-.32 2.38c8.86 1.17 16.06-1.37 21.09-6.22s7.92-11.93 8.55-19.79z"/><path d="M239.1 318.6c-5.1 4.09-11.87 6.44-17.73 9.81s-10.85 8-11.72 16.39l2.38.25c.78-7.57 4.97-11.36 10.55-14.57 3.66-2.1 7.88-3.89 11.92-6.1-3.23 5.28-4.21 10.46-5.86 14.2-1.12 2.54-2.44 4.39-5.02 5.58s-6.55 1.7-12.89 1.03l-.26 2.38c6.57.7 10.98.24 14.16-1.23s4.97-3.97 6.21-6.79c2.47-5.61 3.23-12.59 9.77-19.08l.09-.09z"/><path d="M223.5 292.5c-5.67.74-10.55 3.69-13.5 9.86l2.16 1.04c2.65-5.54 6.57-7.86 11.64-8.52z"/><path d="M223.5 312.5c-5.67.74-10.55 3.69-13.5 9.86l2.16 1.03c2.65-5.54 6.57-7.85 11.64-8.51z"/><path d="M222.6 333.7c-2.65 5.54-6.57 7.86-11.64 8.52l.31 2.38c5.67-.74 10.55-3.69 13.5-9.86z"/><path d="M187.8 191.8c-4-.08-8.67 1.86-8.82 5.98l-.12 3.27c-.09 2.48-3.01 3.12-3.01.6v-5.2c-1.81-4.81-10.68 2.62-10.77 8.95l-.61 46.06c-.03 2.63-5.7 13.25-13.78 6.9-3.58 7.47-14.58 4.62-14.99-1.7v-23.57c0-4.32.18-5.55-4.8-2.67l-16.59 9.61c-4.18 2.34-3.26 1.28-3.42 6.02l-.1 2.76c-9.5 4.7-19.6 5.5-21.27 22.49L21.7 308.9c-3.73 20.62-14.13 61.96-11.12 61.9 11.31-.21 20.36-8.6 26.11-19.35l56.09-50.78c.65 2.72 1.1 5.57 6.77 4.84l-5.8 19.83c-3.21 10.96 27.93 3.45 29.02-7.74l2.9-29.97c4.81 2.92 14.72 2 19.83-2.43l4.65 4.23v76.05l44.68-21.28v-54.64c10.06-13.79 14.78-24.29 17.92-33.82l-2.32 3.08-21.46 20.82c-1.92 1.86-10.02 2.61-13.65-.91-13.93-13.48 12.97-47.97 23.18-46.53l-5.84-10.05c-9.12 5.38-22.8-3.15-18.12-7.53 6.97-6.53 14.34-9.62 20.2-10.82l-1.24-8.2c.13-2.45-2.57-3.74-5.69-3.8zm-54.88 79.49c5.13.75 10.03 1.82 9.79 10.16-2.96 1.94-10.7 7.68-17.28-.25l3.5-7.85c1.16 2.46 2.02 6.26 4.72 7.37 1.37.57 3.52.29 4.35-.97-3.69-1.94-4.18-5.29-5.08-8.46zm41.32 6.67l1 2.18c-4.26 1.94-8.4 4.42-20.7 3l.27-2.37c11.95 1.38 14.99-.78 19.44-2.8z"/><path d="M209.3 257.4c1.97-1.89 3.5-7.41 3.5-7.41 2.76-6.02 7.02-16.4 6-19.37-2.41-7.05-6.1-16.41-13.85-22.97-2.13-1.8-15.04-4.06-27.44 7.56-4.26 3.99 7.64 9.48 15.94 4.58l7.83 13.95c-9.3-1.31-36.75 30.87-24.2 43.3 3.22 3.19 9.7 1.48 12.67-.66.2-.14 12.34-12.07 19.56-18.98z"/><path d="M208.8 260.4v101.2h4.07V256z"/><path d="M163 205.3l-1.21 46.55c.37 5.55-10.88 7.39-10.64.36l1.21-35.66c1.26-11.59 10.87-20 10.64-11.24z"/><path d="M149.8 212.4l-1.21 42.31c.37 5.54-10.67 7.39-10.64.36l.12-26.6c-7.38-10.64 11.81-18.91 11.73-16.08z"/><path d="M125.5 567.5l43.43-44.8-156.1-148.4c27.91-9.12 22.39-21.53 33.17-28.04l182.1 174.4-73.18 75.57z"/><path d="m119.7 478.6 29.41 28.38-14.36 14.36 16.41 16.41-27.53 27.53-44.8-44.8z"/><path d="m149.7 370.5v70.78l43.77 41.03v-132.7z"/><path d="M230.6 345.9c-11.03 16.02-22.32 19.84-36.99 4.02l-.19 4.72h1.65v124.3h-1.82v-120.3l-4.88 118.9 42.22 40.7zm-3.82 7.04h1.6v159.2h-1.6v-79.59zm-29.65 4.56h1.83v125h-1.83v-62.49zm25.31.23h1.83v149.6h-1.83v-74.8zm-20.75 3.19h1.6v126.1h-1.6v-63.06zm16.65 0h1.6v142.5h-1.6v-71.27zm-4.33 1.14h1.6v137.3h-1.6v-68.65zm-7.98.23h1.82v129.1h-1.82v-64.54zm4.1.46h1.6v132.7h-1.6v-66.37z"/><g transform="matrix(.3193 0 0 .3193 -22.13 6.848)"><path d="M1161.56 1249.81c-.41 0-1.19.47-2.31 1.44l-16.34 14.09c-.86.92-1.17 2.42-.91 4.53.53 4.26 1.04 12.97 1.53 26.13l.66 30.19c0 17.96 7.04 26.94 21.09 26.94h2.81v.06h4.38c9.29 0 15.68-3.03 19.13-9.12 2.96-5.22 4.44-14.2 4.44-26.94 0-13.02-2.93-23.92-8.78-32.72-.6-.92-1.07-1.37-1.41-1.37-.26 0-.66.49-1.22 1.5l-10.47 18.56c-.56 1.01-.56 1.83 0 2.47 3.67 3.99 6.68 7.8 9 11.47.64 1.01.94 1.91.94 2.69 0 1.51-1.1 2.28-3.31 2.28h-12.34c-4.1-.49-6.16-3.81-6.16-9.97v-60.56c0-1.1-.23-1.66-.72-1.66zm-236.5.06c-.37 0-1.08.7-2.12 2.13l-17 22.63 9.78 71.56c1.09 4.9 2.38 7.34 3.88 7.34 1.39 0 2.89-2 4.47-6.03 1.27-3.35 2.42-8.27 3.47-14.78 1.01-6.19 1.53-11.31 1.53-15.34l-.19-32.91c-.37-12.65-1.38-23.54-3.03-32.66-.23-1.28-.48-1.94-.78-1.94zm80.28 0c-.37 0-1.11.7-2.16 2.13l-16.97 22.63 9.78 71.56c1.09 4.9 2.38 7.34 3.88 7.34 1.39 0 2.86-2 4.44-6.03 1.27-3.35 2.45-8.27 3.5-14.78 1.01-6.19 1.53-11.31 1.53-15.34l-.19-32.91c-.37-12.65-1.38-23.54-3.03-32.66-.23-1.28-.48-1.94-.78-1.94zm48.22 25.59c-.3 0-.74.36-1.34 1.09l-12.47 15.41 9.31 27.28c.11.32.19.6.19.88 0 1.65-1.62 3.09-4.84 4.28a22.9 22.9 0 0 1-7.94 1.44c-3.97 0-6.69-1.26-8.19-3.78-.26-.46-.94-2.78-2.03-7-.64-2.52-2-3.78-4.06-3.78-1.99 0-3.53 2.77-4.66 8.31a56.5 56.5 0 0 0-1.22 11.28c0 16.45 5.72 24.66 17.19 24.66 5.1 0 9.3-1.62 12.59-4.87 2.74-2.7 5.69-7.53 8.88-14.5 4.57 11.37 10.44 17.03 17.59 17.03h1.69v.16h4.41c4.38 0 7.71-3.11 10-9.34 1.87 6.1 5.54 9.13 10.97 9.13 3.9 0 6.92-2.98 9.09-8.94 2.96 6.05 6.69 9.09 11.19 9.09 5.32 0 9.38-4.7 12.16-14.09 1.99-6.74 2.97-14.17 2.97-22.28 0-6.23-.98-12.4-2.97-18.5-.37-1.19-.96-1.24-1.75-.19l-7.25 9.75a130.7 130.7 0 0 1 1.72 4.94 17.6 17.6 0 0 1 .97 5.66c0 3.07-1.73 4.59-5.22 4.59-2.89 0-4.86-1.37-5.91-4.12l-1.47-7.62c-.53-2.75-1.65-4.12-3.37-4.12-1.95 0-3.19 1.29-3.72 3.91l-1.28 7.22c-.75 2.61-2.2 3.94-4.37 3.94-2.92 0-4.92-1.28-5.97-3.84l-1.62-7.22c-.56-2.57-1.74-3.87-3.5-3.87-1.46 0-2.68 1.46-3.66 4.34l-1.62 6.75a5.6 5.6 0 0 1-5.5 3.84h-1.06v-.34h-4.22c-3.63 0-6.38-3.11-8.22-9.34l-10.56-35.56c-.34-1.1-.64-1.62-.91-1.62zm-192.47 15.03c-.31 0-.61.2-.91.56l-7.09 8.72c-.75.92-.79 1.74-.16 2.47l7.66 9.09c.56.64 1.1.64 1.63 0l7.53-9.22c.3-.37.44-.71.44-1.03 0-.28-.11-.59-.37-.91l-7.78-9.12c-.32-.37-.63-.56-.94-.56zm25.75 14.38c-.34 0-.81.72-1.41 2.19l-9.34 22.34c1.76 1.42 4.23 4.46 7.38 9.09 3.3 4.86 4.94 8.02 4.94 9.53 0 6.78-7.58 10.19-22.72 10.19-14.77 0-22.12-4.7-22.12-14.09 0-1.28.19-3.21.63-5.75s.66-4.42.66-5.66c0-4.99-1.2-7.5-3.59-7.5-2.96 0-5.4 4.24-7.31 12.72a88.4 88.4 0 0 0-2.25 19.47c0 10.59 3.21 18.51 9.66 23.78 5.51 4.54 12.86 6.78 22 6.78 10.53 0 18.55-2.47 24.09-7.47 7.72-6.92 11.59-19.04 11.59-36.31 0-7.88-1.24-15.73-3.75-23.56-2.02-6.28-4.19-10.86-6.44-13.75-1.05-1.33-1.7-2-2-2zm78.75 3.19c-.35.08-.64.42-.91 1.06l-9 22.69c8.43 9.62 12.66 15.81 12.66 18.56 0 3.35-4.71 8.96-14.16 16.84-7.27 6.1-13.4 10.58-18.34 13.47a4 4 0 0 0-1.97 3.72c0 3.12 1.58 4.69 4.69 4.69h26.34c1.42 0 2.58-.56 3.44-1.66 7.35-9.53 11.03-22.84 11.03-39.94 0-9.71-1.01-17.53-3.03-23.44-1.8-5.22-4.99-10.37-9.56-15.41-.43-.48-.84-.67-1.19-.59zm213.13 53.25c-.26 0-.55.15-.81.47l-6.22 7.78c-.56.69-.61 1.34-.12 1.94l6.69 7.97c.45.55.89.55 1.34 0l6.53-7.84 6.53 7.84c.45.55.89.55 1.34 0l6.63-8.06c.45-.55.47-1.06.06-1.56l-6.81-8.06c-.56-.64-1.1-.64-1.62 0l-6.06 7.66-.06.13-6.62-7.78c-.26-.32-.52-.47-.78-.47zm7.16 15.75c-.27 0-.55.15-.81.47l-6.06 7.63c-.6.73-.7 1.39-.25 1.94l6.75 8.03c.45.55.89.55 1.34 0l6.66-8.03a1.1 1.1 0 0 0 0-1.59l-6.81-7.97c-.28-.32-.54-.47-.81-.47z"/><path d="M938.22 1425.34c-1.61 0-2.76 1.26-3.5 3.78l-5.41 18.34c-.48 1.65-.2 3.14.84 4.47l14 17.31 2.25-3.44c3.3 1.47 6.79 6.1 10.44 13.84 3.47 7.33 5.19 13.1 5.19 17.31 0 1.24-.17 2.17-.56 2.81-6.12 10.08-14.98 18.76-26.56 26-1.56.96-2.34 2.27-2.34 3.97 0 2.52 1.12 3.78 3.38 3.78 2.78 0 7.65-.33 14.59-.97 11.37-1.05 17.36-2 17.97-2.87 2.08-2.93 4.75-7.71 8-14.31 3.56-7.24 6.2-13.37 7.94-18.41 0 12.33 1.1 20.91 3.31 25.72 2.56 5.59 7.45 8.38 14.66 8.38h7.34 82.09.31c6.81 0 13.81-3.19 20.97-9.56 1.61 2.06 3.91 4.03 6.91 5.91 3.86 2.43 7.49 3.66 10.88 3.66h5.19 1.5c10.76 0 18.16-3.06 22.16-9.16 3.43-5.22 5.13-14.2 5.13-26.94 0-13.02-3.39-23.92-10.16-32.72-.69-.92-1.23-1.37-1.62-1.37-.3 0-.79.49-1.44 1.5l-12.09 18.56c-.65 1.01-.65 1.86 0 2.5 4.25 3.99 7.72 7.8 10.41 11.47.74 1.01 1.13 1.91 1.13 2.69 0 1.51-1.28 2.25-3.84 2.25h-11.16-8.44c2.86-3.85 4.28-9.52 4.28-17.03 0-4.86-1.06-9.23-3.19-13.12-2.73-5.04-6.62-7.56-11.66-7.56-6.16 0-11.54 3.51-16.19 10.56-4.04 6.14-6.06 12.1-6.06 17.88 0 4.63.67 7.72 2.06 9.28h-5.06-82.09-5.12c-3.34 0-5.03-5.29-5.03-15.87 0-5.04.36-12.6 1.03-22.66a369.6 369.6 0 0 0 1-22.62c0-2.15-.06-4.45-.19-6.87-.17-3.35-1.55-5.03-4.06-5.03-2.08 0-3.56 1.39-4.47 4.19-9.94 30.25-17.05 48.83-21.34 55.75-.52-7.88-3.2-17.44-7.97-28.72-5.95-14.02-13.07-24.32-21.41-30.87-1.52-1.19-2.84-1.78-3.97-1.78zm256.88 2.41c-.43 0-1.25.7-2.47 2.13l-19.69 22.63c5.77 40.79 9.56 64.64 11.34 71.56 1.26 4.9 2.76 7.34 4.5 7.34 1.61 0 3.3-2.03 5.13-6.06 1.48-3.35 2.82-8.27 4.03-14.78 1.17-6.19 1.78-11.28 1.78-15.31l-.22-32.94c-.43-12.65-1.59-23.54-3.5-32.66-.26-1.28-.56-1.91-.91-1.91zm-47.81 1.34c-.37 0-.75.17-1.09.56l-8.12 8.75c-.87.92-.92 1.74-.19 2.47l8.84 9c.65.64 1.27.64 1.88 0l8.81-9.12c.65-.69.65-1.36 0-2l-9-9.09c-.39-.39-.76-.56-1.12-.56zm-43.37 4.94c-.34 0-.67.19-1 .53l-7.09 7.63c-.74.78-.8 1.48-.19 2.13l7.81 8.03a1 1 0 0 0 1.69 0l7.16-7.47 7.28 7.47c.56.6 1.15.6 1.72 0l7.66-8.09c.35-.37.53-.68.53-.91 0-.28-.16-.52-.47-.75l-7.87-8.03c-.69-.69-1.35-.69-2 0l-6.84 7.41-7.34-7.41c-.35-.34-.69-.53-1.03-.53zm-193.22 28.84c-.33.03-.61.29-.84.75l-11.06 21.03c-.48.87-.31 1.62.56 2.22 4.38 3.07 7.39 5.74 9 8.03.87 1.24 1.31 2.07 1.31 2.53 0 .55-.52 1.19-1.56 1.88-2.13 1.38-5.7 2.23-10.69 2.59-3.12.23-10.44.34-21.94.34-12.98 0-21.61-2-25.91-6.03-2.56-2.38-3.83-6.34-3.78-11.84.04-4.67-1.2-7-3.72-7-2.47 0-4.6 2.88-6.37 8.66-1.61 5.18-2.41 10.42-2.41 15.69 0 12.42 4.17 21.05 12.5 25.91 6.21 3.62 15.79 5.44 28.72 5.44 15.8 0 27.41-2.41 34.88-7.22 9.72-6.28 14.59-17.41 14.59-33.41 0-11.73-4.07-21.42-12.19-29.03-.41-.39-.77-.57-1.09-.53zm202.84 21.09c1.56 0 3.2.54 4.94 1.59 2 1.19 3 2.55 3 4.06 0 1.7-1.02 3.2-3.06 4.53-1.82 1.24-3.59 1.84-5.28 1.84-1.3 0-2.96-.73-5-2.22s-3.06-2.92-3.06-4.25c0-1.7 1.06-3.09 3.19-4.19a11.2 11.2 0 0 1 5.28-1.37zm-235.06 57.5c-.38 0-.76.2-1.12.59l-8.12 8.66c-.83.87-.86 1.69-.12 2.47l8.84 9.09c.65.64 1.3.64 1.91 0l8.72-9.22c.65-.69.67-1.34.06-1.94l-9-9.06c-.39-.39-.78-.59-1.16-.59z"/><path d="M1011 1594c-1.74 0-3.01 1.26-3.81 3.78l-5.84 18.38c-.52 1.65-.22 3.14.91 4.47l15.16 17.31 2.44-3.44c3.57 1.47 7.34 6.07 11.28 13.81 3.76 7.33 5.63 13.1 5.63 17.31 0 1.24-.2 2.2-.62 2.84-6.62 10.08-16.19 18.73-28.72 25.97-1.69.96-2.53 2.3-2.53 4 0 2.52 1.22 3.78 3.66 3.78 3 0 8.24-.33 15.75-.97 12.3-1.05 18.78-2.04 19.44-2.91 2.25-2.93 5.14-7.68 8.66-14.28 3.85-7.24 6.72-13.4 8.59-18.44 0 12.33 1.2 20.91 3.59 25.72 2.77 5.59 8.05 8.38 15.84 8.38h3.81v.16h5.47c5.49 0 9.67-3.11 12.53-9.34 2.35 6.1 6.94 9.13 13.75 9.13 4.88 0 8.68-2.98 11.41-8.94 3.71 6.05 8.37 9.09 14 9.09 6.66 0 11.74-4.7 15.22-14.09 2.49-6.74 3.72-14.17 3.72-22.28a48.6 48.6 0 0 0-3.72-18.5c-.47-1.19-1.2-1.24-2.19-.19l-9.09 9.75 2.19 4.94a14.4 14.4 0 0 1 1.19 5.66c0 3.07-2.17 4.59-6.53 4.59-3.61 0-6.09-1.37-7.41-4.12l-1.81-7.62c-.66-2.75-2.09-4.12-4.25-4.12-2.44 0-3.97 1.29-4.62 3.91l-1.62 7.22a5.4 5.4 0 0 1-5.5 3.94c-3.66 0-6.15-1.28-7.47-3.84l-2.03-7.22c-.7-2.57-2.17-3.87-4.37-3.87-1.83 0-3.34 1.46-4.56 4.34l-2.03 6.75c-1.36 2.57-3.67 3.84-6.91 3.84h-1.19v-.34h-5.56c-3.61 0-5.44-5.29-5.44-15.88 0-5.04.37-12.6 1.09-22.66s1.09-17.62 1.09-22.66c0-2.15-.08-4.45-.22-6.87-.19-3.35-1.65-5-4.37-5-2.25 0-3.86 1.39-4.84 4.19-10.75 30.25-18.45 48.83-23.09 55.75-.56-7.88-3.43-17.48-8.59-28.75-6.43-14.02-14.14-24.29-23.16-30.84-1.64-1.19-3.06-1.81-4.28-1.81zm181.8 2.41c-.47 0-1.34.74-2.66 2.16l-21.25 22.59c6.24 40.79 10.33 64.64 12.25 71.56 1.36 4.9 2.97 7.34 4.84 7.34 1.74 0 3.59-2 5.56-6.03 1.6-3.35 3.06-8.27 4.38-14.78 1.27-6.19 1.88-11.31 1.88-15.34l-.19-32.91c-.47-12.65-1.75-23.54-3.81-32.66-.28-1.28-.62-1.94-1-1.94zM971 1642.19c-7.42 0-13 2.75-16.75 8.25a24.4 24.4 0 0 0-4.16 12.66c-.24 3.62-3.3 5.44-9.22 5.44h-6.78c-12.48 0-23.16 1.28-32.03 3.84-13.8 3.99-20.69 10.67-20.69 20.06 0 4.49 2.26 7.47 6.81 8.94 2.72.87 7.59 1.31 14.53 1.31a173.9 173.9 0 0 1 13.16.47c2.44.18 3.66.64 3.66 1.38 0 .78-1.22 1.43-3.66 1.94-6.66 1.38-16.12 2.06-28.38 2.06-23.09 0-34.66-6.52-34.66-19.53 0-1.42.24-3.5.69-6.25a42.1 42.1 0 0 0 .66-6.25c0-4.08-1.86-6.12-5.56-6.12-2.96 0-5.83 3.65-8.59 10.94-2.63 6.87-3.94 13.42-3.94 19.66 0 9.07 1.93 16.1 5.78 21.09 6.71 8.66 19.4 13 38.03 13 32.67 0 49-9.84 49-29.5 0-6.32-3.23-10.39-9.66-12.22-3.19-.92-9.1-1.37-17.69-1.37-5.3 0-7.94-.56-7.94-1.66 0-.6.86-1.19 2.59-1.78 2.91-1.01 6.62-1.5 11.12-1.5 7.79 0 13.98 1.08 18.53 3.28 2.63 1.28 5.15 3.33 7.59 6.13 1.92 2.2 3.61 3.28 5.06 3.28h4.5c5.4 0 9.73-3.45 12.97-10.38 4.83 7.24 11.08 10.88 18.78 10.88 6.1 0 11.18-2.21 15.22-6.66 3.94-4.26 5.91-9.4 5.91-15.41 0-8.16-1.61-15.57-4.84-22.22-4.46-9.16-11.14-13.75-20.06-13.75zm4.44 14.78c2.63 0 4.9 2.05 6.88 6.13 1.64 3.39 2.47 6.57 2.47 9.5 0 4.17-1.31 6.25-3.94 6.25-3.38 0-6.06-2.13-8.03-6.34a23.6 23.6 0 0 1-2.31-10.16c0-1.42.47-2.67 1.41-3.75a4.5 4.5 0 0 1 3.53-1.62z"/><path d="M895.34 1076.41c-.41 0-1.19.47-2.31 1.44l-16.34 14.09c-.86.92-1.17 2.42-.91 4.53.52 4.26 1.04 12.97 1.53 26.13l.66 30.16c0 17.96 7.04 26.97 21.09 26.97h2.88v.06h5.5c5.96 0 10.39-3.06 13.31-9.16 2.96 6.1 7.13 9.16 12.53 9.16h4.34 70.78H1079h67.03v.13h4.38c4.38 0 7.71-3.11 10-9.34 1.87 6.1 5.54 9.16 10.97 9.16 3.9 0 6.92-2.98 9.09-8.94 2.96 6.05 6.69 9.06 11.19 9.06 5.32 0 9.38-4.7 12.16-14.09 1.99-6.74 2.97-14.17 2.97-22.28 0-6.23-.98-12.37-2.97-18.47-.37-1.19-.96-1.27-1.75-.22l-7.25 9.78 1.75 4.94c.62 1.81.94 3.71.94 5.63 0 3.07-1.73 4.63-5.22 4.63-2.89 0-4.86-1.37-5.91-4.12l-1.47-7.62c-.53-2.75-1.65-4.12-3.37-4.12-1.95 0-3.16 1.29-3.69 3.91l-1.31 7.22c-.75 2.61-2.2 3.91-4.37 3.91-2.92 0-4.92-1.28-5.97-3.84l-1.62-7.22c-.56-2.57-1.71-3.84-3.47-3.84-1.46 0-2.68 1.46-3.66 4.34l-1.62 6.72c-1.09 2.57-2.94 3.84-5.53 3.84h-.66v-.34H1079h-70.59-70.78-4.34c-3.9 0-6.54-1.47-7.97-4.41-.41-.87-1.02-3.54-1.84-8.03-.52-2.93-1.7-4.41-3.5-4.41-1.87 0-3.16 1.47-3.87 4.41-1.12 4.67-1.87 7.34-2.25 8.03-1.57 2.93-4.37 4.41-8.37 4.41h-3.22c-4.1-.48-6.16-3.8-6.16-9.97v-60.56c0-1.1-.26-1.62-.75-1.62zm-54.97 38.06c-3.41 0-6.74 6.19-10 18.56-2.77 10.49-4.16 18.5-4.16 24 0 15.08 6.61 22.63 19.88 22.63 7.46 0 13.23-3.32 17.31-9.97 3.63-5.96 5.47-13.68 5.47-23.12 0-10.08-3.61-18.25-10.84-24.53-5.81-5.04-11.7-7.56-17.66-7.56zm2.13 24.75c1.95 0 4.86 1.03 8.72 3.09 4.24 2.25 6.34 4.29 6.34 6.13 0 2.84-2.86 4.25-8.59 4.25-6.78 0-10.16-1.96-10.16-5.91a13.1 13.1 0 0 1 .88-4.75c.75-1.88 1.69-2.81 2.81-2.81zm70 48.66c-.26 0-.52.18-.78.5l-6.25 7.75c-.56.69-.61 1.34-.12 1.94l6.72 7.97c.45.55.89.55 1.34 0l6.5-7.84 6.53 7.84c.45.55.89.55 1.34 0l6.63-8.03c.45-.55.48-1.09.06-1.59l-6.78-8.03c-.56-.64-1.13-.64-1.66 0l-6.06 7.63-.06.13-6.62-7.75c-.26-.32-.52-.5-.78-.5zm7.16 15.75c-.27 0-.55.18-.81.5l-6.06 7.63c-.6.73-.67 1.36-.22 1.91l6.75 8.06c.45.55.89.55 1.34 0l6.63-8.06c.45-.55.45-1.06 0-1.56l-6.81-7.97c-.28-.32-.54-.5-.81-.5z"/></g></g></g><g fill="url(#R)"><path d="M106.4 239.37q0 1.43-.15 2.7-.28 2.34-.92 2.34-.36 0-.46-.31-.08-.22-.2-1.41-.22-2.02-.38-3.01-.27-1.67-.7-2.95-.23-.68-.58-1.41-.26-.53-.26-.67 0-.15.74-1.62.76-1.51.92-1.51.27 0 .7.85.52 1.02.86 2.6.42 1.98.42 4.4z"/><path d="M117.32 232.54q0 1.75-.61 2.94-.67 1.32-1.85 1.32-.67 0-1.14-.42-.25.29-1.04.63.18 1.62.18 2.55 0 1.39-.3 2.89-.39 1.96-1.01 1.96-.53 0-.73-1.32-.04-.24-.13-1.71-.1-1.57-.26-2.33-.3-1.4-.79-2.48-.31-.67-.76-1.3-.35-.48-.35-.58 0-.17.6-1.39l.81-1.66q.14-.29.27-.29.15 0 .32.33.75 1.48 1.64 1.48.61 0 .87-.42.04-.06.27-.79.14-.42.46-.42.32 0 .45.44.05.14.24.81.2.44.67.44.52 0 .78-.45.05-.11.32-.82.17-.45.46-.45.61 0 .61 1.04z"/><path d="M126.51 240.62q0 1.44-.53 2.5-.67 1.36-1.97 1.36-1.11 0-1.55-.92-.66.9-1.62.9-.7 0-1.34-.59-.85-.79-.85-2.24 0-2.17 2.31-6.57l-.49-.45q1.51-3.27 1.72-3.27.29 0 1.31 1.32 1.19 1.54 1.98 3.37 1.03 2.38 1.03 4.59zm-1.73-.23q0-.67-1.16-2.4-1.12-1.67-1.79-2.14-1.54 3.36-1.54 4.25 0 1.07.97 1.07.39 0 .75-.64.36-.64.54-.64.3 0 .42.33l.24.67q.2.35.7.35.87 0 .87-.86z"/><path d="M136.13 235.24q0 .08-.36.48-.52.59-.94 1.23-1.41 2.19-2.1 5.14-.11.48-.41 1.74-.16.62-.54.62-.34 0-.55-.64-.04-.14-.42-1.77-.77-3.41-2.33-5.95l-.71-1.16q0-.17.91-3.18.12-.39.26-.39.13 0 .32.24.98 1.27 1.72 3.08.64 1.55.88 2.92.9-3.72 3.19-6.07.13-.13.21-.13.16 0 .25.48.6 3.18.6 3.34z"/></g></g></svg>