<?xml version="1.0" encoding="UTF-8" standalone="no"?>
<svg
   xmlns:dc="http://purl.org/dc/elements/1.1/"
   xmlns:cc="http://creativecommons.org/ns#"
   xmlns:rdf="http://www.w3.org/1999/02/22-rdf-syntax-ns#"
   xmlns:svg="http://www.w3.org/2000/svg"
   xmlns="http://www.w3.org/2000/svg"
   xmlns:xlink="http://www.w3.org/1999/xlink"
   xmlns:sodipodi="http://sodipodi.sourceforge.net/DTD/sodipodi-0.dtd"
   xmlns:inkscape="http://www.inkscape.org/namespaces/inkscape"
   version="1.0"
   width="106"
   height="40"
   id="svg2"
   inkscape:version="0.48.4 r9939"
   sodipodi:docname="Valorous_Unit_Award_ribbon.svg">
  <metadata
     id="metadata42">
    <rdf:RDF>
      <cc:Work
         rdf:about="">
        <dc:format>image/svg+xml</dc:format>
        <dc:type
           rdf:resource="http://purl.org/dc/dcmitype/StillImage" />
      </cc:Work>
    </rdf:RDF>
  </metadata>
  <sodipodi:namedview
     pagecolor="#ffffff"
     bordercolor="#666666"
     borderopacity="1"
     objecttolerance="10"
     gridtolerance="10"
     guidetolerance="10"
     inkscape:pageopacity="0"
     inkscape:pageshadow="2"
     inkscape:window-width="1920"
     inkscape:window-height="1096"
     id="namedview40"
     showgrid="false"
     inkscape:zoom="8.3379138"
     inkscape:cx="68.681518"
     inkscape:cy="-8.3554364"
     inkscape:window-x="-8"
     inkscape:window-y="-8"
     inkscape:window-maximized="1"
     inkscape:current-layer="svg2" />
  <defs
     id="defs4">
    <linearGradient
       id="linGrad1"
       x1="0"
       y1="0"
       x2="0"
       y2="1">
      <stop
         offset="0"
         style="stop-color:#f4de96;stop-opacity:0"
         id="stop7" />
      <stop
         offset=".5"
         style="stop-color:#f4de96;stop-opacity:1"
         id="stop9" />
      <stop
         offset="1"
         style="stop-color:#f4de96;stop-opacity:0"
         id="stop11" />
    </linearGradient>
    <linearGradient
       id="linGrad2"
       x1="0"
       y1="0"
       x2="1"
       y2="0">
      <stop
         offset="0"
         style="stop-color:#f4de96;stop-opacity:0"
         id="stop14" />
      <stop
         offset=".5"
         style="stop-color:#f4de96;stop-opacity:1"
         id="stop16" />
      <stop
         offset="1"
         style="stop-color:#f4de96;stop-opacity:0"
         id="stop18" />
    </linearGradient>
    <linearGradient
       id="linGrad1-7"
       x1="0"
       y1="0"
       x2="0"
       y2="1">
      <stop
         offset="0"
         style="stop-color:#f4de96;stop-opacity:0"
         id="stop7-1" />
      <stop
         offset=".5"
         style="stop-color:#f4de96;stop-opacity:1"
         id="stop9-1" />
      <stop
         offset="1"
         style="stop-color:#f4de96;stop-opacity:0"
         id="stop11-5" />
    </linearGradient>
    <linearGradient
       inkscape:collect="always"
       xlink:href="#linGrad2-7"
       id="linearGradient3100-2"
       x1="363.02066"
       y1="0.28097573"
       x2="373.69775"
       y2="0.28097573"
       gradientTransform="matrix(0.28097575,0,0,3.5590263,0,1.5892563e-6)"
       gradientUnits="userSpaceOnUse" />
    <linearGradient
       id="linGrad2-7"
       x1="0"
       y1="0"
       x2="1"
       y2="0">
      <stop
         offset="0"
         style="stop-color:#f4de96;stop-opacity:0"
         id="stop14-6" />
      <stop
         offset=".5"
         style="stop-color:#f4de96;stop-opacity:1"
         id="stop16-1" />
      <stop
         offset="1"
         style="stop-color:#f4de96;stop-opacity:0"
         id="stop18-4" />
    </linearGradient>
    <linearGradient
       inkscape:collect="always"
       xlink:href="#linGrad2-7"
       id="linearGradient3102-2"
       x1="3.559026"
       y1="0.28097573"
       x2="14.236104"
       y2="0.28097573"
       gradientTransform="matrix(0.28097575,0,0,3.5590263,0,1.5892563e-6)"
       gradientUnits="userSpaceOnUse" />
    <linearGradient
       id="linearGradient3127"
       x1="0"
       y1="0"
       x2="1"
       y2="0">
      <stop
         offset="0"
         style="stop-color:#f4de96;stop-opacity:0"
         id="stop3129" />
      <stop
         offset=".5"
         style="stop-color:#f4de96;stop-opacity:1"
         id="stop3131" />
      <stop
         offset="1"
         style="stop-color:#f4de96;stop-opacity:0"
         id="stop3133" />
    </linearGradient>
    <linearGradient
       inkscape:collect="always"
       xlink:href="#linGrad1-7"
       id="linearGradient3104-3"
       x1="0.16984156"
       y1="5.8878407"
       x2="0.16984156"
       y2="23.551361"
       gradientTransform="matrix(5.8878405,0,0,0.16984155,0,1.5892563e-6)"
       gradientUnits="userSpaceOnUse" />
    <linearGradient
       id="linearGradient3136"
       x1="0"
       y1="0"
       x2="0"
       y2="1">
      <stop
         offset="0"
         style="stop-color:#f4de96;stop-opacity:0"
         id="stop3138" />
      <stop
         offset=".5"
         style="stop-color:#f4de96;stop-opacity:1"
         id="stop3140" />
      <stop
         offset="1"
         style="stop-color:#f4de96;stop-opacity:0"
         id="stop3142" />
    </linearGradient>
    <linearGradient
       inkscape:collect="always"
       xlink:href="#linGrad1-7"
       id="linearGradient3264"
       gradientUnits="userSpaceOnUse"
       gradientTransform="matrix(5.8878405,0,0,0.16984155,0,1.5892563e-6)"
       x1="0.16984156"
       y1="211.96227"
       x2="0.16984156"
       y2="229.62578" />
  </defs>
  <path
     d="M 0,1.5892563e-6 H 106.00188 V 39.999994 H 0 z"
     id="path20"
     inkscape:connector-curvature="0"
     style="fill:#ce9c29" />
  <path
     d="M 1.000017,1.0000036 H 105.00186 l -3.00006,2.999999 H 4.00007 z"
     id="path30"
     style="fill:url(#linearGradient3104-3)"
     inkscape:connector-curvature="0" />
  <path
     d="M 1.000017,1.0000036 4.00007,4.0000026 V 35.999997 l -3.000053,3 z"
     id="path32"
     style="fill:url(#linearGradient3102-2)"
     inkscape:connector-curvature="0" />
  <path
     d="M 105.00186,1.0000036 V 38.999997 l -3.00006,-3 V 4.0000026 z"
     id="path34"
     style="fill:url(#linearGradient3100-2)"
     inkscape:connector-curvature="0" />
  <path
     d="M 1.000017,38.999997 H 105.00186 l -3.00006,-3 H 4.00007 z"
     id="path36"
     style="fill:url(#linearGradient3264)"
     inkscape:connector-curvature="0" />
  <path
     d="M 0.500008,0.50000459 4.500081,4.5000026 M 5.500099,0.50000459 9.500168,4.5000026 m 1.00002,-3.99999801 4.00007,3.99999801 m 1.000016,-3.99999801 4.000073,3.99999801 m 1.000017,-3.99999801 4.000069,3.99999801 m 1.00002,-3.99999801 4.00007,3.99999801 M 30.50054,0.50000459 34.500613,4.5000026 M 35.50063,0.50000459 39.500699,4.5000026 m 1.00002,-3.99999801 4.00007,3.99999801 m 1.000016,-3.99999801 4.000073,3.99999801 m 1.000017,-3.99999801 4.000073,3.99999801 m -3.000056,0 4.000073,-3.99999801 m 1.000016,3.99999801 4.000072,-3.99999801 m 1.00002,3.99999801 4.00007,-3.99999801 m 1.00002,3.99999801 4.00007,-3.99999801 m 1.00002,3.99999801 4.00007,-3.99999801 m 1.00001,3.99999801 4.00007,-3.99999801 m 1.00002,3.99999801 4.00007,-3.99999801 m 1.00002,3.99999801 4.00007,-3.99999801 m 1.00002,3.99999801 4.00007,-3.99999801 m 1.00002,3.99999801 4.000067,-3.99999801 m 1.00001,3.99999801 4.00008,-3.99999801 M 0.500008,39.499996 4.500081,35.499995 m 1.000018,4.000001 4.000069,-4.000001 m 1.00002,4.000001 4.00007,-4.000001 m 1.000016,4.000001 4.000073,-4.000001 m 1.000017,4.000001 4.000069,-4.000001 m 1.00002,4.000001 4.00007,-4.000001 m 1.000017,4.000001 4.000073,-4.000001 m 1.000017,4.000001 4.000069,-4.000001 m 1.00002,4.000001 4.00007,-4.000001 m 1.000016,4.000001 4.000073,-4.000001 m 1.000017,4.000001 4.000073,-4.000001 m -3.000056,0 4.000073,4.000001 m 1.000016,-4.000001 4.000072,4.000001 m 1.00002,-4.000001 4.00007,4.000001 m 1.00002,-4.000001 4.00007,4.000001 m 1.00002,-4.000001 4.00007,4.000001 m 1.00001,-4.000001 4.00007,4.000001 m 1.00002,-4.000001 4.00007,4.000001 m 1.00002,-4.000001 4.00007,4.000001 m 1.00002,-4.000001 4.00007,4.000001 m 1.00002,-4.000001 4.000067,4.000001 m 1.00001,-4.000001 4.00008,4.000001 M 0.500008,5.5000016 4.500081,9.5000026 m -4.000073,0.9999984 4.000073,3.999998 m -4.000073,1.000002 4.000073,3.999998 m 0,0.999999 -4.000073,4 m 4.000073,1 -4.000073,3.999998 m 4.000073,1 -4.000073,3.999998 M 105.50187,5.5000016 l -4.00008,4.000001 m 4.00008,0.9999984 -4.00008,3.999998 m 4.00008,1.000002 -4.00008,3.999998 m 0,0.999999 4.00008,4 m -4.00008,1 4.00008,3.999998 m -4.00008,1 4.00008,3.999998"
     id="path38"
     inkscape:connector-curvature="0"
     style="fill:none;stroke:#ce9c29;stroke-width:1.00000882" />
  <path
     inkscape:connector-curvature="0"
     d="M 4.9999995,5 H 101 V 35 H 4.9999995 z"
     id="path22"
     style="fill:#ba0c2f;fill-opacity:1" />
  <path
     inkscape:connector-curvature="0"
     d="m 27.610778,5 0,30 13.964071,0 0,-30 z"
     id="path24"
     style="fill:#001489;fill-opacity:1"
     sodipodi:nodetypes="ccccc" />
  <path
     inkscape:connector-curvature="0"
     d="m 32.688622,5 0,30 1.269461,0 0,-30 z"
     id="path24-2"
     style="fill:#ffffff;fill-opacity:1"
     sodipodi:nodetypes="ccccc" />
  <path
     inkscape:connector-curvature="0"
     d="m 41.574849,5 0,30 7.616767,0 0,-30 z"
     id="path24-2-2"
     style="fill:#ffffff;fill-opacity:1"
     sodipodi:nodetypes="ccccc" />
  <path
     inkscape:connector-curvature="0"
     d="m 78.389222,5 0,30 -13.964072,0 0,-30 z"
     id="path24-1"
     style="fill:#001489;fill-opacity:1"
     sodipodi:nodetypes="ccccc" />
  <path
     inkscape:connector-curvature="0"
     d="m 73.311377,5 0,30 -1.269461,0 0,-30 z"
     id="path24-2-6"
     style="fill:#ffffff;fill-opacity:1"
     sodipodi:nodetypes="ccccc" />
  <path
     inkscape:connector-curvature="0"
     d="m 64.42515,5 0,30 -7.616767,0 0,-30 z"
     id="path24-2-2-8"
     style="fill:#ffffff;fill-opacity:1"
     sodipodi:nodetypes="ccccc" />
  <path
     style="font-size:medium;font-style:normal;font-variant:normal;font-weight:normal;font-stretch:normal;text-indent:0;text-align:start;text-decoration:none;line-height:normal;letter-spacing:normal;word-spacing:normal;text-transform:none;direction:ltr;block-progression:tb;writing-mode:lr-tb;text-anchor:start;baseline-shift:baseline;color:#000000;fill:#000000;fill-opacity:0.25;stroke:none;stroke-width:96;marker:none;visibility:visible;display:inline;overflow:visible;enable-background:accumulate;font-family:Sans;-inkscape-font-specification:Sans"
     d="M 4.9999995,6.03445 101,6.03445 101,5 4.9999995,5 z m 0,2.06899 96.0000005,0 0,-1.03448 -96.0000005,0 z m 0,2.06896 96.0000005,0 0,-1.03448 -96.0000005,0 z m 0,2.06896 96.0000005,0 0,-1.03445 -96.0000005,0 z m 0,2.06899 96.0000005,0 0,-1.03448 -96.0000005,0 z m 0,2.06896 96.0000005,0 0,-1.03451 -96.0000005,0 z m 0,2.06896 96.0000005,0 0,-1.03448 -96.0000005,0 z m 0,2.06899 96.0000005,0 0,-1.03452 -96.0000005,0 z m 0,2.06895 96.0000005,0 0,-1.0345 -96.0000005,0 z m 0,2.06894 96.0000005,0 0,-1.03445 -96.0000005,0 z m 0,2.06899 96.0000005,0 0,-1.03449 -96.0000005,0 z m 0,2.06895 96.0000005,0 0,-1.03448 -96.0000005,0 z m 0,2.06897 96.0000005,0 0,-1.03445 -96.0000005,0 z m 0,2.06898 96.0000005,0 0,-1.03448 -96.0000005,0 z m 0,2.06896 L 101,35 l 0,-1.0345 -96.0000005,0 z"
     id="path28"
     inkscape:connector-curvature="0" />
</svg>
