<?xml version="1.0" encoding="UTF-8" standalone="no"?>
<svg
   xmlns:dc="http://purl.org/dc/elements/1.1/"
   xmlns:cc="http://creativecommons.org/ns#"
   xmlns:rdf="http://www.w3.org/1999/02/22-rdf-syntax-ns#"
   xmlns:svg="http://www.w3.org/2000/svg"
   xmlns="http://www.w3.org/2000/svg"
   xmlns:sodipodi="http://sodipodi.sourceforge.net/DTD/sodipodi-0.dtd"
   xmlns:inkscape="http://www.inkscape.org/namespaces/inkscape"
   version="1.0"
   width="106"
   height="40"
   id="svg2"
   inkscape:version="0.48.4 r9939"
   sodipodi:docname="Combat Medical Badge.svg">
  <metadata
     id="metadata38">
    <rdf:RDF>
      <cc:Work
         rdf:about="">
        <dc:format>image/svg+xml</dc:format>
        <dc:type
           rdf:resource="http://purl.org/dc/dcmitype/StillImage" />
      </cc:Work>
    </rdf:RDF>
  </metadata>
  <sodipodi:namedview
     pagecolor="#ffffff"
     bordercolor="#666666"
     borderopacity="1"
     objecttolerance="10"
     gridtolerance="10"
     guidetolerance="10"
     inkscape:pageopacity="0"
     inkscape:pageshadow="2"
     inkscape:window-width="1920"
     inkscape:window-height="1096"
     id="namedview36"
     showgrid="false"
     inkscape:zoom="4.0558838"
     inkscape:cx="33.524659"
     inkscape:cy="17.933838"
     inkscape:window-x="-8"
     inkscape:window-y="-8"
     inkscape:window-maximized="1"
     inkscape:current-layer="svg2" />
  <defs
     id="defs4">
    <linearGradient
       id="linGrad1"
       x1="0"
       y1="0"
       x2="0"
       y2="1">
      <stop
         offset="0"
         style="stop-color:#f4de96;stop-opacity:0"
         id="stop7" />
      <stop
         offset=".5"
         style="stop-color:#f4de96;stop-opacity:1"
         id="stop9" />
      <stop
         offset="1"
         style="stop-color:#f4de96;stop-opacity:0"
         id="stop11" />
    </linearGradient>
    <linearGradient
       id="linGrad2"
       x1="0"
       y1="0"
       x2="1"
       y2="0">
      <stop
         offset="0"
         style="stop-color:#f4de96;stop-opacity:0"
         id="stop14" />
      <stop
         offset=".5"
         style="stop-color:#f4de96;stop-opacity:1"
         id="stop16" />
      <stop
         offset="1"
         style="stop-color:#f4de96;stop-opacity:0"
         id="stop18" />
    </linearGradient>
  </defs>
  <path
     d="M0,0h106v40H0z"
     fill="#ce9c29"
     id="path20" />
  <path
     d="M5,5h96v30H5z"
     fill="#ed0900"
     id="path22"
     style="fill:#ba0c2f;fill-opacity:1" />
  <path
     d="M1,1h104l-3,3h-98z"
     fill="url(#linGrad1)"
     id="path26" />
  <path
     d="M1,1l3,3v32l-3,3z"
     fill="url(#linGrad2)"
     id="path28" />
  <path
     d="M105,1v38l-3-3v-32z"
     fill="url(#linGrad2)"
     id="path30" />
  <path
     d="M1,39h104l-3-3h-98z"
     fill="url(#linGrad1)"
     id="path32" />
  <path
     d="M.5,.5l4,4m1-4l4,4m1-4l4,4m1-4l4,4m1-4l4,4m1-4l4,4m1-4l4,4m1-4l4,4m1-4l4,4m1-4l4,4m1-4l4,4m-3,0l4-4m1,4l4-4m1,4l4-4m1,4l4-4m1,4l4-4m1,4l4-4m1,4l4-4m1,4l4-4m1,4l4-4m1,4l4-4m1,4l4-4M.5,39.5l4-4m1,4l4-4m1,4l4-4m1,4l4-4m1,4l4-4m1,4l4-4m1,4l4-4m1,4l4-4m1,4l4-4m1,4l4-4m1,4l4-4m-3,0l4,4m1-4l4,4m1-4l4,4m1-4l4,4m1-4l4,4m1-4l4,4m1-4l4,4m1-4l4,4m1-4l4,4m1-4l4,4m1-4l4,4M.5,5.5l4,4m-4,1l4,4m-4,1l4,4m0,1l-4,4m4,1l-4,4m4,1l-4,4M105.5,5.5l-4,4m4,1l-4,4m4,1l-4,4m0,1l4,4m-4,1l4,4m-4,1l4,4"
     fill="none"
     stroke="#ce9c29"
     stroke-width="1"
     id="path34" />
  <path
     style="font-size:medium;font-style:normal;font-variant:normal;font-weight:normal;font-stretch:normal;text-indent:0;text-align:start;text-decoration:none;line-height:normal;letter-spacing:normal;word-spacing:normal;text-transform:none;direction:ltr;block-progression:tb;writing-mode:lr-tb;text-anchor:start;baseline-shift:baseline;color:#000000;fill:#000000;fill-opacity:0.25;stroke:none;stroke-width:96;marker:none;visibility:visible;display:inline;overflow:visible;enable-background:accumulate;font-family:Sans;-inkscape-font-specification:Sans"
     d="m 5.0000005,6.500001 95.9999995,0 0,-1 -95.9999995,0 z m 0,2 95.9999995,0 0,-1 -95.9999995,0 z m 0,2 95.9999995,0 0,-1 -95.9999995,0 z m 0,2 95.9999995,0 0,-1 -95.9999995,0 z m 0,2 95.9999995,0 0,-1 -95.9999995,0 z m 0,2 95.9999995,0 0,-1 -95.9999995,0 z m 0,2 95.9999995,0 0,-1 -95.9999995,0 z m 0,2 95.9999995,0 0,-1 -95.9999995,0 z m 0,2 95.9999995,0 0,-1 -95.9999995,0 z m 0,2 95.9999995,0 0,-1 -95.9999995,0 z m 0,2 95.9999995,0 0,-1 -95.9999995,0 z m 0,2 95.9999995,0 0,-1 -95.9999995,0 z m 0,1.999998 95.9999995,0 0,-0.999998 -95.9999995,0 z m 0,2 95.9999995,0 0,-1 -95.9999995,0 z m 0,2 95.9999995,0 0,-1 -95.9999995,0 z"
     id="path24"
     inkscape:connector-curvature="0" />
</svg>
