<?xml version="1.0" encoding="utf-8"?>
<!DOCTYPE svg PUBLIC "-//W3C//DTD SVG 1.1//EN" "http://www.w3.org/Graphics/SVG/1.1/DTD/svg11.dtd">
<svg version="1.1" xmlns="http://www.w3.org/2000/svg" xmlns:xlink="http://www.w3.org/1999/xlink" x="0" y="0" width="765" height="315" viewBox="0 0 765 315">
<style type="text/css">
	.st0{fill:url(#SVGID_1_);stroke:#000;stroke-width:2;}
	.st1{stroke:#000;}
</style>
<g id="back">
	<linearGradient id="SVGID_1_" gradientUnits="userSpaceOnUse" x1="382.4529" y1="6.2541" x2="382.4529" y2="214.4824">
		<stop  offset="0" style="stop-color:#F4C220"/>
		<stop  offset="1" style="stop-color:#EAAD00"/>
	</linearGradient>
	<path class="st0" d="M758.9,300c0,0-158.9-83.1-376.5-83.1S6,300,6,300V73.5C6,73.5,178.7,7,382.5,7s376.5,66.5,376.5,66.5V300z"/>
</g>
<g id="cutout">
	<g>
		<path class="st1" d="M216.8,101.8l-1.3-4.1l-0.4,1.5c-0.4,1.6-0.9,3.4-1.5,5.5c-0.6,2-4.2,13.4-10.8,34l25.3-4.4l-8.7-24.2
			L216.8,101.8z"/>
		<path class="st1" d="M668.7,125.3l-23.1-6.4v26.4l23.6,6.5c5.1,1.4,8.9,1.3,11.5-0.4c2.6-1.6,3.9-4.6,3.9-8.9
			C684.6,134,679.3,128.2,668.7,125.3z"/>
		<path class="st1" d="M109.2,122l-23.2,6.3v26.4l23.7-6.4c5.1-1.4,8.9-3.6,11.5-6.7c2.6-3.1,3.9-6.8,3.9-11
			C125.2,122,119.8,119.1,109.2,122z"/>
		<path class="st1" d="M382.5,43.2C233.7,43.2,95.9,81.7,42,99.1V245c16.6-6.5,36.7-13.7,60-20.9c63.4-19.7,163.6-43.1,280.5-43.1
			s217,23.5,280.5,43.1c23.3,7.2,43.4,14.4,60,20.9V99.1C670.5,81.9,535,43.2,382.5,43.2z M127.3,192l-20-28.5l-21.2,5.7v34L68,208
			v-89.4l43.1-11.7c10.3-2.8,18.2-2.6,23.8,0.4c5.6,3.1,8.4,8.9,8.4,17.5c0,6.3-1.7,12.1-5.1,17.6c-3.4,5.5-8.1,9.7-13.9,12.7
			l23.3,31.3L127.3,192z M240.1,169l-7.8-21.5l-33.6,5.9l-7.8,24.2l-18.4,3.2l32.1-95.1l21.8-3.8l32,83.8L240.1,169z M366.1,157.2
			l-21.9,1.4l-38.9-66.4c0.8,6.6,1.1,12,1.1,16.1V161l-16.6,1.1V72.6l21.3-1.4l39.5,66.9c-0.8-6.3-1.1-12.1-1.1-17.4v-52l16.6-1.1
			V157.2z M487.3,148.8c-4.7,4.5-10.9,7.9-18.5,10.1c-7.6,2.2-15.5,3-23.8,2.4c-14.5-1-25.7-5.8-33.5-14.5
			c-7.8-8.6-11.7-20.3-11.7-35.1c0-14.7,3.9-25.7,11.8-33c7.9-7.3,19.1-10.4,33.9-9.4c20.9,1.5,34.3,10.2,40,26.1l-17.2,4
			c-1.9-4.7-4.8-8.3-8.7-10.9c-4-2.6-8.6-4.1-14-4.5c-8.8-0.6-15.5,1.6-20,6.6c-4.6,5-6.8,12.5-6.8,22.4c0,10.1,2.4,18.1,7.1,24
			s11.3,9.1,19.9,9.7c4.9,0.3,9.6,0,14.1-1.1c4.6-1.1,8.1-2.7,10.6-4.7v-12.4l-21.8-1.5v-13.8l38.9,2.7V148.8z M595,181.2l-71.8-13
			V78.8l69.2,12.5v14.5l-50.8-9.2v22.5l47,8.5v14.5l-47-8.5v23.5l53.3,9.7V181.2z M686.7,205.2l-20-39.5l-21.2-5.9v34l-18-5V99.3
			l43.1,11.9c10.3,2.9,18.2,7.3,23.8,13.5c5.6,6.1,8.4,13.5,8.4,22.1c0,6.3-1.7,11.2-5.1,14.8c-3.4,3.6-8.1,5.3-13.9,5.1l23.3,44
			L686.7,205.2z"/>
	</g>
</g>
</svg>
